<svg width="13" height="22" viewBox="0 0 13 22" fill="none" xmlns="http://www.w3.org/2000/svg">
<path d="M1.00054 19.2931L0.994505 19.3001L0.989005 19.3075C0.635148 19.7844 0.674217 20.4608 1.1067 20.8933C1.58226 21.3689 2.35329 21.3689 2.82885 20.8933L11.8611 11.8611L11.8676 11.8546L11.8736 11.8477L11.9673 11.7391L11.9733 11.7321L11.9788 11.7247C12.3327 11.2478 12.2936 10.5714 11.8611 10.1389L2.82885 1.10667L2.82237 1.10019L2.81544 1.09421L2.7069 1.00051L2.69991 0.994474L2.6925 0.988976C2.21559 0.635119 1.53918 0.674187 1.1067 1.10667L1.10022 1.11315L1.09424 1.12008L1.00054 1.22862L0.994506 1.23561L0.989006 1.24302C0.63515 1.71992 0.674217 2.39633 1.1067 2.82881C1.1067 2.82881 1.1067 2.82882 1.1067 2.82882L9.27745 11L1.10669 19.1712L1.10022 19.1777L1.09424 19.1846L1.00054 19.2931Z" fill="#09D4D9" stroke="#09D4D9" stroke-width="0.5"/>
</svg>
