<svg width="13" height="22" viewBox="0 0 13 22" fill="none" xmlns="http://www.w3.org/2000/svg">
<path d="M11.9672 19.2931L11.9733 19.3001L11.9788 19.3075C12.3326 19.7844 12.2936 20.4608 11.8611 20.8933C11.3855 21.3689 10.6145 21.3689 10.1389 20.8933L1.10667 11.8611L1.10019 11.8546L1.09421 11.8477L1.00051 11.7391L0.994476 11.7321L0.988976 11.7247C0.635117 11.2478 0.674188 10.5714 1.10667 10.1389L10.1389 1.10667L10.1454 1.10019L10.1523 1.09421L10.2609 1.00051L10.2679 0.994474L10.2753 0.988976C10.7522 0.635117 11.4286 0.674189 11.8611 1.10667L11.8676 1.11315L11.8735 1.12008L11.9672 1.22862L11.9733 1.23561L11.9788 1.24302C12.3326 1.71993 12.2936 2.39633 11.8611 2.82882L3.69032 11L11.8611 19.1712L11.8676 19.1777L11.8735 19.1846L11.9672 19.2931Z" fill="#00B6BA" stroke="#09D4D9" stroke-width="0.5"/>
</svg>
