<svg width="54" height="54" viewBox="0 0 54 54" fill="none" xmlns="http://www.w3.org/2000/svg">
<circle cx="27" cy="27" r="27" transform="rotate(90 27 27)" fill="#C0F7F8"/>
<path d="M18.7069 22.0005L18.6999 21.9945L18.6925 21.989C18.2156 21.6351 17.5392 21.6742 17.1067 22.1067C16.6311 22.5822 16.6311 23.3533 17.1067 23.8288L26.1389 32.8611L26.1454 32.8675L26.1523 32.8735L26.2609 32.9672L26.2679 32.9733L26.2753 32.9788C26.7522 33.3326 27.4286 33.2936 27.8611 32.8611L36.8933 23.8288L36.8998 23.8223L36.9058 23.8154L36.9995 23.7069L37.0055 23.6999L37.011 23.6925C37.3649 23.2156 37.3258 22.5392 36.8933 22.1067L36.8869 22.1002L36.8799 22.0942L36.7714 22.0005L36.7644 21.9945L36.757 21.989C36.2801 21.6351 35.6037 21.6742 35.1712 22.1067L27 30.2774L18.8288 22.1067L18.8223 22.1002L18.8154 22.0942L18.7069 22.0005Z" fill="#00B6BA" stroke="#09D4D9" stroke-width="0.5"/>
</svg>
