<svg width="22" height="12" viewBox="0 0 22 12" fill="none" xmlns="http://www.w3.org/2000/svg">
<path d="M3.19081 0.51668L3.18383 0.510648L3.17641 0.505148C2.69951 0.151292 2.0231 0.19036 1.59062 0.622843C1.11506 1.0984 1.11506 1.86943 1.59062 2.34499L10.6229 11.3772L10.6293 11.3837L10.6363 11.3897L10.7448 11.4834L10.7518 11.4894L10.7592 11.4949C11.2361 11.8488 11.9125 11.8097 12.345 11.3772L21.3773 2.34499L21.3838 2.33851L21.3897 2.33158L21.4834 2.22304L21.4895 2.21605L21.495 2.20864C21.8488 1.73173 21.8098 1.05533 21.3773 0.622843L21.3708 0.616366L21.3639 0.610381L21.2553 0.51668L21.2483 0.510648L21.2409 0.505148C20.764 0.151292 20.0876 0.19036 19.6551 0.622843L11.4839 8.7936L3.31276 0.622838L3.30628 0.616364L3.29935 0.610381L3.19081 0.51668Z" fill="#09D4D9" stroke="#09D4D9" stroke-width="0.5"/>
</svg>
