<svg width="227" height="181" viewBox="0 0 227 181" fill="none" xmlns="http://www.w3.org/2000/svg">
<path d="M222.025 112.839C214.103 118.713 202.198 112.938 202.198 112.938C155.762 146.878 99.9833 157.846 99.9833 157.846C99.9833 157.846 83.5876 184.129 68.7566 179.186C53.9256 174.242 62.4825 155.276 62.4825 155.276C26.7958 135.668 17.5586 110.67 17.5586 110.67C13.3255 110.466 10.0599 109.921 7.53519 109.203C-0.228031 106.996 -1.10489 96.315 6.24258 92.9814C13.3708 89.7537 22.7895 91.8627 22.7895 91.8627C31.2255 81.5067 41.6571 73.5923 52.837 67.5525C93.9285 45.3438 145.187 48.3901 145.187 48.3901C148.566 41.8817 159.897 41.8817 163.51 44.7769C167.123 47.672 158.446 51.1643 158.446 51.1643C172.105 51.3306 184.411 59.8195 193.875 69.208C205.713 80.9548 213.098 94.1077 213.098 94.1077C220.075 96.6929 223.137 100.722 224.467 103.942C225.782 107.094 224.777 110.798 222.025 112.839Z" fill="#FFAAAA"/>
<g opacity="0.3">
<path opacity="0.3" d="M193.875 69.2004C192.605 75.1646 185.689 81.8619 164.047 85.7776C132.586 91.4772 125.382 103.579 123.953 110.579C123.061 114.948 120.446 118.788 116.802 121.366C86.1199 143.068 79.105 118.267 75.6127 113.202C71.8634 107.782 61.462 111.07 61.462 111.07C32.1477 120.232 32.949 99.2253 32.949 99.2253L41.5815 95.1811C51.9602 90.313 56.8661 78.2865 52.8371 67.5525C93.9285 45.3438 145.187 48.3901 145.187 48.3901C148.566 41.8817 159.897 41.8817 163.51 44.7769C167.124 47.672 158.446 51.1643 158.446 51.1643C172.105 51.3231 184.411 59.812 193.875 69.2004Z" fill="#000072"/>
</g>
<g opacity="0.5">
<path opacity="0.5" d="M123.847 112.945C123.847 112.945 135.458 96.7459 150.01 92.3918C164.841 87.947 171.871 90.8271 171.871 90.8271C171.871 90.8271 169.482 88.1133 167.01 87.811C167.01 87.811 177.767 79.4884 189.052 82.323C189.052 82.323 179.188 73.3428 164.478 86.7225C164.478 86.7225 153.222 84.7571 144.597 90.0258C135.972 95.2945 126.017 99.8678 124.089 113.489" fill="white"/>
</g>
<g opacity="0.3">
<path opacity="0.3" d="M156.533 45.8276C159.179 45.8579 161.772 46.2207 164.296 46.8481C164.531 46.1602 164.364 45.4497 163.518 44.7694C162.83 44.2175 161.862 43.7716 160.721 43.4541C159.028 44.8223 156.533 45.8276 156.533 45.8276Z" fill="#000072"/>
</g>
<g opacity="0.3">
<path opacity="0.3" d="M224.467 103.935C223.719 102.136 222.441 100.087 220.234 98.1746C220.574 100.714 219.538 103.33 217.414 104.902C209.825 110.526 198.426 105 198.426 105C160.812 132.493 112.501 145.253 98.5093 148.533C96.0904 149.1 94.0419 150.695 92.8929 152.895C89.5442 159.313 81.3652 172.02 70.6312 168.444C65.801 166.834 63.5559 163.667 62.7093 160.19C62.4749 159.222 61.0992 159.237 60.8573 160.197C59.3833 166.169 58.7634 175.86 68.749 179.193C83.58 184.137 99.9758 157.854 99.9758 157.854C99.9758 157.854 155.762 146.886 202.19 112.945C202.19 112.945 214.096 118.713 222.018 112.839C224.777 110.798 225.782 107.102 224.467 103.935Z" fill="#000072"/>
</g>
<g opacity="0.3">
<path opacity="0.3" d="M61.84 143.968C36.9251 129.492 25.8737 111.728 22.2302 104.66C21.2021 102.665 19.1007 101.47 16.8632 101.599C14.981 101.712 13.5145 101.848 12.0027 101.417C7.93585 100.261 5.84197 96.6703 5.94024 93.1326C-1.07463 96.6249 -0.114618 107.026 7.53522 109.203C10.06 109.921 13.3331 110.458 17.5586 110.67C17.5586 110.67 26.7732 135.577 62.3087 155.178C62.4523 152.608 63.0343 150.189 63.5786 148.42C64.1077 146.704 63.3896 144.867 61.84 143.968Z" fill="#000072"/>
</g>
<path d="M72.6193 181C71.2057 181 69.7922 180.788 68.3786 180.32C64.3798 178.989 61.5981 176.578 60.1014 173.154C57.2818 166.713 59.8973 158.633 60.9858 155.805C42.9195 145.699 31.8454 134.247 25.6998 126.355C20.1514 119.227 17.5586 113.746 16.7422 111.826C13.0609 111.607 9.86342 111.116 7.21017 110.36C3.15848 109.211 0.338922 105.749 0.0289983 101.554C-0.280926 97.3431 1.91122 93.6467 5.75126 91.9006C12.0707 89.0357 19.9019 90.1242 22.3133 90.555C31.3767 79.6246 43.3957 70.546 58.0453 63.569C69.9282 57.9147 83.5574 53.6136 98.5622 50.8016C121.383 46.5156 140.568 46.9994 144.514 47.1581C146.094 44.6712 148.898 42.8948 152.519 42.1313C156.919 41.2015 161.855 41.9196 164.251 43.8396C165.521 44.8601 165.657 45.9562 165.551 46.7046C165.347 48.0879 164.062 49.32 162.664 50.2725C174.32 51.8372 186.513 59.2603 198.176 71.952C206.937 81.4917 212.743 91.1144 213.914 93.1252C221.149 95.922 224.24 100.276 225.563 103.474C227.098 107.178 225.934 111.426 222.728 113.799C215.328 119.28 205.048 115.477 202.334 114.313C178.379 131.699 152.028 142.894 134.067 149.244C116.538 155.443 103.393 158.345 100.709 158.912C98.6151 162.155 85.8553 181 72.6193 181ZM15.8427 92.3768C12.9778 92.3768 9.63665 92.7472 6.73394 94.0625C3.25675 95.6348 2.22114 98.8701 2.40256 101.365C2.59154 103.904 4.12604 106.989 7.86025 108.054C10.5211 108.81 13.8017 109.287 17.6191 109.476C18.0953 109.498 18.5111 109.808 18.6774 110.254C18.7 110.315 21.0434 116.506 27.6576 124.979C33.7654 132.803 44.8622 144.225 63.057 154.226C63.6013 154.528 63.828 155.193 63.571 155.76C63.5257 155.858 59.3077 165.406 62.286 172.194C63.503 174.968 65.8085 176.941 69.1345 178.044C82.9073 182.633 98.8117 157.461 98.9704 157.204C99.1443 156.924 99.4315 156.728 99.749 156.667C99.8851 156.637 113.869 153.855 133.319 146.969C151.249 140.627 177.631 129.401 201.487 111.97C201.843 111.713 202.311 111.668 202.712 111.857C202.825 111.91 214.073 117.231 221.315 111.872C223.636 110.148 224.482 107.072 223.371 104.381C222.207 101.569 219.41 97.6909 212.69 95.2039C212.425 95.1056 212.206 94.9167 212.062 94.6672C212.002 94.5614 206.015 83.9862 196.392 73.5243C187.601 63.9696 173.874 52.5326 158.438 52.3512C157.871 52.3437 157.387 51.9355 157.282 51.3761C157.176 50.8167 157.478 50.2649 158.007 50.0533C160.396 49.0857 163.049 47.3698 163.2 46.3568C163.208 46.2888 163.238 46.0771 162.769 45.6992C161.167 44.4141 157.077 43.6053 153.018 44.4671C151.151 44.8601 147.787 45.9713 146.245 48.9345C146.026 49.3503 145.588 49.6073 145.119 49.577C144.915 49.5619 124.188 48.4129 98.9477 53.16C75.7412 57.5217 43.8568 67.9079 23.7117 92.6187C23.4245 92.9664 22.9709 93.1251 22.525 93.0269C22.472 93.0118 19.5693 92.3768 15.8427 92.3768Z" fill="#000072"/>
<path d="M164.705 85.5508C165.135 85.6415 165.483 85.7322 165.854 85.8607C166.216 85.9817 166.572 86.1177 166.927 86.2689C167.63 86.5713 168.303 86.9417 168.945 87.3574C169.27 87.5615 169.573 87.7959 169.875 88.0377C170.177 88.2721 170.465 88.5291 170.729 88.8088C171.258 89.3682 171.697 90.0334 171.939 90.7666C171.954 90.8195 171.931 90.8724 171.878 90.8875C171.856 90.8951 171.825 90.8951 171.803 90.88H171.795C171.107 90.5247 170.525 90.177 169.905 89.8671C169.293 89.5571 168.703 89.2472 168.061 89.0204C167.433 88.7785 166.791 88.5669 166.148 88.3779C165.823 88.2872 165.498 88.1965 165.181 88.1133C164.863 88.0302 164.516 87.9546 164.243 87.8941L164.198 87.8866C163.556 87.7429 163.147 87.108 163.291 86.4655C163.435 85.8229 164.062 85.4223 164.705 85.5508Z" fill="#000072"/>
<path d="M180.821 78.3772C181.259 78.3848 181.629 78.4225 182.023 78.483C182.408 78.5435 182.794 78.6115 183.172 78.7098C183.935 78.8912 184.676 79.1407 185.401 79.4506C186.12 79.7756 186.815 80.1536 187.45 80.6222C188.077 81.0985 188.652 81.6579 189.075 82.3004C189.09 82.3231 189.083 82.3457 189.06 82.3608C189.045 82.3684 189.03 82.3684 189.015 82.3608C188.319 82.0358 187.647 81.7864 186.966 81.5823C186.271 81.4008 185.59 81.2572 184.895 81.1514C184.2 81.0456 183.504 80.97 182.809 80.9095C182.461 80.8793 182.113 80.849 181.766 80.8339L180.76 80.7659H180.722C180.065 80.7205 179.566 80.1536 179.611 79.4959C179.657 78.861 180.193 78.3696 180.821 78.3772Z" fill="#000072"/>
<path d="M128.224 105.363C127.884 105.953 127.491 106.58 127.121 107.193C126.75 107.812 126.372 108.425 126.017 109.052C125.654 109.68 125.329 110.315 124.996 110.957C124.656 111.6 124.309 112.235 123.87 112.938C123.863 112.953 123.84 112.96 123.825 112.953C123.817 112.945 123.81 112.945 123.81 112.938C123.545 112.151 123.53 111.327 123.621 110.541C123.674 110.148 123.749 109.763 123.855 109.385C123.946 108.999 124.059 108.629 124.18 108.251C124.43 107.51 124.717 106.784 125.057 106.081C125.397 105.378 125.76 104.713 126.229 104.04C126.607 103.504 127.347 103.368 127.892 103.746C128.406 104.101 128.549 104.789 128.239 105.318L128.224 105.363Z" fill="#000072"/>
<path d="M16.4323 111.063C16.2886 110.526 16.1904 109.997 16.0921 109.46C16.009 108.924 15.9258 108.379 15.8805 107.835C15.7671 106.747 15.6915 105.643 15.7746 104.547C15.7746 104.494 15.82 104.456 15.8729 104.464C15.9107 104.464 15.9409 104.486 15.9485 104.517C16.3794 105.514 16.848 106.467 17.3167 107.419L18.0272 108.848C18.254 109.324 18.4808 109.808 18.6849 110.277C18.9419 110.881 18.6622 111.584 18.0575 111.849C17.4528 112.106 16.7498 111.826 16.4852 111.222C16.4701 111.169 16.4474 111.116 16.4323 111.063Z" fill="#000072"/>
<path d="M23.107 90.7137C23.2657 90.7666 23.3489 90.8044 23.4623 90.8497C23.5681 90.8951 23.6664 90.948 23.7646 91.0009C23.9612 91.1068 24.1426 91.2277 24.324 91.3486C24.6793 91.5981 25.0119 91.8853 25.3067 92.2028C25.6015 92.5203 25.8736 92.8605 26.0777 93.246C26.2894 93.6164 26.4255 94.0397 26.4859 94.463C26.4935 94.5235 26.4481 94.584 26.3877 94.5915C26.365 94.5915 26.3348 94.5915 26.3196 94.5764H26.3121C25.9341 94.3798 25.6091 94.1909 25.2765 94.0321C24.9439 93.8734 24.6339 93.7146 24.3089 93.5937C23.9839 93.4652 23.6664 93.3518 23.3489 93.2535C23.1902 93.2006 23.0314 93.1628 22.8727 93.1175L22.4569 93.0117L22.4342 93.0041C21.7993 92.8378 21.4138 92.1877 21.5725 91.5527C21.7388 90.9178 22.3889 90.5323 23.0239 90.691C23.0541 90.691 23.0843 90.7061 23.107 90.7137Z" fill="#000072"/>
<path d="M100.24 159.01C99.7112 159.086 99.2199 159.116 98.7134 159.131C98.2069 159.162 97.7005 159.154 97.2016 159.146C96.6951 159.146 96.1887 159.116 95.6897 159.078C95.1833 159.025 94.6768 158.973 94.1779 158.867C94.1023 158.852 94.0494 158.776 94.0645 158.693C94.0721 158.648 94.1099 158.602 94.1552 158.587C94.6315 158.383 95.1001 158.224 95.5688 158.05C96.0375 157.884 96.5061 157.725 96.9748 157.574C97.4435 157.423 97.9046 157.257 98.3657 157.113C98.8268 156.962 99.2955 156.811 99.7339 156.675C100.361 156.478 101.034 156.833 101.231 157.461C101.427 158.088 101.072 158.761 100.444 158.957C100.369 158.988 100.301 159.003 100.24 159.01Z" fill="#000072"/>
<path d="M218.624 80.3428C218.798 90.8424 215.494 102.045 209.5 111.124C208.631 112.446 207.701 113.716 206.718 114.933C192.447 132.652 176.587 125.909 176.013 115.342C175.809 111.63 177.495 107.442 181.803 103.678C184.721 101.13 187.201 98.6283 189.317 96.2321C196.967 87.5693 199.817 80.2823 200.724 77.4023C200.988 76.5481 201.087 76.0794 201.087 76.0794C201.963 71.8312 200.709 68.2028 198.758 65.3152C197.231 63.0475 195.274 61.2333 193.58 59.918C192.537 59.1092 191.592 58.4818 190.912 58.066C190.224 57.6427 189.793 57.4311 189.793 57.4311L183.701 46.682C188.41 46.6517 192.59 47.2262 196.279 48.2996C204.768 50.7715 210.634 55.9041 214.217 62.4352C217.112 67.7115 218.526 73.8948 218.624 80.3428Z" fill="#FA9B27"/>
<path d="M218.624 80.3428C218.798 90.8424 215.494 102.045 209.5 111.124C205.184 99.4976 195.009 96.8065 189.325 96.232C196.974 87.5693 199.824 80.2823 200.731 77.4023C207.92 76.3515 213.892 77.8936 218.624 80.3428Z" fill="#F96328"/>
<path d="M214.217 62.4427C207.784 61.8456 202.183 63.7353 198.766 65.3228C196.302 61.6641 192.711 59.1772 190.92 58.0736C192.031 54.1352 194.042 50.8924 196.287 48.3072C204.768 50.779 210.634 55.9041 214.217 62.4427Z" fill="#F96328"/>
<g opacity="0.3">
<path opacity="0.3" d="M218.624 80.3428C218.798 90.8424 215.494 102.045 209.5 111.124C208.631 112.446 207.701 113.716 206.718 114.933C192.447 132.652 176.587 125.909 176.013 115.342C180.329 118.161 189.143 121.268 200.285 111.124C216.28 96.5571 217.747 65.0733 200.285 56.7129C200.285 56.7129 196.347 54.8156 193.58 59.918C192.537 59.1092 191.592 58.4818 190.912 58.066C190.224 57.6427 189.793 57.4311 189.793 57.4311L183.701 46.682C188.41 46.6517 192.59 47.2262 196.279 48.2996C204.768 50.7715 210.634 55.9041 214.217 62.4352C217.112 67.7115 218.526 73.8948 218.624 80.3428Z" fill="#000072"/>
</g>
<g opacity="0.5">
<path opacity="0.5" d="M178.644 116.838C178.439 113.127 180.125 108.939 184.434 105.175C187.352 102.627 189.831 100.125 191.948 97.7288C199.597 89.066 202.447 81.779 203.354 78.899C203.619 78.0448 203.717 77.5761 203.717 77.5761C204.594 73.3279 203.339 69.6995 201.389 66.8119C199.862 64.5442 197.904 62.73 196.211 61.4147C195.168 60.6059 194.223 59.9785 193.543 59.5627C192.855 59.1394 192.424 58.9278 192.424 58.9278L186.331 48.1863C191.041 48.156 195.221 48.7305 198.91 49.8039C200.943 50.3935 202.818 51.1419 204.556 52.0263C202.137 50.4767 199.386 49.2067 196.287 48.3072C192.598 47.2338 188.418 46.6593 183.708 46.6896L189.801 57.4386C189.801 57.4386 190.232 57.6578 190.92 58.0736C191.6 58.4893 192.545 59.1092 193.588 59.9256C195.281 61.2409 197.239 63.0551 198.766 65.3228C200.716 68.2179 201.971 71.8388 201.094 76.087C201.094 76.087 200.996 76.5557 200.731 77.4098C199.824 80.2899 196.974 87.5769 189.325 96.2396C187.208 98.6359 184.721 101.138 181.811 103.685C177.502 107.45 175.816 111.63 176.021 115.349C176.247 119.582 178.931 123.195 182.975 124.874C180.428 122.938 178.817 120.074 178.644 116.838Z" fill="white"/>
</g>
<path d="M188.244 127.081C187.133 127.081 186.036 126.967 184.948 126.733C180.095 125.682 176.353 122.235 175.189 117.738C173.866 112.628 175.998 107.178 181.025 102.786C197.035 88.7938 199.907 75.9659 199.93 75.8374C202.122 65.2017 189.385 58.5648 189.257 58.4968C189.053 58.391 188.879 58.2247 188.758 58.0206L182.657 47.2715C182.446 46.9011 182.453 46.4551 182.665 46.0847C182.877 45.7219 183.27 45.4951 183.693 45.4875C191.691 45.4497 198.607 47.0976 204.239 50.4161C209.402 53.4624 213.378 57.8316 216.061 63.3951C223.379 78.5587 219.841 100.541 207.656 115.674C201.707 123.067 194.79 127.081 188.244 127.081ZM190.67 56.5465C192.862 57.7484 204.647 64.7936 202.266 76.3288C202.152 76.8806 199.257 90.0184 182.597 104.585C178.273 108.364 176.414 112.938 177.502 117.141C178.44 120.761 181.486 123.543 185.454 124.405C192.016 125.826 199.431 122.099 205.796 114.192C217.437 99.7394 220.846 78.8233 213.914 64.4458C210.377 57.121 202.636 48.4658 185.772 47.914L190.67 56.5465Z" fill="#000072"/>
<path d="M188.236 65.096C187.881 66.3055 187.488 67.462 187.08 68.543C184.494 75.3991 181.168 79.5718 181.168 79.5718C180.276 79.5793 179.422 79.6247 178.613 79.7078C168.892 80.6981 164.856 86.7227 164.856 86.7227C157.251 86.1029 150.841 87.5013 145.603 89.7464C133.478 94.9395 127.612 104.706 127.612 104.706C125.949 107.397 122.532 110.776 118.171 114.004C107.656 121.782 91.6759 128.699 81.6752 123.135C75.779 119.847 75.2197 115.576 76.6786 111.63C78.8707 105.689 85.6286 100.473 85.6286 100.473L86.8003 93.0043L92.3562 57.6956C94.828 41.9575 103.438 27.7539 116.47 18.5847C120.514 15.7425 124.611 13.6259 128.678 12.1519C131.437 11.1541 134.181 10.436 136.895 9.99C145.52 8.55377 153.85 9.74811 161.205 12.5979C161.484 12.7037 161.757 12.8171 162.029 12.9305C163.813 13.6562 165.529 14.4801 167.176 15.3872C176.051 20.2553 182.922 27.5121 186.293 34.9578C186.384 35.1543 186.467 35.3584 186.558 35.555C187.185 37.0214 187.715 38.4803 188.161 39.909C191.154 49.5469 190.239 58.2853 188.236 65.096Z" fill="#FA9B27"/>
<path d="M118.163 113.996C107.648 121.774 91.6683 128.691 81.6676 123.127C66.897 114.903 85.6134 100.465 85.6134 100.465L86.7851 92.9968C96.9294 91.9082 117.815 92.3164 118.163 113.996Z" fill="white"/>
<path d="M178.613 79.7003C168.892 80.6905 164.856 86.7151 164.856 86.7151C157.251 86.0953 150.841 87.4937 145.603 89.7388C145.603 89.7388 142.367 77.3872 152.466 72.9499C152.466 72.9499 173.821 65.7839 178.613 79.7003Z" fill="white"/>
<path d="M145.3 29.5303L145.285 30.7474C145.3 31.5562 145.187 32.365 145.119 33.1587C145.021 33.96 144.869 34.7461 144.703 35.5323C144.65 35.7893 144.393 35.9631 144.136 35.9027C143.962 35.8724 143.826 35.7439 143.781 35.5852L143.773 35.555C143.524 34.799 143.335 34.0583 143.116 33.325L142.776 32.2365C142.715 32.0551 142.67 31.8737 142.617 31.6998L142.435 31.1631L142.073 30.1048C141.959 29.7571 141.808 29.4169 141.679 29.0692C141.438 28.3738 141.135 27.7086 140.863 27.0434C140.273 25.7205 139.669 24.4279 138.958 23.2033C138.27 21.9712 137.499 20.792 136.66 19.6883C134.982 17.466 133.039 15.4779 130.877 13.7771C130.167 13.2026 129.434 12.6584 128.678 12.1519C131.437 11.1541 134.181 10.436 136.895 9.98999C137.59 10.7157 138.255 11.4716 138.867 12.2577C139.911 13.5881 140.848 15.0093 141.664 16.4833C143.297 19.4238 144.439 22.6288 144.968 25.8793C145.081 26.6957 145.202 27.5045 145.24 28.3209C145.263 28.7215 145.293 29.1221 145.3 29.5303Z" fill="#F96328"/>
<path d="M167.169 15.3721C167.108 17.413 166.836 19.4465 166.345 21.3967C166.126 22.1904 165.914 22.9841 165.627 23.7476C165.491 24.1331 165.355 24.5186 165.203 24.889L164.712 26.0002C164.402 26.7486 163.979 27.444 163.608 28.147C163.2 28.8424 162.747 29.5076 162.293 30.1577C162.142 30.3769 161.84 30.4299 161.62 30.2711C161.477 30.1729 161.401 29.999 161.416 29.8327V29.8025C161.484 29.0163 161.605 28.2604 161.696 27.4969L161.809 26.3631C161.825 26.1741 161.855 25.9927 161.877 25.8037L161.915 25.2443L161.998 24.1331C162.029 23.7627 162.029 23.3923 162.051 23.0219C162.097 22.2887 162.089 21.5554 162.097 20.8373C162.082 19.386 162.036 17.9649 161.862 16.5589C161.726 15.2133 161.499 13.8829 161.182 12.5828C163.268 13.3916 165.264 14.3289 167.169 15.3721Z" fill="#F96328"/>
<path d="M188.153 39.8939C187.533 40.4306 186.928 40.9673 186.263 41.436C185.931 41.6778 185.606 41.9273 185.273 42.1465L184.237 42.7966C183.572 43.2426 182.824 43.5903 182.121 43.9607C181.395 44.316 180.647 44.6108 179.906 44.898C179.657 44.9963 179.384 44.8754 179.286 44.6259C179.226 44.4596 179.263 44.2782 179.362 44.1497L179.384 44.127C179.883 43.5147 180.405 42.9478 180.904 42.3657L181.637 41.4889C181.758 41.3452 181.886 41.2092 182.007 41.0656L182.355 40.6196L183.051 39.7427C183.277 39.4555 183.489 39.1455 183.708 38.8507C184.162 38.2762 184.555 37.6564 184.971 37.0592C185.432 36.3562 185.878 35.6532 186.293 34.9502C186.384 35.1468 186.467 35.3509 186.558 35.5474C187.178 37.0063 187.715 38.4652 188.153 39.8939Z" fill="#F96328"/>
<path d="M149.36 59.6005C149.36 59.6005 154.069 57.7788 159.141 59.2679C159.723 59.4418 160.124 58.6934 159.67 58.3079C157.969 56.849 154.726 55.118 149.269 55.7076L149.36 59.6005Z" fill="#F96328"/>
<path d="M154.651 42.2902C154.651 42.2902 159.67 42.8571 163.472 46.5308C163.903 46.9466 164.606 46.4779 164.387 45.9185C163.548 43.8398 161.484 40.801 156.374 38.7903L154.651 42.2902Z" fill="#F96328"/>
<g opacity="0.3">
<path opacity="0.3" d="M188.236 65.096C187.881 66.3055 187.488 67.462 187.08 68.543C184.494 75.3991 181.168 79.5717 181.168 79.5717C180.276 79.5793 179.422 79.6247 178.613 79.7078C168.892 80.6981 164.856 86.7227 164.856 86.7227C157.251 86.1028 150.841 87.5013 145.603 89.7463C133.478 94.9395 127.612 104.706 127.612 104.706C125.949 107.397 122.532 110.776 118.171 114.004C107.656 121.782 91.6759 128.699 81.6752 123.135C75.779 119.847 75.2197 115.576 76.6786 111.63L77.0792 111.365C77.0792 111.365 87.7678 129.636 116.659 109.513C117.264 109.098 117.762 108.546 118.11 107.903C119.796 104.797 125.964 94.5993 137.016 88.6881C138.512 87.8868 139.419 86.3069 139.291 84.6212C139.026 81.2726 139.419 75.6108 144.197 71.7859C145.467 70.7729 146.056 69.1402 145.716 67.5527C144.363 61.3013 142.239 46.0319 151.302 37.8378C163.646 26.673 173.118 38.1704 173.118 38.1704C173.118 38.1704 158.672 31.08 151.998 45.1626C151.998 45.1626 146.714 52.7595 151.023 69.0268C151.023 69.0268 156.896 67.4998 161.243 71.2416C161.243 71.2416 148.77 70.6822 145.648 80.9626C145.648 80.9626 152.965 85.2789 161.862 81.3103C170.759 77.3418 168.968 75.6183 175.469 74.7944C181.153 74.0687 194.352 35.9858 162.029 12.938C163.813 13.6637 165.529 14.4877 167.176 15.3948C176.051 20.2628 182.922 27.5196 186.293 34.9653C186.384 35.1619 186.467 35.366 186.558 35.5625C187.185 37.029 187.715 38.4879 188.161 39.9166C191.154 49.5469 190.239 58.2853 188.236 65.096Z" fill="#000072"/>
</g>
<g opacity="0.5">
<path opacity="0.5" d="M76.671 114.623C78.8632 108.682 85.621 103.466 85.621 103.466L86.7927 95.9977L92.3486 60.6891C94.8205 44.951 103.43 30.7474 116.462 21.5781C120.506 18.7359 124.603 16.6193 128.67 15.1453C131.429 14.1475 134.173 13.4294 136.887 12.9834C145.512 11.5472 153.842 12.7415 161.197 15.5913C161.477 15.6971 161.749 15.8105 162.021 15.9239C163.805 16.6496 165.521 17.4735 167.169 18.3806C176.043 23.2487 182.915 30.5055 186.286 37.9512C186.377 38.1477 186.46 38.3518 186.55 38.5484C187.178 40.0148 187.707 41.4738 188.153 42.9024C189.355 46.7803 189.929 50.5069 190.058 54.0219C190.209 49.6527 189.71 44.898 188.153 39.9015C187.707 38.4728 187.178 37.0139 186.55 35.5474C186.467 35.3509 186.377 35.1468 186.286 34.9502C182.915 27.5045 176.043 20.2477 167.169 15.3796C165.521 14.4726 163.798 13.6486 162.021 12.9229C161.749 12.8095 161.477 12.7037 161.197 12.5903C153.842 9.74054 145.52 8.5462 136.887 9.98243C134.173 10.4284 131.429 11.139 128.67 12.1443C124.603 13.6184 120.506 15.7349 116.462 18.5772C103.43 27.7464 94.828 41.95 92.3486 57.6881L86.7927 92.9968L85.621 100.465C85.621 100.465 78.8632 105.681 76.671 111.622C76.0738 113.255 75.8168 114.941 76.1343 116.589C76.2477 115.931 76.4291 115.274 76.671 114.623Z" fill="white"/>
</g>
<g opacity="0.5">
<path opacity="0.5" d="M173.11 38.1629C173.11 38.1629 160.169 34.4513 153.759 48.9724C153.759 48.9724 149.473 57.8771 154.568 72.2394L152.466 72.95C152.466 72.95 146.207 59.8727 150.592 48.2997C150.584 48.2997 155.498 30.2711 173.11 38.1629Z" fill="white"/>
</g>
<path d="M90.1792 126.325C86.891 126.325 83.7917 125.675 81.0931 124.17C77.1926 121.993 75.0836 119.181 74.8266 115.803C74.2899 108.606 82.5898 101.387 84.5098 99.8225L91.1694 57.499C93.7093 41.3527 102.682 26.8089 115.774 17.6019C132.004 6.18764 147.296 7.17032 157.259 10.005C170.873 13.8753 182.801 23.7173 187.647 35.0711C193.15 47.9594 191.351 59.5702 188.879 67.0386C186.203 75.1193 182.264 80.1083 182.098 80.3124C181.871 80.5921 181.531 80.7584 181.176 80.7584C170.427 80.834 166.02 87.1156 165.838 87.3878C165.597 87.7431 165.181 87.9396 164.75 87.9094C154.643 87.0854 145.497 89.7538 137.582 95.8313C131.641 100.389 128.655 105.273 128.625 105.318C123.825 113.111 105.01 126.325 90.1792 126.325ZM144.189 10.5493C136.229 10.5493 126.879 12.7187 117.158 19.5597C104.587 28.3963 95.977 42.3656 93.5354 57.8769L86.8002 100.654C86.7549 100.956 86.5886 101.229 86.3543 101.41C86.256 101.486 76.7088 108.946 77.2153 115.629C77.4042 118.153 79.105 120.33 82.2572 122.084C84.6157 123.399 87.3445 123.966 90.2699 123.974C104.058 123.974 122.169 111.267 126.599 104.078C126.72 103.874 129.789 98.8323 136.056 94.002C141.748 89.6102 151.242 84.6136 164.296 85.4904C165.725 83.7443 170.722 78.657 180.564 78.3924C181.546 77.0318 184.54 72.587 186.641 66.2071C190.02 55.9418 189.619 45.7823 185.454 36.016C180.881 25.2971 169.558 15.9918 156.609 12.3105C153.094 11.3052 148.883 10.5493 144.189 10.5493Z" fill="#000072"/>
<path d="M90.6402 125.32C90.5344 124.859 90.4815 124.488 90.4512 124.072C90.4135 123.664 90.4135 123.264 90.4286 122.855C90.4588 122.039 90.5873 121.223 90.8216 120.421C91.0787 119.628 91.4188 118.834 91.948 118.154C92.4847 117.481 93.2254 116.967 94.0343 116.763C94.1477 116.732 94.2611 116.8 94.2913 116.914C94.3064 116.967 94.2988 117.012 94.2762 117.057L94.2686 117.073C93.9133 117.791 93.6336 118.38 93.422 119C93.2179 119.62 93.044 120.232 92.9684 120.89C92.9306 121.215 92.9004 121.54 92.8928 121.88C92.8702 122.213 92.8702 122.545 92.8777 122.886C92.8777 123.218 92.9004 123.558 92.9155 123.891C92.9382 124.216 92.9684 124.586 92.9836 124.859L92.9911 124.949C93.044 125.607 92.5527 126.181 91.9026 126.234C91.2979 126.28 90.7687 125.887 90.6402 125.32Z" fill="#000072"/>
<path d="M77.5328 121.268C77.4042 120.807 77.3438 120.436 77.306 120.021C77.2833 119.817 77.2682 119.612 77.2682 119.408C77.2606 119.204 77.2531 119 77.2682 118.796C77.306 117.972 77.4345 117.141 77.7142 116.339C78.0014 115.538 78.4399 114.759 79.0597 114.147C79.6871 113.535 80.4959 113.157 81.2972 113.051C81.403 113.036 81.5013 113.112 81.5164 113.217C81.524 113.27 81.5089 113.323 81.4786 113.361L81.4635 113.376C80.9873 114.004 80.6018 114.525 80.3523 115.115C80.1104 115.704 79.929 116.286 79.8307 116.906C79.7325 117.526 79.7098 118.176 79.7249 118.826C79.7249 119.151 79.7476 119.484 79.7703 119.809L79.8459 120.754L79.8534 120.86C79.9063 121.517 79.4225 122.092 78.7649 122.145C78.2055 122.183 77.6839 121.805 77.5328 121.268Z" fill="#000072"/>
<path d="M144.454 90.0865C144.333 89.7312 144.257 89.444 144.166 89.1189C144.083 88.809 144.008 88.4915 143.947 88.174C143.819 87.5466 143.728 86.9117 143.668 86.2691C143.547 84.9841 143.554 83.6839 143.728 82.3762C144.046 79.7834 145.119 77.1301 146.986 75.1496C147.901 74.1518 148.974 73.3128 150.138 72.6703C150.425 72.5115 150.728 72.3754 151.023 72.2243C151.174 72.1562 151.317 72.0806 151.469 72.0126L151.922 71.8312C152.224 71.7178 152.527 71.5893 152.829 71.4835C153.139 71.3928 153.441 71.2945 153.751 71.2113C156.231 70.5537 158.793 70.531 161.227 71.1584C161.295 71.1735 161.333 71.2416 161.318 71.3096C161.311 71.3474 161.28 71.3776 161.243 71.3928H161.235C160.638 71.612 160.056 71.7707 159.474 71.9219C158.892 72.0958 158.325 72.2621 157.758 72.4057C157.198 72.5795 156.639 72.7458 156.087 72.9046C155.55 73.1087 154.991 73.2372 154.47 73.4564C154.205 73.5622 153.94 73.6529 153.683 73.7512C153.426 73.857 153.177 73.9855 152.927 74.0989L152.55 74.2728C152.429 74.3333 152.308 74.4089 152.194 74.4769C151.96 74.6129 151.71 74.7415 151.484 74.8851L150.818 75.3462C150.592 75.4974 150.403 75.6863 150.191 75.8526C149.979 76.0114 149.79 76.2004 149.601 76.3893L149.314 76.669C149.224 76.7597 149.14 76.8731 149.057 76.9714C148.369 77.7651 147.818 78.6722 147.394 79.6473C146.971 80.6225 146.706 81.6732 146.532 82.7541C146.374 83.8351 146.321 84.9538 146.359 86.0726C146.389 86.632 146.419 87.1989 146.487 87.7507L146.6 88.5822C146.638 88.8468 146.691 89.1492 146.744 89.3684L146.759 89.4288C146.895 90.0714 146.487 90.7063 145.845 90.8424C145.24 91.0011 144.643 90.6534 144.454 90.0865Z" fill="#000072"/>
<path d="M151.385 73.464C151.128 72.8895 150.924 72.3679 150.72 71.8161C150.516 71.2718 150.335 70.72 150.153 70.1757C149.972 69.6239 149.821 69.0721 149.654 68.5127L149.224 66.8346C148.687 64.5895 148.347 62.2916 148.195 59.9785C148.097 58.8219 148.127 57.6578 148.12 56.5013C148.211 55.3372 148.233 54.1731 148.43 53.0241L148.551 52.1548L148.611 51.7239L148.709 51.293L149.103 49.5771C149.155 49.2899 149.254 49.0102 149.344 48.7305L149.617 47.8914C149.806 47.3321 149.964 46.7727 150.199 46.2284C150.622 45.1323 151.113 44.0438 151.688 42.9931C152.255 41.9348 152.943 40.9295 153.759 40.0148C154.568 39.1002 155.52 38.2989 156.556 37.6413C157.591 36.9761 158.703 36.4394 159.859 36.0538C161.016 35.6759 162.218 35.4416 163.412 35.3508C164.606 35.2752 165.801 35.3206 166.972 35.5096C169.301 35.88 171.523 36.772 173.352 38.1402C173.413 38.1855 173.428 38.2687 173.382 38.3291C173.345 38.3821 173.277 38.3972 173.216 38.3745C171.168 37.475 168.991 37.0214 166.836 37.0063C165.763 36.9912 164.697 37.0819 163.669 37.2935C162.641 37.4901 161.636 37.8076 160.698 38.2309C159.761 38.6542 158.869 39.1758 158.068 39.8032C157.266 40.4306 156.533 41.1411 155.838 41.897C154.454 43.4013 153.237 45.155 152.413 47.1355C152.187 47.6193 152.043 48.1409 151.869 48.6473L151.612 49.4108C151.529 49.6678 151.438 49.9173 151.385 50.1818L151.015 51.7541L150.924 52.1472L150.864 52.5479L150.743 53.3491C150.546 54.4074 150.524 55.4959 150.433 56.5769C150.433 57.6654 150.395 58.7463 150.501 59.8349C150.637 62.0043 150.97 64.1738 151.476 66.2979L151.899 67.8853C152.066 68.4069 152.209 68.936 152.383 69.4501C152.557 69.9641 152.731 70.4857 152.927 70.9921C153.116 71.491 153.328 72.0126 153.532 72.4662L153.547 72.5039C153.819 73.1011 153.555 73.8117 152.95 74.0838C152.353 74.3559 151.642 74.0914 151.37 73.4866L151.385 73.464Z" fill="#000072"/>
<path d="M151.34 80.5544C151.574 81.2272 151.665 81.8319 151.718 82.4367C151.741 82.7315 151.748 83.0263 151.771 83.3211C151.786 83.6159 151.816 83.9031 151.846 84.1904C151.96 85.3318 152.149 86.4279 152.421 87.3803L152.429 87.4106C152.618 88.0455 152.247 88.7183 151.612 88.9073C151.03 89.0811 150.418 88.7863 150.176 88.2496C149.874 87.5769 149.722 86.8739 149.647 86.1936C149.579 85.5057 149.586 84.8329 149.654 84.1753C149.677 83.8427 149.737 83.5176 149.798 83.2001C149.858 82.8751 149.919 82.5576 150.017 82.2477C150.214 81.6278 150.501 81.0155 151 80.4864C151.075 80.4033 151.204 80.4033 151.287 80.4788C151.31 80.494 151.325 80.5242 151.34 80.5544Z" fill="#000072"/>
<path d="M162.52 79.2543C162.701 79.9422 162.747 80.5544 162.754 81.1592C162.754 81.4615 162.739 81.7488 162.739 82.0436C162.732 82.3384 162.747 82.6256 162.747 82.9129C162.769 84.0619 162.875 85.1655 163.079 86.1331L163.087 86.1633C163.223 86.8134 162.807 87.4484 162.157 87.592C161.56 87.7205 160.978 87.3803 160.774 86.8285C160.524 86.1331 160.426 85.4225 160.411 84.7422C160.396 84.0543 160.456 83.3816 160.577 82.7315C160.63 82.4064 160.713 82.0889 160.789 81.7715C160.872 81.454 160.955 81.1441 161.076 80.8341C161.318 80.2294 161.651 79.6398 162.195 79.156C162.278 79.0804 162.407 79.088 162.482 79.1711C162.497 79.1862 162.512 79.2165 162.52 79.2543Z" fill="#000072"/>
<path d="M48.997 84.4549C48.997 84.4549 33.8107 87.985 33.3269 99.233C32.8432 110.481 51.4084 117.352 66.3603 98.0613C66.3603 98.0537 53.9407 92.4297 48.997 84.4549Z" fill="white"/>
<g opacity="0.3">
<path opacity="0.3" d="M33.8183 96.3C33.5462 97.2147 33.3723 98.1822 33.3269 99.2254C32.8432 110.473 51.4084 117.345 66.3603 98.0537C66.3603 98.0537 65.3021 97.5775 63.692 96.7007C50.2972 110.579 35.2999 105.605 33.8183 96.3Z" fill="#000072"/>
</g>
<path d="M45.9129 111.388C43.8266 111.388 41.899 111.033 40.2133 110.413C35.0958 108.538 31.9209 104.124 32.1326 99.1724C32.6466 87.161 48.0672 83.4419 48.7249 83.2832C49.2238 83.1698 49.7378 83.3814 50.0099 83.8199C54.7041 91.3941 66.7307 96.9123 66.8517 96.9652C67.1843 97.1164 67.4261 97.4112 67.5169 97.7665C67.6076 98.1217 67.5244 98.4921 67.3052 98.7869C60.0862 108.092 52.2474 111.388 45.9129 111.388ZM48.4754 85.8306C45.4593 86.7301 34.8917 90.4946 34.5213 99.2783C34.355 103.232 36.8495 106.641 41.0372 108.175C46.5781 110.201 55.9287 108.803 64.4932 98.477C61.1823 96.7989 52.7917 92.1349 48.4754 85.8306Z" fill="#000072"/>
<path d="M33.5839 104.524C33.6368 104.109 33.7049 103.776 33.7956 103.413C33.8863 103.058 33.9997 102.71 34.1206 102.362C34.3701 101.675 34.6724 101.002 35.0353 100.367C35.3981 99.7243 35.8214 99.112 36.3355 98.5678C36.857 98.0311 37.4542 97.5624 38.1421 97.2676C38.1799 97.2525 38.2177 97.2676 38.2328 97.3054C38.2404 97.3205 38.2404 97.3432 38.2328 97.3583C37.9455 98.0462 37.6885 98.6509 37.4618 99.2783C37.2501 99.9057 37.0233 100.51 36.8419 101.138C36.6681 101.765 36.5018 102.393 36.3581 103.02L35.9348 104.872L35.9273 104.917C35.7836 105.56 35.1411 105.961 34.4986 105.817C33.9014 105.696 33.5159 105.122 33.5839 104.524Z" fill="#000072"/>
<path d="M41.4228 109.967C41.3774 109.491 41.385 109.098 41.4077 108.674C41.4152 108.463 41.4304 108.259 41.4606 108.047C41.4833 107.835 41.5059 107.631 41.5437 107.427C41.6874 106.603 41.899 105.779 42.2316 105.001C42.5718 104.222 43.0027 103.466 43.5847 102.831C44.1819 102.211 44.9227 101.727 45.7164 101.516C45.7466 101.508 45.7769 101.523 45.7844 101.554C45.792 101.569 45.7844 101.591 45.7769 101.599C45.2855 102.257 44.9151 102.869 44.6279 103.527C44.3709 104.192 44.1592 104.857 44.0231 105.552C43.8946 106.248 43.8266 106.958 43.7964 107.669C43.7737 108.024 43.7737 108.379 43.7737 108.735C43.7737 109.082 43.7812 109.468 43.7964 109.763V109.816C43.8266 110.473 43.3201 111.033 42.6625 111.063C42.0275 111.078 41.4833 110.594 41.4228 109.967Z" fill="#000072"/>
<path d="M137.991 15.1377L119.977 41.4586C118.586 39.2362 117.105 37.2784 115.585 35.5549C105.842 24.5186 94.5029 23.105 94.5029 23.105C102.1 17.0199 112.788 12.7415 112.788 12.7415C130.893 6.21794 136.01 9.869 137.446 12.7339C138.074 14.019 137.991 15.1377 137.991 15.1377Z" fill="#FA9B27"/>
<g opacity="0.3">
<path opacity="0.3" d="M109.092 18.4184C106.439 19.9075 106.235 23.5888 108.669 25.4332C114.119 29.5605 115.585 35.4944 115.585 35.4944L115.578 35.5549C105.834 24.5186 94.4954 23.105 94.4954 23.105C102.092 17.0199 112.781 12.7415 112.781 12.7415C130.885 6.21794 136.003 9.869 137.439 12.7339C128.617 8.96946 116.447 14.2911 109.092 18.4184Z" fill="#000072"/>
</g>
<path d="M119.977 42.6529C119.97 42.6529 119.962 42.6529 119.955 42.6529C119.554 42.6453 119.183 42.4336 118.964 42.0935C109.115 26.3478 94.4954 24.3144 94.3517 24.2917C93.8755 24.2313 93.4824 23.8911 93.3539 23.43C93.2254 22.9689 93.3842 22.4776 93.7546 22.1752C101.404 16.0523 111.904 11.8192 112.342 11.6378C112.358 11.6302 112.365 11.6302 112.38 11.6226C124.301 7.3215 132.442 6.73945 136.577 9.89916C139.397 12.0535 139.185 15.0998 139.177 15.2283C139.162 15.4324 139.087 15.6365 138.973 15.8028L120.96 42.1237C120.733 42.4563 120.37 42.6529 119.977 42.6529ZM97.2998 22.4851C102.032 23.755 112.123 27.7085 120 39.3117L136.796 14.7748C136.758 14.1927 136.501 12.817 135.088 11.7663C133.138 10.3074 127.703 8.64435 113.212 13.8601C112.766 14.0416 104.269 17.5188 97.2998 22.4851Z" fill="#000072"/>
<path d="M130.537 57.4991C129.517 59.1319 128.39 60.7873 127.151 62.4579L115.593 35.4945C115.593 35.4945 120.71 19.3709 133.621 13.4974C135.473 12.6508 137.65 13.7015 138.187 15.6594C138.414 16.4757 138.648 17.4282 138.86 18.5091C138.86 18.5167 138.86 18.5167 138.86 18.5167C140.417 26.3631 140.961 40.8312 130.537 57.4991Z" fill="#FFF1E1"/>
<g opacity="0.3">
<path opacity="0.3" d="M138.852 18.5091C138.746 18.3428 135.912 14.0568 131.112 18.6074C128.648 20.9432 127.34 22.2963 126.644 23.0597C126.334 23.4075 126.607 23.9517 127.068 23.9215L129.146 23.7779C130.242 23.7023 131.195 24.5111 131.301 25.5996C131.497 27.6784 131.376 31.3143 129.35 35.9329C128.942 36.8551 128.882 37.8983 129.23 38.8432C129.857 40.5591 130.462 43.7869 128.383 47.574C127.96 48.345 127.816 49.237 127.975 50.1063C128.285 51.8222 129.003 54.7627 130.53 57.4991C129.509 59.1319 128.383 60.7873 127.143 62.4579L115.585 35.4945C115.585 35.4945 120.703 19.3709 133.614 13.4974C135.466 12.6508 137.643 13.7015 138.18 15.6594C138.414 16.4833 138.641 17.4357 138.852 18.5091Z" fill="#000072"/>
</g>
<path d="M127.151 63.6523C127.105 63.6523 127.06 63.6523 127.015 63.6447C126.591 63.5918 126.229 63.3197 126.055 62.9266L114.497 35.9632C114.383 35.6986 114.368 35.4038 114.459 35.1317C114.678 34.4514 119.887 18.4336 133.13 12.4165C134.324 11.8722 135.693 11.8874 136.887 12.4467C138.096 13.0137 138.988 14.0719 139.344 15.3494C141.324 22.5155 144.189 41.5343 128.111 63.176C127.877 63.4708 127.521 63.6523 127.151 63.6523ZM116.863 35.4492L127.415 60.0541C141.491 39.9695 138.875 22.6289 137.038 15.9844C136.872 15.3797 136.449 14.8732 135.874 14.6086C135.307 14.3441 134.68 14.3365 134.113 14.5935C122.963 19.6506 117.762 32.9471 116.863 35.4492Z" fill="#000072"/>
<path d="M119.04 27.9277L127.249 27.3456C127.249 27.3456 127.771 33.4307 124.422 36.5602C124.422 36.5602 130.205 45.6538 121.368 48.9799L115.585 35.5019C115.585 35.4944 117.256 30.8304 119.04 27.9277Z" fill="#FA9B27"/>
<path d="M121.368 50.1668C120.907 50.1668 120.469 49.8946 120.272 49.4411L114.489 35.9632C114.368 35.6835 114.361 35.3736 114.459 35.0939C114.527 34.8973 116.19 30.2787 118.019 27.308C118.224 26.9829 118.564 26.7713 118.949 26.741L127.158 26.159C127.808 26.1136 128.375 26.5974 128.428 27.2475C128.451 27.5045 128.897 33.1663 125.881 36.7418C126.69 38.3065 128.171 41.8517 127.075 45.1324C126.319 47.385 124.543 49.0556 121.784 50.0912C121.648 50.1441 121.504 50.1668 121.368 50.1668ZM116.87 35.4643L121.988 47.4001C123.447 46.6518 124.392 45.6389 124.815 44.384C125.888 41.179 123.439 37.2331 123.409 37.1953C123.107 36.7115 123.182 36.0766 123.606 35.6835C125.662 33.7635 126.032 30.3997 126.077 28.6233L119.743 29.0768C118.473 31.3067 117.286 34.3455 116.87 35.4643Z" fill="#000072"/>
<path d="M81.9246 24.8814C81.9246 24.8814 70.6313 23.105 58.2192 31.0194C57.3574 31.5636 56.4957 32.1608 55.6264 32.8109C54.5454 33.6197 53.4494 34.5041 52.3684 35.4868L42.3299 5.21252C42.3299 5.21252 42.3375 5.17473 42.3526 5.1067C42.4357 4.80433 42.7305 3.91991 43.5167 3.06573C45.6937 0.707284 51.6201 -1.38659 67.2145 9.8765C67.2145 9.86895 76.3006 16.9367 81.9246 24.8814Z" fill="#FA9B27"/>
<g opacity="0.3">
<path opacity="0.3" d="M81.9246 24.8814C81.9246 24.8814 70.6313 23.105 58.2192 31.0194C57.3574 31.5636 56.4957 32.1608 55.6264 32.8109C55.2862 32.1155 55.1502 31.352 55.256 30.5054C55.9666 24.8889 61.772 21.4117 65.7707 19.658C67.5698 18.8719 68.0082 16.5437 66.6249 15.1603C49.7605 -1.74943 42.3299 5.21252 42.3299 5.21252C42.3299 5.21252 42.3375 5.17473 42.3526 5.1067C42.4357 4.80433 42.7305 3.91991 43.5167 3.06573C45.6937 0.707284 51.6201 -1.38659 67.2145 9.8765C67.2145 9.86895 76.3006 16.9367 81.9246 24.8814Z" fill="#000072"/>
</g>
<path d="M52.3684 36.6736C52.2625 36.6736 52.1643 36.6585 52.066 36.6358C51.6805 36.53 51.3706 36.2427 51.2421 35.8572L41.196 5.59046C41.128 5.39393 41.1204 5.18227 41.1582 4.97817C41.1809 4.84967 41.8234 1.86381 45.1267 0.571204C49.9721 -1.31858 57.6295 1.48586 67.9024 8.90892C67.9099 8.91648 67.9251 8.92404 67.9326 8.9316C68.3106 9.2264 77.2303 16.1959 82.8921 24.1859C83.1718 24.579 83.1869 25.093 82.9299 25.5012C82.6805 25.9094 82.2042 26.1286 81.728 26.053C81.5844 26.0303 66.9726 23.9516 53.1545 36.3637C52.9429 36.5678 52.6556 36.6736 52.3684 36.6736ZM43.5771 5.18983L52.9353 33.408C63.7071 24.4278 74.5015 23.4224 79.3998 23.5056C74.0782 16.8082 66.8743 11.1237 66.4964 10.8289C53.9558 1.76555 48.2713 1.90161 45.996 2.79359C44.3935 3.42099 43.7812 4.65313 43.5771 5.18983Z" fill="#000072"/>
<path d="M37.7869 47.9821C38.316 49.8341 38.9434 51.7314 39.6766 53.6817L58.2343 30.9589C58.2343 30.9589 57.7732 14.0492 46.9863 4.84216C45.4367 3.51931 43.0556 3.9275 41.9973 5.65854C41.5513 6.38422 41.0675 7.2384 40.5686 8.21353C40.5611 8.21353 40.5611 8.21353 40.5611 8.21353C36.8949 15.3342 32.367 29.0843 37.7869 47.9821Z" fill="#FFF1E1"/>
<g opacity="0.3">
<path opacity="0.3" d="M40.5611 8.21355C40.7047 8.08504 44.6203 4.74391 47.969 10.4435C49.6925 13.3689 50.5769 15.0319 51.0305 15.9617C51.2346 16.3774 50.8264 16.831 50.3879 16.6722L48.4301 15.9541C47.3945 15.5761 46.2606 16.0902 45.86 17.1106C45.0965 19.0609 44.2046 22.5834 44.8849 27.58C45.0209 28.5778 44.7866 29.5983 44.197 30.4071C43.1161 31.8887 41.4757 33.9221 42.4282 38.1326C42.6247 38.9868 41.763 40.2869 41.3699 41.0731C40.5913 42.6378 39.654 45.3062 37.7869 47.9746C38.316 49.8265 38.9434 51.7239 39.6766 53.6741L58.2343 30.9514C58.2343 30.9514 57.7732 14.0416 46.9863 4.83462C45.4367 3.51177 43.0556 3.91996 41.9973 5.651C41.5513 6.38424 41.0675 7.23842 40.5611 8.21355Z" fill="#000072"/>
</g>
<path d="M39.669 54.876C39.6086 54.876 39.5405 54.8684 39.4725 54.8608C39.0492 54.7928 38.7015 54.5056 38.5503 54.1049C29.0787 28.865 37.0914 11.3883 40.9692 5.03864C41.6646 3.90477 42.8136 3.13374 44.1365 2.92964C45.4367 2.72554 46.7595 3.08838 47.7573 3.94256C58.8239 13.3839 59.4059 30.2181 59.4286 30.9286C59.4362 31.2159 59.3379 31.4956 59.1565 31.7148L40.5913 54.4375C40.3645 54.7172 40.0243 54.876 39.669 54.876ZM44.8622 5.25785C44.7488 5.25785 44.6278 5.26541 44.5144 5.28809C43.887 5.38636 43.3428 5.74919 43.0102 6.29345C39.412 12.1745 32.1024 28.1166 40.0772 51.308L57.0172 30.5734C56.8509 27.9201 55.5205 13.709 46.2077 5.76431C45.8297 5.42415 45.3535 5.25785 44.8622 5.25785Z" fill="#000072"/>
<path d="M57.0097 22.7347L49.2842 19.9076C49.2842 19.9076 47.0997 25.6147 49.4505 29.5379C49.4505 29.5379 41.3774 36.6813 48.9516 42.3128L58.2343 30.9515C58.2343 30.959 57.9243 26.0154 57.0097 22.7347Z" fill="#FA9B27"/>
<path d="M48.9516 43.5147C48.7022 43.5147 48.4527 43.4391 48.2411 43.2803C45.8751 41.5191 44.6203 39.4252 44.522 37.0516C44.3784 33.5971 46.7746 30.5961 47.9841 29.3111C46.0792 25.0402 48.0748 19.7185 48.1655 19.4842C48.3998 18.8795 49.0801 18.5696 49.6924 18.7888L57.4179 21.6159C57.7807 21.7444 58.0528 22.0468 58.1587 22.4171C59.096 25.781 59.4135 30.6793 59.421 30.8834C59.4437 31.1857 59.3454 31.4805 59.1565 31.7149L49.8738 43.0762C49.6395 43.3635 49.2994 43.5147 48.9516 43.5147ZM50.0477 21.4647C49.5942 23.1806 49.0197 26.5218 50.471 28.9331C50.7658 29.4245 50.6676 30.0594 50.2367 30.4374C50.2064 30.4676 46.7519 33.582 46.9031 36.9534C46.9636 38.2762 47.591 39.5083 48.7853 40.6346L57.0021 30.5734C56.9114 29.3867 56.609 26.1438 56.0043 23.6417L50.0477 21.4647Z" fill="#000072"/>
<path d="M126.667 80.7585C126.667 80.7585 127.914 82.9506 130.243 84.8706C131.482 85.8911 131.52 87.7733 130.303 88.8165C125.964 92.5431 116.545 99.4975 107.074 99.1045C106.991 99.1045 106.908 99.0969 106.824 99.0969C106.824 99.0969 70.6539 116.4 45.346 89.0206C45.346 89.0206 36.6454 86.3295 32.2158 75.6183C31.921 74.9001 32.0344 74.1216 32.4501 73.5244C32.6844 73.1767 33.017 72.897 33.4328 72.7307C34.1509 72.4359 35.0731 72.1637 36.1616 72.0655C36.1616 72.0655 33.909 70.41 32.5181 66.0938C32.1855 65.0657 32.6618 63.9394 33.6293 63.4481C34.7027 62.9114 36.0709 62.0345 36.9931 60.7192C37.4013 60.1372 37.7264 59.4644 37.9002 58.6934C38.0212 58.1491 38.2555 57.0152 38.6637 55.4581C38.8225 54.876 38.9963 54.2259 39.208 53.5305C39.5935 52.253 40.0773 50.8016 40.6896 49.2369C44.0685 40.559 51.1816 28.4266 65.9219 22.6741C66.2923 22.5305 66.6627 22.3869 67.0407 22.2584C70.8429 20.8902 74.7812 20.0662 78.7422 19.7714C79.0521 19.7488 79.362 19.7261 79.672 19.711C84.4645 19.4539 89.2796 19.968 93.9209 21.2455C94.4803 21.3966 95.0321 21.5629 95.5839 21.7368C98.018 22.5078 100.399 23.4905 102.69 24.6849C103.385 25.0477 104.088 25.4332 104.791 25.849C107.263 27.3003 109.772 29.0616 112.184 31.2311C118.465 36.8626 124.089 45.1625 126.743 57.3932C127.045 58.7916 127.31 60.243 127.536 61.7473C127.536 61.7473 127.514 62.0799 127.536 62.6468C127.551 63.0474 127.582 63.569 127.65 64.1662C127.899 66.2223 128.625 69.2157 130.673 71.6044C131.097 72.1033 131.573 72.5644 132.117 72.9952C133.123 73.7889 133.41 75.2101 132.745 76.3137C131.596 78.211 129.555 80.6904 126.667 80.7585Z" fill="#FA9B27"/>
<path d="M109.047 97.381L106.817 99.0666C106.734 99.0666 106.65 99.0591 106.567 99.0591C106.567 99.0591 70.3969 116.362 45.0889 88.9828C45.0889 88.9828 49.8587 76.5405 61.4696 74.7867C62.3162 74.6582 63.5559 74.1064 64.2589 73.6226C66.4435 72.1108 72.3623 70.9543 82.2647 76.4951C83.0433 76.9335 83.905 77.2132 84.797 77.2964C89.65 77.7499 104.662 80.5317 109.047 97.381Z" fill="white"/>
<path d="M62.9739 54.3771C62.679 55.7755 60.7666 55.9494 60.1845 54.6492C59.7159 53.6061 59.028 52.5327 58.0226 51.6558C55.4223 49.3956 64.4252 47.4151 62.9739 54.3771Z" fill="white"/>
<path d="M89.461 58.1189C89.2418 59.2905 90.6629 60.0238 91.5247 59.1923C92.7266 58.0357 94.4425 56.9321 96.8312 56.4634C102.198 55.4278 91.6078 46.8558 89.461 58.1189Z" fill="white"/>
<g opacity="0.3">
<path opacity="0.3" d="M68.2653 74.885C68.2653 74.885 65.8992 78.8158 58.6652 79.1181C58.6652 79.1181 59.6932 91.6134 70.5783 91.8553C81.4635 92.0972 84.5476 82.1116 84.5476 82.1116C84.5476 82.1116 74.6981 80.509 74.2294 75.5049C73.7607 70.5007 68.2653 74.885 68.2653 74.885Z" fill="#000072"/>
</g>
<path d="M93.9209 21.2302C93.8227 21.3134 93.7244 21.3965 93.6186 21.4948C93.4523 21.6686 93.2708 21.8349 93.0894 21.9861C92.3638 22.7118 91.502 23.4526 90.6478 24.3899C90.4286 24.6167 90.2094 24.8435 89.9751 25.0778C89.8541 25.1836 89.7483 25.3121 89.6425 25.4406L89.325 25.8337C88.9017 26.3629 88.433 26.8542 88.0475 27.4589C87.6393 28.041 87.2235 28.623 86.8154 29.2278L85.6739 31.1402L85.3791 31.624C85.2733 31.7828 85.1826 31.9491 85.0994 32.1229L84.5779 33.1434L83.5045 35.2222C83.1945 35.9403 82.8695 36.666 82.5444 37.3916L82.0455 38.4877L81.7961 39.0395L81.5769 39.5989L80.6849 41.8742L80.2162 43.0232L79.9819 43.6052L79.7778 44.1873C79.5813 44.7467 79.3847 45.2985 79.1882 45.8578C78.8556 46.7725 77.5252 46.6742 77.3286 45.7218C77.2077 45.1246 77.0943 44.5274 76.9885 43.9227C76.7012 42.237 76.5425 40.5287 76.3686 38.8127L76.3082 38.1627L76.2855 37.5126L76.2553 36.2124C76.2326 35.3431 76.2175 34.4662 76.2099 33.5894C76.2477 32.7125 76.3006 31.8205 76.3611 30.9361C76.4291 30.0517 76.4669 29.1446 76.6332 28.2526L77.0641 25.5389C77.2682 24.6318 77.5101 23.7247 77.7368 22.8101L77.9107 22.1222C77.9712 21.8954 78.0619 21.6686 78.1375 21.4343L78.5079 20.4063L78.6288 20.0585L78.7346 19.7637C79.0446 19.7411 79.3545 19.7184 79.6644 19.7033C84.4645 19.4463 89.2796 19.9603 93.9209 21.2302Z" fill="#F96328"/>
<path d="M78.5154 20.3987C78.3567 20.4592 78.1979 20.5196 78.0392 20.565C78.1148 20.5574 78.1828 20.5423 78.2584 20.5196L78.2811 20.5423C78.2962 20.5574 78.3113 20.5574 78.3189 20.5725C78.2962 20.6179 78.2735 20.6633 78.2433 20.6935L78.1828 20.7615L78.1148 20.8371C78.0921 20.8598 78.0694 20.8825 78.0468 20.9051C78.0241 20.9203 77.9938 20.9505 77.9712 20.9807C77.8653 21.1017 77.752 21.1924 77.6234 21.3058C77.5025 21.4343 77.3664 21.5552 77.2304 21.6611C76.7012 22.1902 76.0738 22.7345 75.454 23.4148C75.2952 23.5811 75.1289 23.7474 74.9626 23.9137C74.8719 23.9893 74.7963 24.0875 74.7207 24.1858L74.4864 24.4655C74.1765 24.851 73.8363 25.2138 73.5491 25.6523C73.2543 26.0756 72.9443 26.4989 72.6495 26.9449L71.8105 28.3282L71.5988 28.6835C71.5232 28.7969 71.4552 28.9178 71.3947 29.0463L71.0092 29.7947L70.2306 31.3065C70.0038 31.8356 69.7695 32.3572 69.5276 32.8939L69.1648 33.6952L68.9758 34.1034L68.8171 34.5116L68.167 36.167L67.8268 37.0061L67.653 37.4218L67.5018 37.8527C67.3582 38.2609 67.2145 38.6615 67.0709 39.0697C66.829 39.7349 65.8539 39.6669 65.7178 38.9715C65.6347 38.533 65.5515 38.0946 65.4684 37.6562C65.2643 36.4316 65.1509 35.1843 65.0224 33.922L64.977 33.4533L64.9619 32.9771L64.9392 32.0322C64.9241 31.3972 64.9166 30.7547 64.909 30.1122C64.9392 29.4696 64.977 28.8271 65.0224 28.177C65.0677 27.5269 65.098 26.8769 65.2189 26.2192L65.5288 24.2387C65.6422 23.7171 65.7783 23.1956 65.9144 22.6664C66.2848 22.5228 66.6552 22.3792 67.0331 22.2507C70.8354 20.8825 74.7737 20.0585 78.7346 19.7637C79.0446 19.741 79.3545 19.7184 79.6644 19.7032C79.3318 19.9829 78.9387 20.2173 78.5154 20.3987Z" fill="#F96328"/>
<path d="M104.783 25.8262C104.353 26.1059 103.891 26.4082 103.43 26.7635C103.241 26.8996 103.052 27.0356 102.856 27.1641C102.758 27.2246 102.667 27.3078 102.569 27.3833L102.289 27.6177C101.919 27.9427 101.51 28.23 101.155 28.6155C100.792 28.9783 100.407 29.3412 100.036 29.7191L98.9629 30.9437L98.6908 31.2536C98.6001 31.3519 98.5094 31.4577 98.4262 31.5711L97.9197 32.2363L96.8766 33.5818C96.5591 34.0581 96.2265 34.5343 95.8939 35.0105L95.395 35.7362L95.138 36.099L94.9037 36.477L93.9588 37.9964L93.4674 38.7523L93.218 39.1378L92.9988 39.5309C92.7871 39.9088 92.5679 40.2792 92.3487 40.6572C91.9934 41.2695 91.0485 41.02 91.0334 40.317C91.0258 39.871 91.0258 39.425 91.0258 38.979C91.0409 37.7318 91.1543 36.4921 91.2602 35.2297L91.298 34.7611L91.366 34.2924L91.5172 33.3551C91.6154 32.7276 91.7213 32.1002 91.8346 31.4653C91.9783 30.8379 92.137 30.2105 92.2958 29.583C92.4621 28.9556 92.6057 28.3131 92.8476 27.6933L93.5128 25.8035C93.7773 25.1836 94.0722 24.5638 94.3594 23.9288L94.5786 23.4602C94.6542 23.3014 94.7525 23.1502 94.8356 22.999L95.3648 22.0768L95.5689 21.7216C98.0029 22.4926 100.384 23.4753 102.674 24.6696C103.377 25.0249 104.08 25.4104 104.783 25.8262Z" fill="#F96328"/>
<path d="M130.658 71.5816L129.487 70.9995C128.859 70.6971 128.232 70.3948 127.589 70.0924C126.312 69.4952 124.989 68.9359 123.643 68.4219C122.971 68.1422 122.283 67.9381 121.587 67.6735C120.892 67.4618 120.189 67.1973 119.471 66.9856C118.027 66.4943 116.545 66.139 114.943 65.6099C115.306 65.4133 115.676 65.2395 116.062 65.0656C116.447 64.9069 116.833 64.733 117.226 64.6196C117.619 64.4987 118.012 64.3777 118.42 64.2643C118.828 64.1661 119.229 64.098 119.637 64.0149L120.249 63.9091C120.453 63.8788 120.658 63.8637 120.869 63.841C121.277 63.8032 121.693 63.773 122.109 63.7352C122.933 63.7276 123.772 63.7125 124.603 63.773C125.624 63.8335 126.637 63.9544 127.642 64.1358C127.884 66.1995 128.61 69.1853 130.658 71.5816Z" fill="#F96328"/>
<path d="M127.521 62.6164C127.03 62.4123 126.539 62.2158 126.032 62.0268C125.359 61.7471 124.671 61.543 123.976 61.2784C123.281 61.0668 122.578 60.7947 121.859 60.5906C120.416 60.0992 118.934 59.7439 117.332 59.2148C117.694 59.0183 118.072 58.8444 118.45 58.6705C118.828 58.5118 119.214 58.3379 119.607 58.2246C120 58.1036 120.401 57.9827 120.801 57.8768C121.202 57.771 121.61 57.703 122.018 57.6274L122.638 57.5216C122.842 57.4913 123.054 57.4762 123.258 57.4535C123.666 57.4157 124.089 57.3855 124.505 57.3553C125.238 57.3477 125.987 57.3326 126.735 57.3779C127.037 58.7764 127.302 60.2277 127.529 61.732C127.521 61.7244 127.499 62.057 127.521 62.6164Z" fill="#F96328"/>
<path d="M48.6342 59.812C46.9485 59.9254 45.4292 59.9027 43.9098 60.0237C43.1614 60.0463 42.4131 60.1295 41.6874 60.1597C40.9541 60.2429 40.2285 60.2731 39.5104 60.3714C38.6637 60.4696 37.8247 60.583 36.9932 60.7115C37.4014 60.1295 37.7264 59.4567 37.9003 58.6857C38.0212 58.1414 38.2555 57.0076 38.6637 55.4504C39.019 55.5033 39.3818 55.5638 39.7296 55.6318C40.546 55.7754 41.3548 56.0022 42.156 56.2139C42.5491 56.3499 42.9422 56.4784 43.3353 56.622C43.5318 56.6976 43.7283 56.7581 43.9173 56.8413L44.4843 57.0983C44.8622 57.2721 45.2326 57.4384 45.603 57.6425C45.9658 57.8466 46.3211 58.0583 46.6764 58.2775C47.0317 58.4816 47.3643 58.7462 47.6893 58.9956C48.0144 59.2602 48.3319 59.5247 48.6342 59.812Z" fill="#F96328"/>
<path d="M47.9086 53.0239C46.2229 53.1373 44.6959 53.1146 43.1766 53.2356C42.4282 53.2582 41.6799 53.3414 40.9542 53.3716C40.3646 53.4321 39.7901 53.4699 39.2156 53.5304C39.6011 52.2529 40.0849 50.8015 40.6972 49.2368C40.9391 49.2973 41.1885 49.3653 41.4304 49.4333C41.8235 49.5694 42.2241 49.6979 42.6096 49.8415C42.7986 49.9171 42.9951 49.9776 43.1917 50.0607L43.7586 50.3177C44.1366 50.4992 44.507 50.6579 44.8774 50.862C45.2402 51.0661 45.5955 51.2853 45.9432 51.497C46.2985 51.7011 46.6311 51.9656 46.9561 52.2151C47.2812 52.4796 47.5986 52.7367 47.9086 53.0239Z" fill="#F96328"/>
<g opacity="0.3">
<path opacity="0.3" d="M127.181 80.7206C126.947 80.7509 126.818 81.0079 126.947 81.2044C127.438 81.9452 128.557 83.4797 130.243 84.8706C131.482 85.8911 131.52 87.7733 130.303 88.8165C125.964 92.5431 116.545 99.4975 107.074 99.1044C106.991 99.1044 106.907 99.0969 106.824 99.0969C106.824 99.0969 70.7068 116.377 45.4064 89.081C45.3686 89.0432 45.3308 89.013 45.2779 88.9979C44.4313 88.7106 36.4111 85.755 32.2233 75.6182C32.0117 75.1118 32.0117 74.5675 32.1704 74.0837C32.2536 73.8343 32.6088 73.8041 32.7449 74.0384C33.977 76.1247 36.3128 79.2164 40.2284 81.5068C40.4401 81.6353 40.7122 81.4841 40.7122 81.2347C40.7047 80.7055 40.75 79.8287 41.0297 78.7099C41.0977 78.4378 41.453 78.3773 41.6042 78.6117C43.7056 81.8318 54.6437 96.8367 76.739 97.9025C101.503 99.1044 137.386 65.0657 114.096 33.9599C114.089 33.9523 114.081 33.9372 114.074 33.9297C113.832 33.6122 114.285 33.2342 114.565 33.529C119.856 39.0547 124.422 46.7273 126.735 57.3856C127.037 58.7765 127.302 60.2127 127.521 61.7094C127.521 61.7321 127.529 61.7472 127.521 61.7699C127.514 61.8606 127.506 62.1706 127.521 62.6392C127.536 63.0399 127.567 63.5614 127.635 64.1586C127.884 66.2147 128.61 69.2081 130.658 71.5968C131.082 72.0957 131.558 72.5568 132.102 72.9877C133.107 73.7814 133.395 75.2025 132.729 76.3061C131.664 78.0976 129.797 80.3956 127.181 80.7206Z" fill="#000072"/>
</g>
<g opacity="0.5">
<path opacity="0.5" d="M104.783 25.8263C104.08 25.4105 103.385 25.025 102.682 24.6622C100.392 23.4678 98.0104 22.4851 95.5764 21.7141C95.0246 21.5403 94.4727 21.374 93.9134 21.2228C89.2721 19.9528 84.4569 19.4388 79.6644 19.6883C79.3545 19.7034 79.0446 19.7261 78.7346 19.7487C74.7661 20.0435 70.8278 20.8751 67.0331 22.2357C66.6551 22.3718 66.2848 22.5078 65.9144 22.6514C51.1741 28.4039 44.0609 40.5439 40.6895 49.2142C40.0773 50.779 39.5935 52.2303 39.208 53.5078C38.9963 54.2032 38.8149 54.8458 38.6637 55.4354C38.248 56.9926 38.0212 58.1264 37.9002 58.6707C37.7264 59.4342 37.4089 60.1069 36.9931 60.6965C36.0709 62.0118 34.7027 62.8887 33.6293 63.4254C32.6618 63.9092 32.178 65.0355 32.5181 66.0711C33.9166 70.3873 36.1616 72.0428 36.1616 72.0428C36.1616 72.0428 36.6681 72.2771 35.2697 67.9608C34.9371 66.9328 34.7632 66.2752 35.7383 65.7914C36.8117 65.2547 38.1799 64.3778 39.1021 63.0625C39.5103 62.4805 39.8354 61.8077 40.0092 61.0367C40.1302 60.4924 40.3645 59.3586 40.7727 57.8014C40.9314 57.2193 41.1053 56.5692 41.317 55.8738C41.7025 54.5963 42.1863 53.145 42.7985 51.5802C43.7586 49.1159 45.0134 46.372 46.6688 43.5751C47.1753 42.7209 48.0824 42.222 49.0802 42.1691C51.0304 42.0557 54.1221 40.2189 56.9568 37.3086C59.6252 34.5722 61.3411 31.6317 61.5754 29.6814C61.6964 28.6761 62.2557 27.7841 63.1402 27.2927C64.6671 26.4537 66.2923 25.6902 68.0234 25.0175C68.3937 24.8738 68.7641 24.7302 69.1421 24.6017C72.9443 23.2335 76.8826 22.4096 80.8436 22.1147C81.1536 22.0921 81.4635 22.0694 81.7734 22.0543C86.5659 21.7973 91.3811 22.3113 96.0224 23.5888C96.5817 23.74 97.1336 23.9063 97.6854 24.0801C100.119 24.8512 102.501 25.8338 104.791 27.0282C105.486 27.391 106.189 27.7765 106.892 28.1923C110.173 30.1123 113.514 32.5993 116.613 35.827C112.955 31.4276 108.828 28.1923 104.783 25.8263Z" fill="white"/>
</g>
<path d="M81.2896 105.673C70.3743 105.673 56.3974 102.589 44.6808 90.0486C42.9951 89.4363 35.2772 86.1405 31.1197 76.0717C30.4016 74.3407 31.2406 72.3451 32.9792 71.627C33.2589 71.5136 33.5462 71.4078 33.841 71.3171C33.0397 70.2588 32.1024 68.6789 31.3843 66.4565C30.8703 64.8767 31.611 63.123 33.1002 62.3822C34.5138 61.6792 36.2977 60.4244 36.7361 58.4363L36.8042 58.1264C37.3031 55.8284 38.83 48.8287 43.1992 41.2091C48.7778 31.4653 56.662 24.715 66.6325 21.132C78.5986 16.8309 91.9404 17.738 103.241 23.6114C113.053 28.7138 125.435 39.4402 128.708 61.5507C128.723 61.6338 128.723 61.717 128.716 61.8001C128.716 61.8681 128.383 68.5202 132.85 72.0427C134.332 73.2144 134.725 75.3007 133.765 76.9108C132.699 78.6948 131.029 80.7584 128.7 81.5824C129.252 82.2778 130.031 83.1471 131.006 83.9484C131.875 84.6665 132.382 85.7248 132.389 86.8435C132.397 87.9471 131.921 88.9979 131.082 89.716C126.266 93.8508 116.787 100.677 107.059 100.299C105.411 101.047 96.9068 104.683 85.6588 105.515C84.2755 105.613 82.8166 105.673 81.2896 105.673ZM82.0682 20.8297C77.1245 20.8297 72.1658 21.6687 67.4413 23.3695C47.9841 30.3617 41.3548 48.4583 39.1399 58.6253L39.0719 58.9503C38.4218 61.8455 36.0483 63.569 34.1736 64.5063C33.7276 64.7255 33.5084 65.2471 33.6596 65.7157C34.9068 69.5558 36.8571 71.0827 36.8798 71.0903C37.2804 71.3851 37.4543 71.8916 37.3182 72.3678C37.1821 72.844 36.7739 73.1917 36.275 73.2371C35.4435 73.3127 34.6423 73.5092 33.8939 73.8191C33.3723 74.0383 33.1153 74.6355 33.327 75.1495C37.4694 85.1729 45.6257 87.8489 45.7088 87.8715C45.9054 87.932 46.0868 88.0454 46.2304 88.2041C56.4503 99.2556 69.6335 104.282 85.4169 103.133C97.2772 102.272 106.235 98.0537 106.318 98.0159C106.499 97.9327 106.696 97.8874 106.9 97.9025C115.895 98.3938 124.944 91.8552 129.54 87.9093C129.849 87.6448 130.016 87.2744 130.016 86.8662C130.008 86.4504 129.819 86.0574 129.494 85.7928C127.03 83.7594 125.699 81.4463 125.647 81.348C125.442 80.9852 125.435 80.5392 125.647 80.1688C125.851 79.806 126.236 79.5716 126.66 79.5641C128.965 79.5111 130.696 77.4248 131.732 75.6862C132.079 75.1042 131.928 74.3483 131.384 73.9174C126.251 69.8733 126.304 62.8811 126.342 61.7926C123.19 40.7555 111.451 30.5734 102.153 25.7355C95.8939 22.4775 88.9848 20.8297 82.0682 20.8297Z" fill="#000072"/>
<path d="M44.3784 89.7009C44.1214 89.2701 43.9173 88.8392 43.7207 88.3932C43.5242 87.9472 43.3579 87.4861 43.1991 87.025C43.048 86.5563 42.9119 86.0801 42.8212 85.5888C42.7305 85.0974 42.6549 84.5985 42.7078 84.0996C42.7834 84.2054 42.8514 84.3037 42.9119 84.402L43.1311 84.6892C43.2747 84.8782 43.4184 85.0596 43.5771 85.2335C43.887 85.5888 44.1894 85.9365 44.4993 86.2766L45.4291 87.3047C45.739 87.6448 46.0414 88.0001 46.3211 88.3252L44.3784 89.7009Z" fill="#000072"/>
<path d="M106.189 98.084L108.79 96.4588C109.659 95.907 110.528 95.3551 111.39 94.7882C112.252 94.2213 113.106 93.6392 113.953 93.0496C114.807 92.4676 115.661 91.8779 116.621 91.3639C116.107 92.3239 115.442 93.163 114.724 93.9416C113.99 94.7051 113.242 95.4534 112.456 96.1564C111.67 96.867 110.868 97.5549 110.037 98.2125C109.621 98.5451 109.205 98.8626 108.775 99.1725C108.344 99.49 107.928 99.7923 107.467 100.095L106.189 98.084Z" fill="#000072"/>
<path d="M125.768 81.537C125.586 81.3103 125.435 81.0533 125.299 80.7887C125.163 80.5241 125.034 80.252 124.913 79.9723C124.687 79.4129 124.475 78.8158 124.467 78.0901C124.808 78.1959 125.11 78.3169 125.39 78.4529C125.669 78.589 125.934 78.7402 126.183 78.9065C126.44 79.0652 126.682 79.2315 126.917 79.4129C127.151 79.5944 127.378 79.7758 127.567 79.9799L125.768 81.537Z" fill="#000072"/>
<path d="M79.9063 83.2378C79.9063 83.2378 79.7097 84.1071 79.1882 85.2788C78.0921 87.7506 75.522 91.5604 70.2608 91.1674C68.1896 91.0162 66.6173 90.1469 65.4305 88.9752C62.3842 85.9818 61.8324 81.0079 61.8324 81.0079C68.817 81.726 70.9336 76.0642 70.9336 76.0642C72.7251 83.9786 79.9063 83.2378 79.9063 83.2378Z" fill="#000072"/>
<path d="M79.1957 85.2788C78.7271 86.3295 78.0014 87.6222 76.9053 88.7258C75.4313 90.2301 73.292 91.3942 70.2684 91.1674C68.1972 91.0162 66.6249 90.1469 65.4381 88.9752C65.4381 88.9752 66.2621 86.9947 68.3408 85.5283C70.4725 84.0089 73.9421 83.0262 79.1957 85.2788Z" fill="#FF4A8B"/>
<path d="M71.0016 91.946C70.7446 91.946 70.48 91.9384 70.2155 91.9157C62.3237 91.3412 61.1067 81.1969 61.0916 81.0911L60.9858 80.1689L61.908 80.2671C62.2935 80.3049 62.6563 80.3276 63.0116 80.3276C68.4693 80.3276 70.2079 75.8602 70.2306 75.8072L71.115 73.4488L71.6668 75.9055C73.2845 83.0867 79.5586 82.5197 79.8231 82.4971L80.8587 82.3912L80.6319 83.4117C80.6244 83.4873 78.6363 91.946 71.0016 91.946ZM62.7395 81.8167C63.2082 84.1072 64.9468 90.026 70.3289 90.419C75.9453 90.8348 78.2055 86.0423 78.916 83.9787C76.9053 83.8501 72.6193 82.9733 70.7295 77.9465C69.5352 79.6095 67.0936 81.9301 62.7395 81.8167Z" fill="#000072"/>
<path d="M99.817 64.4232C99.0082 64.6273 98.2296 64.718 97.4586 64.8087C97.0731 64.8843 96.6951 64.9372 96.3172 64.9901C95.9392 65.0355 95.5613 65.0733 95.1909 65.1564L94.0797 65.3605C93.8907 65.3832 93.7093 65.4437 93.5354 65.4966L92.9987 65.6478C92.273 65.8216 91.5927 66.124 90.8973 66.3734C90.2321 66.6985 89.5669 67.0009 88.9546 67.4015C88.6295 67.5753 88.3423 67.7946 88.0475 68.0062C87.9039 68.112 87.7451 68.2103 87.6015 68.3237L87.1857 68.6714C87.0497 68.7924 86.8985 68.8982 86.77 69.0191L86.3769 69.3971C86.1048 69.639 85.878 69.9187 85.6286 70.1757C85.4018 70.4554 85.1599 70.7199 84.9558 71.0072C84.85 71.1508 84.7441 71.2944 84.6534 71.4381C84.6081 71.5061 84.5552 71.5817 84.5098 71.6497L84.3964 71.8311L82.8392 70.3495C82.9375 70.2966 83.0055 70.2664 83.0811 70.2286C83.1567 70.1908 83.2248 70.1606 83.2928 70.1379C83.4364 70.0774 83.5725 70.0245 83.7161 69.9791C83.9958 69.8733 84.2755 69.7977 84.5552 69.7146C85.1221 69.571 85.689 69.4651 86.2635 69.4122C87.4049 69.2913 88.5615 69.3139 89.6727 69.5105C89.9524 69.5483 90.2245 69.6314 90.5042 69.6843L90.9124 69.7826C91.0484 69.8204 91.177 69.8658 91.313 69.9111C91.5776 69.9943 91.8422 70.0774 92.1067 70.1757C92.3637 70.2891 92.6207 70.3949 92.8702 70.5083C93.3842 70.7199 93.8453 71.0374 94.314 71.3096C94.5483 71.4456 94.76 71.627 94.9792 71.8009C95.1909 71.9672 95.4101 72.1335 95.6142 72.3149C95.6671 72.3603 95.6746 72.4359 95.6293 72.4888C95.599 72.5266 95.5461 72.5417 95.5008 72.5266H95.4932C94.9716 72.3754 94.4803 72.1864 93.9814 72.0352L93.233 71.8236L92.8626 71.7102L92.4847 71.627C92.2352 71.5741 91.9858 71.5137 91.7439 71.4532L90.9955 71.3322L90.6251 71.2718L90.2472 71.2415C89.9977 71.2264 89.7483 71.1886 89.4988 71.1962L88.758 71.1886C88.5086 71.1962 88.2667 71.2188 88.0172 71.234C87.5259 71.2718 87.0421 71.3322 86.5659 71.4381C86.0897 71.5288 85.6286 71.6724 85.1674 71.8085C84.9482 71.8916 84.7139 71.9672 84.5022 72.0579C84.3964 72.1033 84.2906 72.1486 84.1848 72.194C84.1318 72.2166 84.0789 72.2393 84.0336 72.262L83.9202 72.3225C83.3759 72.6248 82.6956 72.4359 82.3933 71.8916C82.2043 71.559 82.2043 71.1811 82.3555 70.8636L82.363 70.8484C82.431 70.7124 82.484 70.6217 82.5369 70.5158C82.5898 70.41 82.6503 70.3193 82.7032 70.221C82.8166 70.0321 82.9375 69.8431 83.0585 69.6692C83.3004 69.3064 83.5725 68.9813 83.8522 68.6487C84.4267 68.0138 85.0314 67.4015 85.7042 66.8875C87.0346 65.8292 88.5539 65.0204 90.1338 64.4534C90.9426 64.2267 91.7288 63.9394 92.5603 63.8336L93.1726 63.7278C93.3767 63.69 93.5808 63.6522 93.7849 63.6446L95.017 63.5463C95.2211 63.5388 95.4252 63.5085 95.6293 63.5161L96.2416 63.5463C96.6498 63.5766 97.058 63.5992 97.4586 63.6522C98.2599 63.7882 99.0611 64.0074 99.8246 64.2947C99.8624 64.3098 99.8775 64.3476 99.8624 64.3854C99.8624 64.4005 99.8473 64.4156 99.817 64.4232Z" fill="#000072"/>
<path d="M51.1438 58.4515C51.8392 58.3834 52.5422 58.3986 53.2377 58.4817C53.5778 58.5422 53.918 58.6178 54.2582 58.7009C54.5983 58.7841 54.9385 58.8672 55.256 59.0109L56.2311 59.4115C56.5561 59.54 56.8585 59.729 57.176 59.8877C57.8185 60.1901 58.393 60.6209 58.9902 61.0216C60.1316 61.8909 61.1521 62.9492 61.9609 64.1662C62.3767 64.7633 62.7093 65.421 63.0041 66.0938C63.1401 66.4339 63.2762 66.7816 63.3745 67.1369C63.4349 67.3108 63.4803 67.4922 63.5181 67.6812C63.5408 67.7719 63.5634 67.8626 63.5786 67.9684C63.5937 68.0667 63.6164 68.1574 63.6315 68.2935L63.639 68.3313C63.7222 68.9435 63.2913 69.5029 62.679 69.5861C62.3011 69.639 61.9382 69.4878 61.6963 69.2232L61.6283 69.1552C61.5981 69.125 61.5678 69.0947 61.53 69.0645C61.462 69.004 61.394 68.936 61.3184 68.8755C61.1748 68.747 61.016 68.6261 60.8648 68.5051C60.5398 68.2783 60.2148 68.044 59.8595 67.8475C59.5118 67.6434 59.1489 67.462 58.771 67.2957C58.582 67.2201 58.393 67.1294 58.204 67.0613L57.6144 66.8648C57.4179 66.7967 57.2138 66.759 57.0097 66.6985C56.8056 66.638 56.6015 66.5927 56.3974 66.5624C56.1933 66.5322 55.9816 66.4944 55.77 66.449C55.5583 66.4264 55.3467 66.4112 55.135 66.381L54.81 66.3432L54.4849 66.3281L53.8273 66.2903C53.3889 66.2752 52.9429 66.2827 52.4818 66.2525H52.4666C52.3986 66.2449 52.3457 66.1845 52.3533 66.1164C52.3533 66.0711 52.3835 66.0333 52.4288 66.0106C52.8522 65.8216 53.283 65.6402 53.729 65.5041C54.1826 65.3983 54.6361 65.2471 55.1048 65.2093C55.3391 65.1791 55.5734 65.1564 55.8153 65.1262C56.0497 65.1186 56.2916 65.1111 56.5335 65.1111C56.7753 65.1035 57.0097 65.1186 57.2516 65.1413C57.4935 65.164 57.7354 65.1715 57.9697 65.2093C58.9297 65.3378 59.8821 65.61 60.7817 66.003C61.2352 66.1996 61.6737 66.4339 62.097 66.706C62.3086 66.8497 62.5127 66.9857 62.7168 67.1445C62.8226 67.2201 62.9209 67.3032 63.0192 67.3864C63.0721 67.4317 63.1175 67.4695 63.1704 67.5224C63.2233 67.5753 63.2686 67.6131 63.3367 67.6887L61.4015 68.6109L61.3637 68.4446C61.3486 68.3842 61.3259 68.3161 61.3108 68.2405C61.273 68.1045 61.2277 67.9684 61.1823 67.8248C61.0992 67.5451 60.9707 67.273 60.8648 66.9933C60.7363 66.7212 60.6305 66.4415 60.4718 66.1845C60.3281 65.9199 60.1921 65.6478 60.0258 65.3983C59.3908 64.3703 58.5895 63.4481 57.69 62.609C57.2062 62.231 56.7451 61.8077 56.216 61.4751C55.9514 61.3088 55.7095 61.1047 55.4298 60.9535L54.5983 60.4924C54.3262 60.3261 54.0314 60.1976 53.7441 60.054C53.4569 59.9104 53.1696 59.7592 52.8824 59.5853C52.3003 59.2905 51.7032 58.9957 51.1136 58.58L51.106 58.5724C51.0758 58.5497 51.0682 58.5044 51.0909 58.4742C51.106 58.4666 51.1211 58.459 51.1438 58.4515Z" fill="#000072"/>
<path d="M72.3547 76.5178C72.3698 76.6009 72.4076 76.7748 72.4454 76.9108C72.4832 77.0545 72.5286 77.2056 72.5815 77.3493C72.6798 77.6365 72.7932 77.9238 72.9217 78.2034C73.1787 78.7628 73.4962 79.2768 73.8741 79.738C74.2445 80.1991 74.6754 80.5997 75.1516 80.9247C75.265 81.0079 75.3935 81.0835 75.5144 81.1515L75.7034 81.2573L75.9 81.348C76.157 81.4765 76.4442 81.5446 76.7088 81.6655C77.7746 82.1644 79.0597 82.3534 80.3901 82.3459C80.7227 82.3383 81.0553 82.3232 81.3954 82.3005C81.7281 82.2627 82.0682 82.2325 82.4084 82.1871C82.7485 82.1342 83.0887 82.0888 83.4288 82.0208L84.4569 81.8092H84.4645C84.6308 81.7714 84.7971 81.8847 84.8349 82.051C84.8651 82.1871 84.797 82.3232 84.6761 82.3912C83.4137 83.0715 82.0607 83.646 80.6017 83.9937C79.1428 84.3263 77.5479 84.4548 75.9302 84.0845C74.3579 83.578 72.9368 82.5499 71.9465 81.2649C71.4476 80.6224 71.0394 79.9269 70.722 79.2013C70.5557 78.8384 70.4196 78.468 70.2986 78.0901C70.2382 77.9011 70.1853 77.7121 70.1323 77.5156C70.0794 77.3115 70.0416 77.1452 69.9963 76.8806C69.8905 76.2305 70.3289 75.6182 70.979 75.5124C71.6139 75.4066 72.2187 75.8299 72.3396 76.4573L72.3547 76.5178Z" fill="#000072"/>
<path d="M72.1128 77.7802C71.8936 78.0976 71.7046 78.3395 71.4854 78.5965C71.2662 78.846 71.0545 79.0879 70.8126 79.3147C70.3515 79.7758 69.8451 80.2066 69.3008 80.5921C68.2199 81.3632 66.965 81.983 65.5817 82.2551C64.2135 82.5575 62.7092 82.4215 61.4318 81.8848C60.1618 81.3254 59.1565 80.3503 58.6198 79.1484C58.6046 79.1181 58.6198 79.0879 58.65 79.0728C58.6651 79.0652 58.6802 79.0652 58.6878 79.0728C59.9351 79.481 60.9933 79.8665 62.0214 80.0479C63.0419 80.2444 64.0397 80.1991 65.0072 79.8967C65.9748 79.5943 66.897 79.0879 67.7739 78.4605C68.2123 78.143 68.6356 77.7953 69.0438 77.4324C69.2479 77.251 69.452 77.062 69.6485 76.8731L70.2079 76.3212L70.2835 76.2456C70.7522 75.7845 71.5081 75.7845 71.9692 76.2532C72.3925 76.6841 72.4378 77.319 72.1128 77.7802Z" fill="#000072"/>
<path d="M71.7122 71.3549C71.7122 71.3549 69.0136 71.0903 66.9349 71.5968C66.0353 71.816 65.4986 72.7231 65.7178 73.6226C66.1109 75.2478 67.343 77.6592 71.1453 77.9918C74.9475 78.3169 76.5727 76.1474 77.2379 74.6204C77.6083 73.7738 77.2304 72.7836 76.3838 72.4207C74.4184 71.559 71.7122 71.3549 71.7122 71.3549Z" fill="#000072"/>
<g opacity="0.3">
<path opacity="0.3" d="M71.8034 73.4558C71.8112 73.0802 71.0256 72.7594 70.0489 72.7393C69.0722 72.7192 68.2742 73.0075 68.2665 73.3831C68.2588 73.7588 69.0443 74.0796 70.021 74.0997C70.9977 74.1197 71.7957 73.8315 71.8034 73.4558Z" fill="white"/>
</g>
</svg>
