<svg width="220" height="130" viewBox="0 0 220 130" fill="none" xmlns="http://www.w3.org/2000/svg">
<g opacity="0.3">
<path opacity="0.3" d="M109.845 129.455C170.51 129.455 219.69 126.774 219.69 123.467C219.69 120.159 170.51 117.478 109.845 117.478C49.1792 117.478 0 120.159 0 123.467C0 126.774 49.1792 129.455 109.845 129.455Z" fill="#000072"/>
</g>
<path d="M214.32 120.802C196.765 121.596 179.217 122.006 161.662 122.269C157.275 122.356 152.888 122.397 148.501 122.437L135.339 122.565C126.565 122.612 117.784 122.639 109.01 122.625C100.236 122.612 91.4554 122.585 82.6813 122.498C73.9071 122.41 65.1263 122.343 56.3521 122.175C38.7972 121.892 21.2489 121.488 3.69393 120.735C3.51898 120.728 3.39114 120.58 3.39787 120.412C3.4046 120.25 3.53917 120.122 3.69393 120.116C21.2489 119.362 38.7972 118.958 56.3521 118.676C65.1263 118.507 73.9071 118.44 82.6813 118.353C91.4554 118.259 100.236 118.238 109.01 118.225C117.784 118.211 126.565 118.238 135.339 118.285L148.501 118.413C152.888 118.454 157.275 118.494 161.662 118.582C179.217 118.844 196.765 119.254 214.32 120.048C214.529 120.055 214.69 120.237 214.683 120.445C214.67 120.634 214.508 120.788 214.32 120.802Z" fill="#000072"/>
<path d="M207.928 24.9194C205.627 34.7633 196.113 41.0411 186.275 39.4599C185.831 39.3859 185.38 39.2984 184.936 39.1975C182.918 38.7265 181.061 37.9527 179.378 36.9434C179.378 36.9367 179.378 36.9367 179.378 36.9367C172.475 32.7649 168.72 24.482 170.651 16.2058C173.06 5.91104 183.355 -0.481142 193.65 1.92097C203.938 4.32982 210.33 14.6246 207.928 24.9194Z" fill="#FA9B27"/>
<path d="M190.38 5.28506C200.674 7.69391 207.067 17.9887 204.658 28.2835C204.032 30.9682 202.861 33.3905 201.3 35.4562C204.51 32.8724 206.912 29.239 207.921 24.9192C210.33 14.6244 203.931 4.32959 193.643 1.92075C186.033 0.144387 178.43 3.17227 174.009 9.03291C178.443 5.46001 184.411 3.89223 190.38 5.28506Z" fill="white"/>
<path d="M199.16 23.6006C199.16 23.6006 196.2 18.4868 192.042 20.7813C188.731 22.6115 186.443 32.4891 186.275 39.46C185.831 39.386 185.38 39.2985 184.936 39.1976C182.918 38.7266 181.061 37.9528 179.378 36.9435C179.378 36.9368 179.378 36.9368 179.378 36.9368C179.378 36.9368 179.822 11.0315 197.398 15.6675C197.391 15.6675 201.179 17.2622 199.16 23.6006Z" fill="white"/>
<g opacity="0.3">
<path opacity="0.3" d="M207.053 13.4402C207.268 15.5059 207.154 17.6389 206.656 19.7786C204.355 29.6226 194.841 35.9004 185.003 34.3192C184.559 34.2452 184.109 34.1577 183.664 34.0568C181.646 33.5858 179.789 32.812 178.107 31.8027C178.107 31.796 178.107 31.796 178.107 31.796C174.52 29.6294 171.782 26.3458 170.254 22.5374C170.873 28.4788 174.258 33.8415 179.378 36.9367C179.378 36.9367 179.378 36.9367 179.378 36.9434C181.054 37.9527 182.918 38.7265 184.936 39.1975C185.38 39.3051 185.831 39.3926 186.275 39.4599C196.112 41.0344 205.627 34.7633 207.928 24.9193C208.856 20.936 208.466 16.9593 207.053 13.4402Z" fill="#000072"/>
</g>
<path d="M177.979 36.8894C178.019 35.9474 178.093 35.0862 178.194 34.1912C178.295 33.3031 178.423 32.4216 178.571 31.5469C178.867 29.7907 179.284 28.048 179.822 26.3255C180.361 24.603 181.034 22.9074 181.922 21.2858C182.81 19.6642 183.94 18.1233 185.367 16.818C185.744 16.5084 186.1 16.1787 186.511 15.9096C186.713 15.775 186.908 15.6203 187.123 15.4992L187.769 15.1358C187.978 15.008 188.206 14.9138 188.435 14.8128C188.664 14.7186 188.886 14.6042 189.115 14.5235C189.579 14.3755 190.063 14.1938 190.507 14.0996C191.402 13.8641 192.338 13.7026 193.3 13.6353C194.262 13.5748 195.271 13.5882 196.287 13.8506C197.297 14.1063 198.326 14.6042 199.107 15.3982C199.901 16.1787 200.405 17.1813 200.641 18.1704C200.869 19.173 200.856 20.1688 200.654 21.1041C200.56 21.5751 200.412 22.0326 200.21 22.4633C200.008 22.8939 199.753 23.3111 199.403 23.6542C199.295 23.7552 199.133 23.7552 199.033 23.6475C198.965 23.5802 198.945 23.4793 198.965 23.3918L198.972 23.3649C199.187 22.5911 199.214 21.7702 199.147 20.983C199.113 20.5927 199.053 20.2092 198.965 19.8391C198.871 19.4758 198.757 19.1191 198.615 18.7962C198.467 18.4732 198.306 18.1704 198.111 17.9013C197.909 17.6456 197.694 17.4034 197.445 17.2149C196.953 16.8247 196.355 16.5959 195.688 16.4546C195.022 16.3268 194.282 16.2999 193.522 16.3739C192.762 16.4479 191.988 16.5825 191.214 16.7978C190.81 16.8852 190.487 17.0265 190.131 17.1409C189.956 17.2015 189.794 17.289 189.626 17.363C189.458 17.4437 189.283 17.5043 189.128 17.6119L188.644 17.8945C188.482 17.9887 188.341 18.1099 188.186 18.2175C187.87 18.4194 187.601 18.6885 187.305 18.924C186.188 19.9602 185.252 21.2454 184.492 22.6651C183.738 24.0849 183.106 25.6055 182.622 27.1868C182.117 28.7613 181.747 30.3963 181.437 32.0381C181.289 32.859 181.161 33.6933 181.054 34.521C180.953 35.3418 180.859 36.2031 180.812 36.9836V37.0173C180.764 37.7911 180.098 38.3832 179.318 38.3361C178.531 38.2957 177.945 37.6498 177.979 36.8894Z" fill="#000072"/>
<path d="M189.29 41.1083C187.749 41.1083 186.181 40.9334 184.613 40.5633C179.271 39.3118 174.729 36.0551 171.836 31.3922C168.942 26.7293 168.034 21.2185 169.285 15.876C170.537 10.5335 173.794 5.99166 178.457 3.09836C183.119 0.205056 188.63 -0.703305 193.973 0.548217C199.315 1.79974 203.857 5.05639 206.75 9.71932C209.644 14.3822 210.552 19.893 209.3 25.2355C207.087 34.7027 198.615 41.1083 189.29 41.1083ZM189.29 2.82249C181.235 2.82249 173.935 8.35341 172.024 16.5219C170.947 21.131 171.728 25.8882 174.224 29.9119C176.721 33.9356 180.643 36.7482 185.252 37.8247C186.605 38.141 187.957 38.289 189.29 38.289C197.344 38.289 204.651 32.7581 206.555 24.5896C207.632 19.9737 206.851 15.2233 204.355 11.1929C201.859 7.16918 197.936 4.35661 193.327 3.28003C191.974 2.97725 190.622 2.82249 189.29 2.82249Z" fill="#000072"/>
<path d="M199.026 115.749C198.817 116.516 198.454 117.209 197.976 117.794C196.92 119.086 195.312 119.887 193.562 119.887H165.672C163.943 119.887 162.402 118.75 161.938 117.081C161.568 115.776 161.299 114.114 161.48 112.311V112.304C161.749 109.653 163.008 106.692 166.385 104.115L166.352 104.135C165.47 104.694 154.597 111.389 140.359 109.713H140.352C133.328 108.892 125.475 106.033 117.61 99.3848C114.992 97.1711 112.361 94.5335 109.764 91.4182C85.6015 62.4178 107.517 34.9583 107.517 34.9583C107.517 34.9583 143.131 -8.87193 182.494 24.7173C182.494 24.7173 188.536 29.2053 193.226 39.4328C197.243 48.1935 200.264 61.1797 197.627 79.1721C196.806 84.777 197.095 90.4963 198.589 95.9667C199.995 101.141 201.038 108.394 199.026 115.749Z" fill="#FA9B27"/>
<path d="M197.976 117.801C196.92 119.093 195.312 119.894 193.562 119.894H165.672C163.943 119.894 162.402 118.756 161.938 117.088C161.029 113.865 160.706 108.448 166.406 104.108C165.948 104.404 141.873 119.887 117.603 99.3981C125.516 101.901 149.106 107.95 162.395 96.054C162.395 96.054 164.609 101.154 166.412 104.108C166.412 104.108 175.496 97.3325 187.897 104.108C194.531 107.721 197.054 113.347 197.976 117.801Z" fill="white"/>
<g opacity="0.3">
<path opacity="0.3" d="M187.89 104.095C187.675 103.988 177.434 98.5373 166.412 104.102L166.385 104.115L166.352 104.136C165.47 104.694 154.597 111.389 140.359 109.714H140.352C140.352 109.714 151.865 101.572 151.677 89.3191C151.677 89.3191 151.677 89.3191 151.683 89.3258C153.514 90.2813 155.68 88.7943 155.438 86.7353C154.711 80.5853 154.819 67.2492 166.877 57.459C166.56 57.7618 152.477 71.4209 164.138 99.8225C164.145 99.8225 178.806 93.8138 187.89 104.095Z" fill="#000072"/>
</g>
<g opacity="0.3">
<path opacity="0.3" d="M199.026 115.749C198.817 116.516 198.454 117.209 197.976 117.794C196.92 119.086 195.312 119.887 193.562 119.887H165.672C163.943 119.887 162.402 118.75 161.938 117.081C161.568 115.776 161.299 114.114 161.48 112.311V112.304H161.487C161.487 112.304 164.865 117.404 167.422 111.133C167.422 111.133 168.249 116.435 174.789 116.321C174.789 116.321 175.348 112.378 178.127 111.133C178.127 111.133 192.176 120.17 194.491 109.787C196.799 99.3983 189.99 100.145 193.233 76.5277C195.164 62.4716 194.437 51.6991 193.219 39.4395C197.236 48.2002 200.257 61.1864 197.62 79.1788C196.799 84.7837 197.088 90.503 198.582 95.9734C199.995 101.141 201.038 108.394 199.026 115.749Z" fill="#000072"/>
</g>
<g opacity="0.7">
<path opacity="0.7" d="M108.519 38.6658C108.519 38.6658 144.134 -5.16439 183.496 28.4248C183.496 28.4248 189.539 32.9128 194.228 43.1403C195.157 45.1656 196.032 47.4197 196.792 49.9026C195.837 45.9058 194.585 42.4271 193.219 39.4396C188.529 29.2121 182.487 24.7241 182.487 24.7241C143.125 -8.86513 107.51 34.965 107.51 34.965C107.51 34.965 93.2857 52.8026 100.405 74.8994C95.856 54.5453 108.519 38.6658 108.519 38.6658Z" fill="white"/>
</g>
<g opacity="0.7">
<path opacity="0.7" d="M162.49 116.011C162.759 113.354 164.017 110.4 167.395 107.816L167.361 107.836C167.004 108.065 165.006 109.296 161.803 110.575C161.648 111.16 161.541 111.739 161.48 112.304V112.311C161.292 114.114 161.568 115.783 161.938 117.081C162.059 117.505 162.241 117.889 162.483 118.232C162.422 117.532 162.416 116.785 162.49 116.011Z" fill="white"/>
</g>
<path d="M193.562 121.065H165.672C163.411 121.065 161.406 119.557 160.801 117.404C160.168 115.15 159.697 111.476 161.628 107.823C158.338 109.168 153.729 110.602 148.252 111.039C138.118 111.846 123.053 109.236 108.849 92.1853C96.0578 76.8305 96.1184 61.8863 98.4263 52.0557C100.916 41.4312 106.359 34.5277 106.588 34.2383L106.595 34.2316C106.77 34.0163 110.955 28.9093 118.074 23.4658C124.668 18.4261 135.104 12.1886 147.377 11.065C159.899 9.92109 171.963 14.214 183.227 23.8157C183.739 24.206 188.819 28.2028 193.246 36.8087C197.431 44.9368 201.785 58.9189 198.79 79.3538C197.976 84.9251 198.286 90.4156 199.726 95.6707C201.098 100.69 202.289 108.307 200.17 116.065C199.356 119.012 196.644 121.065 193.562 121.065ZM166.412 102.924C166.782 102.924 167.146 103.099 167.375 103.422C167.738 103.94 167.63 104.653 167.126 105.037C162.119 108.839 162.16 113.515 163.075 116.765C163.398 117.909 164.468 118.709 165.679 118.709H193.569C195.594 118.709 197.371 117.364 197.896 115.439C199.874 108.193 198.75 101.02 197.451 96.283C195.931 90.7117 195.594 84.8981 196.462 79.0039C199.356 59.2621 195.211 45.8116 191.221 38.0064C186.908 29.5552 181.841 25.7064 181.787 25.6661C181.767 25.6526 181.747 25.6324 181.727 25.619C170.961 16.4277 159.482 12.3232 147.606 13.3998C125.267 15.4318 108.748 35.3082 108.432 35.6984C108.264 35.9138 103.029 42.6491 100.701 52.6748C97.565 66.1858 100.916 78.9635 110.659 90.6646C121.512 103.698 134.068 109.76 147.962 108.691C158.365 107.89 165.692 103.16 165.766 103.113C165.968 102.985 166.19 102.924 166.412 102.924Z" fill="#000072"/>
<path d="M165.753 103.126C165.894 103.032 165.995 102.971 166.11 102.897C166.224 102.823 166.332 102.762 166.446 102.702C166.668 102.574 166.89 102.453 167.112 102.345C167.556 102.117 168.02 101.928 168.478 101.733C169.407 101.39 170.342 101.074 171.304 100.865C172.259 100.636 173.235 100.488 174.211 100.401C174.702 100.374 175.186 100.327 175.678 100.313L177.144 100.333C177.387 100.333 177.629 100.36 177.871 100.387L178.598 100.461L179.325 100.535C179.567 100.569 179.802 100.623 180.044 100.663L181.471 100.946L182.864 101.349L183.557 101.551C183.786 101.632 184.008 101.72 184.23 101.807C184.681 101.982 185.118 102.177 185.555 102.379C185.777 102.473 185.979 102.601 186.188 102.729C186.396 102.85 186.598 102.985 186.793 103.119C187.197 103.388 187.587 103.671 187.951 103.987C188.011 104.041 188.018 104.128 187.964 104.182C187.93 104.216 187.89 104.236 187.843 104.229H187.829C186.854 104.115 185.979 103.839 185.084 103.624C184.633 103.523 184.196 103.415 183.759 103.294C183.537 103.24 183.328 103.166 183.106 103.112L182.44 102.978L181.114 102.715L179.775 102.567C179.553 102.547 179.331 102.507 179.109 102.493L178.436 102.473L177.77 102.453C177.548 102.446 177.326 102.433 177.104 102.453C175.321 102.466 173.558 102.736 171.856 103.166C171.001 103.381 170.167 103.664 169.353 103.98C168.956 104.155 168.545 104.31 168.162 104.512C167.967 104.606 167.772 104.7 167.59 104.801C167.496 104.848 167.401 104.902 167.314 104.949L167.072 105.091L167.004 105.131C166.446 105.461 165.726 105.272 165.396 104.714C165.087 104.162 165.248 103.476 165.753 103.126Z" fill="#000072"/>
<path d="M165.443 104.768C165.107 104.29 164.824 103.86 164.542 103.402C164.259 102.951 163.983 102.487 163.728 102.023C163.203 101.094 162.712 100.152 162.267 99.1833C162.039 98.6988 161.823 98.2211 161.615 97.7299C161.399 97.2454 161.204 96.7475 161.009 96.2563C160.626 95.2672 160.276 94.2579 159.953 93.2419C159.307 91.2098 158.829 89.124 158.486 87.0179C158.143 84.9051 157.954 82.7654 157.961 80.6257C157.948 80.0874 157.988 79.5558 157.995 79.0175C158.008 78.7484 158.008 78.4793 158.022 78.2168L158.089 77.4161C158.163 76.3463 158.338 75.2831 158.486 74.2268C158.701 73.1771 158.883 72.1207 159.179 71.0845L159.388 70.3107C159.455 70.0483 159.529 69.7926 159.616 69.5436L160.128 68.023C160.895 66.0246 161.79 64.08 162.96 62.3036C163.505 61.3885 164.158 60.5542 164.804 59.7198C165.12 59.2959 165.477 58.9057 165.834 58.5221C166.19 58.1319 166.547 57.7483 166.917 57.3783C166.991 57.3043 167.105 57.3043 167.179 57.3783C167.24 57.4388 167.247 57.5263 167.213 57.5936V57.6003C165.289 61.3011 163.58 64.9682 162.402 68.8035C161.81 70.7211 161.373 72.6724 161.076 74.6439C160.969 75.6398 160.834 76.6289 160.801 77.6247L160.754 78.3716C160.74 78.6206 160.747 78.8695 160.74 79.1185C160.74 79.6164 160.713 80.1143 160.733 80.619C160.814 84.6158 161.5 88.5924 162.644 92.4479C162.934 93.4101 163.25 94.3656 163.593 95.3076C163.768 95.7786 163.936 96.2563 164.125 96.7206C164.306 97.1916 164.501 97.6559 164.703 98.1201C165.107 99.042 165.517 99.9638 165.975 100.859C166.083 101.087 166.204 101.31 166.318 101.532C166.432 101.754 166.547 101.976 166.668 102.198C166.903 102.635 167.159 103.086 167.395 103.469L167.415 103.503C167.758 104.055 167.583 104.781 167.031 105.125C166.486 105.421 165.8 105.273 165.443 104.768Z" fill="#000072"/>
<path d="M167.502 120.506C167.361 120.291 167.26 120.129 167.152 119.934C167.052 119.753 166.957 119.564 166.87 119.376C166.695 118.999 166.554 118.609 166.419 118.218C166.17 117.431 166.009 116.603 165.955 115.769C165.888 114.942 165.948 114.087 166.157 113.28C166.21 113.078 166.278 112.876 166.332 112.681C166.399 112.486 166.493 112.297 166.581 112.109C166.621 112.015 166.668 111.92 166.715 111.833L166.883 111.57C166.998 111.395 167.119 111.227 167.24 111.073C167.307 110.992 167.428 110.972 167.509 111.039C167.556 111.073 167.583 111.126 167.583 111.187V111.207C167.603 112.008 167.583 112.714 167.677 113.421C167.765 114.121 167.859 114.8 168.041 115.466C168.216 116.132 168.431 116.785 168.687 117.431C168.814 117.754 168.949 118.07 169.084 118.387L169.292 118.851L169.487 119.282L169.534 119.376C169.804 119.968 169.548 120.661 168.956 120.937C168.438 121.172 167.819 120.984 167.502 120.506Z" fill="#000072"/>
<path d="M178.208 120.506C178.066 120.291 177.965 120.129 177.858 119.934C177.757 119.753 177.663 119.564 177.575 119.376C177.4 118.999 177.259 118.609 177.124 118.218C176.875 117.431 176.714 116.603 176.66 115.769C176.593 114.942 176.653 114.087 176.862 113.28C176.916 113.078 176.983 112.876 177.037 112.681C177.104 112.486 177.198 112.297 177.286 112.109C177.326 112.015 177.373 111.92 177.42 111.833L177.589 111.57C177.703 111.395 177.824 111.227 177.945 111.073C178.013 110.992 178.134 110.972 178.214 111.039C178.262 111.073 178.288 111.126 178.288 111.187V111.207C178.309 112.008 178.288 112.714 178.383 113.421C178.47 114.121 178.564 114.8 178.746 115.466C178.921 116.132 179.136 116.785 179.392 117.431C179.52 117.754 179.654 118.07 179.789 118.387L179.998 118.851L180.193 119.282L180.24 119.376C180.509 119.968 180.253 120.661 179.661 120.937C179.143 121.172 178.524 120.984 178.208 120.506Z" fill="#000072"/>
<path d="M70.4957 95.4485C65.3146 105.393 58.7206 112.701 54.7238 116.624C53.1896 118.124 51.2787 119.154 49.213 119.611C48.3989 119.793 47.5645 119.887 46.7167 119.887H21.9554C19.2303 119.887 16.9359 117.841 16.6331 115.137C16.512 114.053 16.5187 113.044 16.6196 112.122C17.5347 103.98 26.2617 101.794 26.2617 101.794C28.1323 98.1602 30.8843 94.9573 33.569 92.3937C35.6683 90.3886 37.7206 88.767 39.2951 87.6231C40.9907 86.3918 42.1211 85.7122 42.1211 85.7122C50.7135 84.2723 57.0586 85.7055 61.5533 87.8788C67.8715 90.9403 70.4957 95.4485 70.4957 95.4485Z" fill="#FA9B27"/>
<path d="M49.213 119.618C48.3989 119.8 47.5645 119.894 46.7167 119.894H21.9554C19.2303 119.894 16.9358 117.848 16.633 115.143C15.4353 104.512 26.2684 101.8 26.2684 101.8C26.2684 101.8 47.6049 98.0323 49.213 119.618Z" fill="white"/>
<g opacity="0.3">
<path opacity="0.3" d="M70.4957 95.4487C65.3146 105.394 58.7206 112.701 54.7238 116.624C53.1896 118.124 51.2787 119.154 49.213 119.611C48.3989 119.793 47.5645 119.887 46.7167 119.887H21.9554C19.2303 119.887 16.9359 117.842 16.6331 115.137C16.512 114.053 16.5187 113.044 16.6196 112.122C17.2521 113.69 18.7593 115.554 21.9554 112.028C21.9554 112.028 21.9958 112.58 22.2851 113.3C23.4761 116.287 27.4796 116.704 29.4444 114.161C30.1307 113.273 31.0996 112.405 32.3915 112.028C32.3915 112.028 36.6507 116.038 43.0967 115.971C46.3937 115.937 48.9977 113.098 48.7622 109.808C48.3652 104.371 45.6603 96.088 33.5825 92.3872C35.6818 90.3821 37.734 88.7605 39.3085 87.6166C46.636 87.3878 55.2486 87.4753 61.5668 87.8723C67.8715 90.9405 70.4957 95.4487 70.4957 95.4487Z" fill="#000072"/>
</g>
<path d="M46.7168 121.071H21.9554C18.6248 121.071 15.8324 118.582 15.4623 115.278C14.3252 105.178 23.1666 101.572 25.4543 100.818C30.5479 91.351 41.0714 84.979 41.5223 84.7098C41.6501 84.6358 41.7847 84.582 41.9327 84.5618C52.9878 82.7114 60.4162 85.5711 64.7024 88.2962C69.3989 91.2837 71.431 94.7153 71.5117 94.8633C71.7136 95.2132 71.7271 95.6438 71.5387 96.0004C66.4316 105.804 60.026 113.091 55.5514 117.471C53.183 119.793 50.0474 121.071 46.7168 121.071ZM42.545 86.8428C41.1051 87.7444 31.6581 93.9011 27.3114 102.332C27.1567 102.635 26.8808 102.85 26.5511 102.938C26.1541 103.039 16.734 105.555 17.8039 115.009C18.0394 117.122 19.8292 118.71 21.9554 118.71H46.7168C49.4217 118.71 51.9785 117.673 53.9029 115.783C57.3951 112.364 63.9488 105.232 69.1298 95.516C68.4098 94.5134 66.5527 92.2257 63.3297 90.2071C57.671 86.6611 50.6799 85.524 42.545 86.8428Z" fill="#000072"/>
<path d="M25.9387 100.664C26.2146 100.59 26.4097 100.536 26.6452 100.489C26.8673 100.442 27.0893 100.401 27.3114 100.361C27.7554 100.294 28.1995 100.226 28.6436 100.199C29.5318 100.119 30.4267 100.119 31.3149 100.166C33.0912 100.267 34.8541 100.623 36.5228 101.222C37.3639 101.511 38.1713 101.888 38.9519 102.299C39.7324 102.709 40.4793 103.187 41.179 103.712C42.5651 104.782 43.7763 106.073 44.6375 107.574C44.6779 107.641 44.651 107.729 44.5837 107.769C44.5366 107.796 44.476 107.789 44.4289 107.762C43.0361 106.773 41.6971 105.838 40.2976 105.044C39.5843 104.66 38.8913 104.27 38.1444 103.974C37.411 103.671 36.6574 103.402 35.8903 103.194C34.3629 102.776 32.7884 102.548 31.2072 102.507C30.42 102.487 29.626 102.514 28.8455 102.581C28.4552 102.615 28.065 102.662 27.6814 102.723L27.1095 102.817C26.9278 102.85 26.7192 102.891 26.5847 102.924L26.5241 102.938C25.8916 103.086 25.2591 102.696 25.1111 102.063C24.9698 101.451 25.3399 100.839 25.9387 100.664Z" fill="#000072"/>
<path d="M20.879 120.365C20.6771 119.995 20.556 119.672 20.4281 119.315C20.307 118.966 20.2061 118.609 20.1321 118.246C19.9706 117.519 19.8898 116.765 19.9235 115.998C19.9571 115.231 20.0648 114.451 20.3945 113.724C20.7175 113.004 21.2288 112.338 21.9017 111.988C21.9421 111.968 21.9959 111.981 22.0161 112.022C22.0295 112.042 22.0295 112.062 22.0228 112.082V112.089C21.821 112.802 21.7671 113.414 21.7873 114.027C21.8008 114.632 21.9152 115.238 22.0295 115.837C22.1507 116.436 22.3256 117.041 22.5006 117.64L22.7764 118.542C22.8639 118.831 22.9716 119.161 23.0388 119.416L23.059 119.504C23.2272 120.136 22.8504 120.782 22.2247 120.95C21.6864 121.092 21.1346 120.836 20.879 120.365Z" fill="#000072"/>
<path d="M31.315 120.365C31.1131 119.995 30.992 119.672 30.8641 119.315C30.743 118.966 30.6421 118.609 30.5681 118.246C30.4066 117.519 30.3258 116.765 30.3595 115.998C30.3931 115.231 30.5008 114.451 30.8305 113.724C31.1535 113.004 31.6648 112.338 32.3377 111.988C32.3781 111.968 32.4319 111.981 32.4521 112.022C32.4656 112.042 32.4656 112.062 32.4588 112.082V112.089C32.257 112.802 32.2031 113.414 32.2233 114.027C32.2368 114.632 32.3512 115.238 32.4656 115.837C32.5867 116.436 32.7616 117.041 32.9366 117.64L33.2124 118.542C33.2999 118.831 33.4076 119.161 33.4749 119.416L33.495 119.504C33.6633 120.136 33.2864 120.782 32.6607 120.95C32.1157 121.092 31.5706 120.836 31.315 120.365Z" fill="#000072"/>
<path d="M120.025 49.5998C120.025 49.5998 125.973 35.9004 139.955 37.273C139.955 37.273 142.297 50.2121 121.209 52.991L120.025 49.5998Z" fill="#F90060"/>
<g opacity="0.3">
<path opacity="0.3" d="M139.565 37.2395C137.553 40.8527 132.884 44.8563 122.219 46.2558L122.138 46.0203C120.705 48.0389 120.025 49.6 120.025 49.6L121.216 52.9912C142.297 50.2123 139.955 37.2731 139.955 37.2731C139.827 37.2597 139.693 37.2529 139.565 37.2395Z" fill="#000072"/>
</g>
<path d="M121.209 54.1687C120.718 54.1687 120.267 53.8592 120.099 53.3815L118.908 49.9902C118.807 49.7076 118.821 49.4048 118.942 49.129C119.009 48.9809 120.557 45.4619 123.908 42.0908C128.396 37.5759 133.987 35.5035 140.07 36.0956C140.594 36.1494 141.018 36.5397 141.113 37.0578C141.146 37.2395 141.88 41.5593 138.697 45.9261C135.514 50.293 129.681 53.0585 121.364 54.1553C121.31 54.162 121.263 54.1687 121.209 54.1687ZM121.29 49.6673L122.003 51.6926C129.115 50.616 134.081 48.2273 136.766 44.5939C138.61 42.0976 138.872 39.6483 138.865 38.3766C127.743 37.8652 122.353 47.5074 121.29 49.6673Z" fill="#000072"/>
<path d="M120.389 51.7063C121.29 50.7711 122.226 49.8829 123.181 49.0149C124.136 48.1469 125.119 47.3058 126.128 46.4917C126.626 46.0812 127.137 45.6842 127.655 45.2872C128.174 44.897 128.692 44.5 129.237 44.1434C130.313 43.4234 131.471 42.7438 132.783 42.4074C132.863 42.3872 132.951 42.4343 132.971 42.5151C132.985 42.5689 132.964 42.6294 132.924 42.6698L132.917 42.6765C131.962 43.558 131.033 44.4058 130.078 45.2469C129.116 46.0745 128.16 46.9156 127.218 47.7768L124.392 50.3606C123.45 51.2219 122.501 52.0831 121.553 52.9309L121.546 52.9377C121.196 53.2472 120.665 53.2135 120.355 52.8636C120.072 52.5205 120.093 52.0226 120.389 51.7063Z" fill="#000072"/>
<path d="M132.87 83.6468C130.455 85.8605 128.026 86.6949 128.026 86.6949C128.059 67.7672 120.348 51.6925 120.348 51.6925L123.632 47.2045L124.89 45.4886C143.118 67.9892 138.011 78.9367 132.87 83.6468Z" fill="#F90060"/>
<g opacity="0.3">
<path opacity="0.3" d="M132.87 83.6468C130.455 85.8605 128.026 86.6949 128.026 86.6949C128.059 67.7673 120.348 51.6926 120.348 51.6926L123.632 47.2046C129.203 55.9518 136.167 70.277 132.87 83.6468Z" fill="#000072"/>
</g>
<path d="M128.026 87.8721C127.783 87.8721 127.541 87.7981 127.339 87.65C127.03 87.428 126.848 87.0714 126.848 86.6878C126.882 68.2716 119.359 52.3585 119.285 52.197C119.097 51.8067 119.144 51.3424 119.399 50.9925L123.941 44.7955C124.157 44.4994 124.5 44.3245 124.863 44.311C125.24 44.3043 125.576 44.4658 125.805 44.7484C136.45 57.8826 140.622 68.8234 138.199 77.2543C135.932 85.147 128.719 87.7039 128.409 87.8048C128.281 87.8519 128.153 87.8721 128.026 87.8721ZM121.707 51.8269C123.107 54.9422 128.799 68.5811 129.183 84.8442C131.195 83.7205 134.626 81.204 135.945 76.568C138.018 69.2742 134.216 59.2216 124.93 47.4264L121.707 51.8269Z" fill="#000072"/>
<path d="M33.1318 54.431C33.1318 54.431 26.8405 33.9154 34.9418 15.4588C36.4826 11.9532 40.2237 9.92116 43.985 10.6344C48.9979 11.5899 56.433 14.3149 64.1238 21.7972C64.1238 21.7972 42.6864 27.207 33.1318 54.431Z" fill="#FA9B27"/>
<g opacity="0.7">
<path opacity="0.7" d="M36.718 16.791C37.9897 13.1777 41.5626 10.8698 45.371 11.3004C46.2525 11.4014 47.2147 11.5494 48.2441 11.7647C46.6898 11.2399 45.2566 10.8833 43.9782 10.641C40.2169 9.92108 36.4758 11.9531 34.9349 15.4655C26.8337 33.9221 33.1249 54.4376 33.1249 54.4376C33.8987 52.2239 34.76 50.1582 35.6751 48.2204C33.9997 40.6709 32.5867 28.5459 36.718 16.791Z" fill="white"/>
</g>
<path d="M33.1317 55.6084C33.125 55.6084 33.1183 55.6084 33.1048 55.6084C32.5934 55.5949 32.1494 55.2652 32.0013 54.774C31.7389 53.9195 25.6697 33.626 33.8584 14.981C35.6415 10.9169 39.894 8.65611 44.2003 9.477C49.2737 10.4459 56.9847 13.2181 64.938 20.9493C65.2475 21.2453 65.3686 21.6894 65.2542 22.0999C65.1466 22.5103 64.8169 22.8333 64.4064 22.9342C64.3526 22.9477 59.111 24.3203 52.8063 28.9227C46.9927 33.1617 39.0597 41.0948 34.242 54.8211C34.0737 55.2989 33.6297 55.6084 33.1317 55.6084ZM42.4509 11.6705C39.7056 11.6705 37.1756 13.2988 36.0183 15.9297C30.1711 29.2457 32.0417 43.8535 33.3874 50.4677C38.4743 38.2889 45.9296 31.0018 51.5144 26.9512C55.8476 23.8022 59.6627 22.1133 61.863 21.2992C54.8518 14.9945 48.2106 12.6462 43.763 11.7984C43.3189 11.7109 42.8815 11.6705 42.4509 11.6705Z" fill="#000072"/>
<path d="M37.8618 47.7294C37.8618 47.7294 33.4882 33.4714 39.12 20.6467C40.1899 18.2109 42.7871 16.7979 45.4046 17.2958C48.89 17.962 54.0508 19.8527 59.4001 25.0472C59.3933 25.0539 44.5029 28.8152 37.8618 47.7294Z" fill="#FFF1E1"/>
<g opacity="0.3">
<path opacity="0.3" d="M41.4751 25.0203C42.5449 22.5845 45.1421 21.1715 47.7596 21.6694C50.2626 22.1472 53.6404 23.2641 57.3277 25.7806C58.6128 25.2491 59.4001 25.0472 59.4001 25.0472C54.0508 19.8527 48.89 17.9552 45.4046 17.2958C42.7871 16.7979 40.1899 18.2109 39.12 20.6467C33.4882 33.4714 37.8618 47.7294 37.8618 47.7294C38.1848 46.8076 38.5279 45.9194 38.8913 45.0648C38.3059 39.7492 38.3395 32.1661 41.4751 25.0203Z" fill="#000072"/>
</g>
<path d="M37.8619 48.5704C37.8551 48.5704 37.8484 48.5704 37.8417 48.5704C37.4783 48.5637 37.1621 48.3215 37.0544 47.9783C36.8728 47.3862 32.6539 33.2762 38.3463 20.3101C39.5911 17.4774 42.5584 15.8962 45.5594 16.4748C49.0852 17.1477 54.4547 19.0788 59.9856 24.455C60.2009 24.6703 60.2884 24.9798 60.2144 25.2759C60.1336 25.5719 59.9049 25.8007 59.6088 25.8747C59.4675 25.9084 45.0615 29.7773 38.6626 48.012C38.5347 48.3484 38.2185 48.5704 37.8619 48.5704ZM44.3348 18.0426C42.4373 18.0426 40.6879 19.1663 39.8872 20.9897C35.85 30.1878 37.115 40.2673 38.0435 44.8966C43.8638 30.9549 54.0308 26.0699 57.7719 24.6972C52.9138 20.3438 48.3182 18.7155 45.2364 18.1301C44.9404 18.0695 44.6376 18.0426 44.3348 18.0426Z" fill="#000072"/>
<path d="M125.26 56.1131C125.26 56.1131 131.901 34.4672 123.349 14.9945C121.728 11.2938 117.778 9.14734 113.808 9.90768C108.519 10.917 100.681 13.7901 92.5591 21.6828C92.5591 21.6828 115.174 27.3886 125.26 56.1131Z" fill="#FA9B27"/>
<g opacity="0.7">
<path opacity="0.7" d="M121.472 16.4007C120.133 12.5856 116.358 10.1499 112.341 10.6074C111.406 10.7151 110.397 10.8698 109.307 11.0986C110.948 10.5468 112.456 10.17 113.801 9.91436C117.771 9.15403 121.714 11.3005 123.343 15.0012C131.895 34.4738 125.253 56.1198 125.253 56.1198C124.433 53.7849 123.531 51.6049 122.562 49.5661C124.345 41.5994 125.832 28.8083 121.472 16.4007Z" fill="white"/>
</g>
<path d="M125.26 57.3579C124.735 57.3579 124.264 57.0282 124.089 56.5303C119.009 42.0503 110.632 33.6799 104.502 29.2054C97.8478 24.3473 92.3168 22.9007 92.2563 22.8872C91.8189 22.7728 91.4758 22.4364 91.3614 22.0058C91.247 21.5684 91.3748 21.1108 91.6978 20.7946C100.088 12.6395 108.23 9.71256 113.579 8.68981C118.121 7.82181 122.609 10.2105 124.486 14.4966C133.119 34.1644 126.72 55.5816 126.445 56.4832C126.29 56.9946 125.819 57.3512 125.28 57.3579C125.274 57.3579 125.267 57.3579 125.26 57.3579ZM94.941 21.1579C97.2557 22.0192 101.279 23.8023 105.855 27.1262C111.749 31.4056 119.615 39.0897 124.984 51.9414C126.404 44.9571 128.382 29.5485 122.212 15.4992C120.799 12.2829 117.435 10.4863 114.044 11.1323C109.347 12.0272 102.343 14.5033 94.941 21.1579Z" fill="#000072"/>
<path d="M120.268 49.0416C120.268 49.0416 124.883 34.0031 118.942 20.4718C117.812 17.9015 115.073 16.4145 112.314 16.9393C108.64 17.6391 103.19 19.6375 97.5517 25.1213C97.545 25.1213 113.263 29.0845 120.268 49.0416Z" fill="#FFF1E1"/>
<g opacity="0.3">
<path opacity="0.3" d="M114.908 16.2532C113.777 13.6829 111.039 12.1958 108.28 12.7207C105.635 13.2253 102.076 14.4028 98.1869 17.0606C96.8277 16.4954 96 16.2869 96 16.2869C101.639 10.803 107.089 8.80462 110.763 8.10484C113.521 7.58001 116.26 9.06704 117.39 11.6374C123.332 25.1686 118.716 40.2071 118.716 40.2071C118.373 39.2315 118.01 38.2962 117.633 37.3945C118.252 31.7829 118.218 23.7825 114.908 16.2532Z" fill="#000072"/>
</g>
<path d="M120.268 49.9295C119.891 49.9295 119.554 49.694 119.433 49.3374C112.664 30.0532 97.4844 26.0161 97.3297 25.9757C97.0201 25.895 96.7712 25.6527 96.6904 25.3432C96.6097 25.0337 96.6972 24.704 96.9259 24.4752C102.76 18.803 108.425 16.771 112.146 16.0577C115.315 15.4522 118.444 17.1209 119.756 20.1084C125.758 33.7809 121.31 48.6713 121.115 49.297C121.001 49.6604 120.665 49.9161 120.288 49.9228C120.281 49.9295 120.274 49.9295 120.268 49.9295ZM99.2473 24.7444C100.862 25.3499 103.641 26.588 106.797 28.8825C110.888 31.8498 116.338 37.1721 120.066 46.0606C121.048 41.1756 122.387 30.5377 118.128 20.8283C117.152 18.6011 114.831 17.3631 112.476 17.8072C109.226 18.4262 104.375 20.142 99.2473 24.7444Z" fill="#000072"/>
<path d="M73.1268 111.167C73.1268 111.167 22.3458 111.167 28.8793 70.9092C29.2427 68.6685 29.7877 66.3001 30.5211 63.8037C30.5211 63.8037 35.9982 19.9735 78.1733 19.9735C120.348 19.9735 127.272 64.6381 127.272 64.6381C127.272 64.6381 127.46 65.0889 127.723 65.9098C130.118 73.3786 139.014 111.234 73.1268 111.167Z" fill="#FA9B27"/>
<path d="M73.1268 111.167C73.1268 111.167 22.3458 111.167 28.8793 70.9093C30.3125 70.9025 32.1091 71.4947 34.1277 73.5065C38.2119 77.5908 37.2968 78.8692 43.2449 81.379C45.7816 82.4421 48.7288 81.9173 51.3597 81.1098C53.9098 80.3293 58.2498 79.4142 64.3863 79.495C64.3863 79.495 70.4286 79.394 85.6689 83.5389C90.4328 84.8375 95.4994 84.7971 100.203 83.2966C104.778 81.8365 110.074 78.8557 114.871 72.9346C114.871 72.9346 120.308 65.4322 127.716 65.9032C130.118 73.3787 139.013 111.234 73.1268 111.167Z" fill="white"/>
<g opacity="0.3">
<path opacity="0.3" d="M127.716 65.9031C127.454 65.0823 127.265 64.6314 127.265 64.6314C127.265 64.6314 123.746 41.956 106.46 28.916C117.112 41.6667 119.527 57.23 119.527 57.23C119.527 57.23 119.716 57.6808 119.978 58.5017C122.38 65.9772 131.276 103.839 65.3889 103.765C65.3889 103.765 46.6901 103.765 33.4481 94.7689C45.2299 111.167 73.1268 111.167 73.1268 111.167C139.014 111.234 130.118 73.3786 127.716 65.9031Z" fill="#000072"/>
</g>
<g opacity="0.7">
<path opacity="0.7" d="M78.1733 19.9669C35.9983 19.9669 30.5212 63.7971 30.5212 63.7971C29.781 66.2934 29.2427 68.6619 28.8794 70.9025C27.6884 78.2367 28.4017 84.2387 30.3664 89.1438C29.2091 84.851 28.9332 79.8247 29.8887 73.9304C30.252 71.6898 30.7971 69.3213 31.5305 66.825C31.5305 66.825 34.8275 40.4892 55.9554 28.6468C56.9243 29.5821 60.0598 29.4946 63.4914 28.3507C67.1787 27.1261 69.8634 25.1412 69.7154 23.7954C72.6491 23.2773 75.7981 22.988 79.1826 22.988C108.64 22.988 120.9 44.7753 125.61 57.9163C121.775 45.4616 110.033 19.9669 78.1733 19.9669Z" fill="white"/>
</g>
<path d="M40.8966 67.3566C42.202 66.825 43.5813 66.6837 44.9809 66.7308C46.3737 66.7981 47.7867 67.0807 49.1123 67.619C49.4554 67.7334 49.7717 67.9016 50.0946 68.0564C50.4176 68.2111 50.7473 68.3659 51.0434 68.5677C51.3529 68.7561 51.6489 68.958 51.9517 69.1531C52.2411 69.3685 52.5169 69.5972 52.7861 69.826C53.358 70.2701 53.8156 70.8151 54.2866 71.3467C54.7306 71.8984 55.1209 72.4906 55.4708 73.1029C55.9687 73.9709 55.6659 75.0811 54.7979 75.579C54.1251 75.9626 53.3042 75.8684 52.739 75.4041L52.5439 75.2359C52.3151 75.0475 52.1132 74.8456 51.9114 74.6437C51.7028 74.4486 51.5346 74.2198 51.3125 74.0382C50.8886 73.6681 50.5253 73.2374 50.0946 72.8943C49.8861 72.7126 49.6909 72.5107 49.4756 72.3358C49.2603 72.1609 49.045 71.9926 48.8297 71.811C48.6211 71.6226 48.3923 71.4745 48.1703 71.3063C47.9415 71.1448 47.7262 70.9564 47.4907 70.8151C46.5688 70.1692 45.5461 69.6309 44.4628 69.1397C43.3795 68.6418 42.2087 68.2448 40.9774 67.9151L40.9437 67.9083C40.789 67.868 40.6948 67.7065 40.7351 67.5517C40.7486 67.4575 40.8159 67.3902 40.8966 67.3566Z" fill="#000072"/>
<path d="M94.8535 69.7048C93.4876 69.9605 92.1823 70.3171 90.9577 70.7814C89.7398 71.2457 88.5824 71.7705 87.5193 72.4232C87.2435 72.5645 86.9945 72.7596 86.7388 72.9211C86.4831 73.096 86.214 73.2441 85.9785 73.4392C85.7362 73.6276 85.4873 73.8025 85.2383 73.9842C84.9961 74.1726 84.7673 74.3812 84.5251 74.5696C84.0339 74.9329 83.6033 75.3838 83.1255 75.774C82.8766 75.9624 82.6747 76.2046 82.4392 76.4132C82.2104 76.6285 81.9749 76.8371 81.7192 77.039L81.5241 77.187C80.7369 77.806 79.5997 77.6647 78.9807 76.8842C78.4895 76.2585 78.476 75.4039 78.8865 74.7715C79.3037 74.1322 79.7545 73.5132 80.2659 72.9413C80.8109 72.3963 81.329 71.8243 81.9682 71.3735C82.2777 71.138 82.5805 70.9025 82.9035 70.6805C83.2399 70.4786 83.5696 70.2768 83.906 70.0884C84.2358 69.8865 84.5991 69.7318 84.949 69.577C85.3056 69.4222 85.6555 69.254 86.0256 69.1464C87.479 68.6215 89.0198 68.3659 90.527 68.3389C92.041 68.3322 93.5347 68.5341 94.9276 69.1329C95.0756 69.1935 95.1429 69.3684 95.0756 69.5097C95.0352 69.6039 94.9545 69.6577 94.867 69.6779L94.8535 69.7048Z" fill="#000072"/>
<path d="M73.3017 112.344C73.2412 112.344 73.1806 112.344 73.1201 112.344C72.8375 112.344 66.0281 112.324 57.6375 110.312C46.4411 107.634 37.8486 102.641 32.8021 95.8859C26.6387 87.6367 25.4814 76.7632 29.3638 63.5549C29.5253 62.3572 31.0863 51.8942 37.5256 41.2697C43.7429 31.0153 55.841 18.7894 78.1733 18.7894C88.024 18.7894 96.7981 21.1982 104.267 25.9486C110.235 29.7503 115.376 35.039 119.534 41.6667C126.256 52.3787 128.18 62.9359 128.409 64.3085C129.055 65.9705 134.525 81.0426 125.751 94.0692C117.583 106.201 99.9404 112.344 73.3017 112.344ZM78.1733 21.1511C61.1498 21.1511 48.1703 28.3104 39.5779 42.4337C33.1184 53.0515 31.6986 63.8442 31.6852 63.9519C31.6785 64.0125 31.665 64.0797 31.6448 64.1403C27.9575 76.6354 28.9803 86.8427 34.6862 94.4797C46.145 109.814 72.8509 109.989 73.1201 109.989C73.1806 109.989 73.2412 109.989 73.295 109.989C99.0858 109.989 116.069 104.203 123.78 92.7773C132.184 80.3226 126.229 65.2236 126.169 65.0756C126.135 64.9948 126.108 64.9006 126.095 64.8132C126.074 64.7055 124.305 53.6975 117.489 42.8644C108.432 28.4517 95.2034 21.1511 78.1733 21.1511Z" fill="#000072"/>
<path d="M57.0692 65.4136C57.99 64.2895 57.1004 62.0382 55.0823 60.385C53.0642 58.7318 50.6818 58.3029 49.761 59.427C48.8403 60.551 49.7298 62.8024 51.7479 64.4556C53.766 66.1087 56.1485 66.5376 57.0692 65.4136Z" fill="white"/>
<path d="M83.3207 65.3939C85.4316 63.8612 86.4509 61.6656 85.5973 60.4898C84.7436 59.3141 82.3403 59.6034 80.2293 61.136C78.1184 62.6686 77.0991 64.8642 77.9527 66.04C78.8064 67.2158 81.2097 66.9265 83.3207 65.3939Z" fill="white"/>
<g opacity="0.3">
<path opacity="0.3" d="M61.8968 82.5435C61.8968 82.5435 61.2643 87.4621 57.4155 87.3007C53.5667 87.1392 52.3287 82.6714 52.3287 82.6714C52.3287 82.6714 46.7574 92.0712 57.6039 96.714L74.412 94.8367C74.412 94.8367 83.1188 92.8921 78.8596 84.2391C78.8596 84.2391 76.1009 89.1443 72.4405 87.9466C68.7801 86.7489 67.9323 83.4182 67.9323 83.4182L61.8968 82.5435Z" fill="#000072"/>
</g>
<path d="M71.9021 80.343C71.236 77.665 65.557 77.0797 65.557 77.0797C65.557 77.0797 59.8848 76.4943 58.6804 78.9838C57.4759 81.4734 61.4593 85.1607 64.689 85.4904C67.9188 85.8268 72.5683 83.0277 71.9021 80.343Z" fill="#000072"/>
<path d="M66.0618 85.1137L66.1291 85.3358C66.156 85.4233 66.1829 85.5107 66.2166 85.6049C66.2839 85.7866 66.3511 85.9616 66.4319 86.1432C66.5799 86.4998 66.7616 86.843 66.9567 87.1727C67.347 87.8321 67.8382 88.4108 68.3899 88.8885C68.6658 89.1308 68.9686 89.3326 69.2916 89.5143C69.6078 89.7027 69.9442 89.844 70.2941 89.9651C71.0006 90.2006 71.7677 90.315 72.5617 90.3217C74.1496 90.3419 75.6232 89.9045 76.6055 88.7607C77.5946 87.6303 78.1666 85.9952 78.6039 84.2592L78.6107 84.239C78.6443 84.0977 78.7856 84.017 78.9269 84.0506C79.0144 84.0708 79.0817 84.1381 79.1086 84.2188C79.2701 84.6966 79.3306 85.1676 79.371 85.6588C79.4046 86.1432 79.3777 86.6344 79.3104 87.1323C79.1691 88.1147 78.8058 89.1106 78.1733 89.9786C77.5543 90.8533 76.6728 91.5733 75.6972 92.0308C74.7215 92.5018 73.6651 92.6902 72.6491 92.7642C72.1377 92.8046 71.6264 92.7911 71.1015 92.7508C70.5834 92.6902 70.0586 92.6162 69.5405 92.4614C68.511 92.1856 67.5152 91.6809 66.6674 91.0081C65.8196 90.3352 65.1198 89.5143 64.5748 88.6194C64.2989 88.1753 64.0702 87.7043 63.8683 87.2265C63.7674 86.9843 63.6799 86.7421 63.5991 86.4931C63.5588 86.3653 63.5184 86.2442 63.4848 86.1096C63.4444 85.9683 63.4175 85.8674 63.3771 85.6722C63.2156 84.9321 63.6933 84.1986 64.4335 84.0439C65.14 83.8958 65.8398 84.313 66.0349 84.9994L66.0618 85.1137Z" fill="#000072"/>
<path d="M66.1963 85.6855C66.1559 85.8807 66.1223 85.9816 66.0886 86.1229C66.0483 86.2507 66.0146 86.3786 65.9675 86.5064C65.8868 86.7554 65.7926 87.0044 65.6849 87.2399C65.4763 87.7176 65.2341 88.1819 64.938 88.626C64.3594 89.5074 63.6058 90.3149 62.6839 90.9205C62.2264 91.2233 61.7419 91.479 61.2306 91.6741C60.7192 91.8625 60.1944 91.9971 59.6695 92.0846C58.6131 92.2528 57.5769 92.2057 56.5811 92.0442C55.5785 91.876 54.5356 91.553 53.6205 90.9272C52.6987 90.3082 51.9585 89.3729 51.5817 88.3636C51.1915 87.3543 51.1107 86.3113 51.2318 85.3356C51.3529 84.36 51.6355 83.4381 52.1335 82.597C52.2075 82.4759 52.3622 82.4355 52.4834 82.5096C52.5641 82.5567 52.6112 82.6441 52.6112 82.7249V82.7451C52.6247 84.5215 52.739 86.2709 53.3917 87.5763C53.7147 88.2223 54.1992 88.7202 54.8047 89.0499C55.4103 89.3796 56.137 89.5747 56.9175 89.642C57.7048 89.7093 58.4853 89.6757 59.2052 89.5276C59.5619 89.4469 59.905 89.3325 60.2347 89.1912C60.5577 89.0432 60.8672 88.8749 61.1498 88.6664C61.7218 88.2559 62.2129 87.7176 62.6099 87.0986C62.8118 86.789 62.9935 86.4593 63.1415 86.1094C63.2155 85.9345 63.2895 85.7595 63.3568 85.5913C63.3904 85.5038 63.4174 85.4164 63.4443 85.3289L63.5048 85.1136L63.5385 84.9925C63.7538 84.2658 64.5209 83.8553 65.2476 84.0706C65.9406 84.2859 66.3443 84.9925 66.1963 85.6855Z" fill="#000072"/>
<path d="M55.498 90.5101C55.498 90.5101 56.0968 101.283 65.3486 101.915C74.6004 102.548 74.9772 91.1157 74.9772 91.1157C74.9772 91.1157 65.8263 93.2352 64.9382 84.2323C64.9314 84.2323 63.9894 92.8988 55.498 90.5101Z" fill="#000072"/>
<path d="M58.5795 98.5574C58.5795 98.5574 63.0743 88.4443 74.163 95.3748C74.163 95.3748 69.2377 107.466 58.5795 98.5574Z" fill="#F95A93"/>
<path d="M66.0752 103.025C65.8128 103.025 65.5437 103.019 65.2678 102.999C57.1934 102.447 54.6298 94.6281 54.4078 90.5708C54.3876 90.2209 54.5424 89.8845 54.8115 89.6624C55.0874 89.4404 55.444 89.3731 55.7872 89.4673C57.9807 90.0863 59.784 89.9383 61.1364 89.0299C63.4511 87.4756 63.8548 84.1449 63.8548 84.1113C63.9153 83.5595 64.3796 83.1491 64.9314 83.1491H64.9381C65.4966 83.1558 65.9541 83.573 66.0079 84.1248C66.23 86.3923 67.0509 88.0543 68.437 89.0568C70.9737 90.887 74.6879 90.0661 74.7215 90.0594C75.0512 89.9854 75.3944 90.0661 75.6568 90.2814C75.9192 90.4968 76.0605 90.8197 76.0538 91.1562C76.0471 91.4119 75.8048 97.4407 72.0637 100.825C70.4488 102.285 68.437 103.025 66.0752 103.025ZM56.7695 91.8963C57.2809 94.655 59.0976 100.401 65.4226 100.832C67.5152 100.973 69.2646 100.428 70.6103 99.2171C72.7298 97.3061 73.4902 94.1504 73.7526 92.3808C72.1108 92.5086 69.3992 92.4077 67.1922 90.8265C66.1829 90.1065 65.3956 89.1578 64.8304 88.0072C64.2854 89.0232 63.4982 90.0527 62.361 90.8197C60.8134 91.8627 58.9429 92.226 56.7695 91.8963Z" fill="#000072"/>
<path d="M66.2256 79.3964C66.2466 78.9286 65.129 78.4985 63.7294 78.4357C62.3299 78.3729 61.1783 78.7012 61.1573 79.169C61.1363 79.6368 62.2539 80.0669 63.6535 80.1297C65.053 80.1925 66.2046 79.8641 66.2256 79.3964Z" fill="white"/>
<path d="M129.095 117.088C126.808 118.373 124.318 119.221 121.748 119.618C120.617 119.793 119.46 119.887 118.303 119.887H92.0476C89.4436 119.887 87.3712 117.673 87.5865 115.076C87.7009 113.697 87.9902 112.102 88.5487 110.474C90.2107 105.683 94.2882 100.61 103.493 99.9704C103.493 99.9704 104.522 98.3556 106.696 96.0947C111.197 91.4116 120.597 83.9362 135.912 82.18L151.414 89.3123C152.356 102.211 137.473 112.405 129.095 117.088Z" fill="#FA9B27"/>
<path d="M121.963 119.625C120.833 119.8 119.675 119.894 118.518 119.894H92.2696C89.6657 119.894 87.5932 117.68 87.8086 115.083C88.2594 109.646 91.3882 100.832 103.722 99.9771C103.715 99.9771 122.387 100.394 121.963 119.625Z" fill="white"/>
<g opacity="0.3">
<path opacity="0.3" d="M129.095 117.088C126.808 118.373 124.318 119.221 121.748 119.618C120.617 119.793 119.46 119.887 118.303 119.887H92.0476C89.4436 119.887 87.3712 117.673 87.5865 115.076C87.7009 113.697 87.9902 112.102 88.5487 110.474C88.5958 110.662 89.9684 116.267 94.2276 111.725C94.2276 111.725 94.7457 112.97 96.0242 114.114C97.8947 115.776 100.808 115.641 102.443 113.744C103.244 112.822 104.401 111.914 105.956 111.719C105.956 111.719 112.725 116.664 121.613 114.787C121.613 114.787 140.662 110.077 151.407 89.3122C152.356 102.211 137.472 112.405 129.095 117.088Z" fill="#000072"/>
</g>
<g opacity="0.3">
<path opacity="0.3" d="M118.727 107.594C113.808 99.513 103.506 99.9773 103.506 99.9773C103.506 99.9773 104.536 98.3624 106.709 96.1016C119.554 98.2413 118.727 107.594 118.727 107.594Z" fill="#000072"/>
</g>
<path d="M139.101 81.5675C135.831 82.7719 132.615 83.5389 129.432 84.5752C127.857 85.1202 126.296 85.7123 124.776 86.3919C123.255 87.0648 121.748 87.778 120.288 88.5854C118.834 89.3929 117.394 90.2272 116.002 91.1356C114.615 92.0507 113.256 93.0129 111.937 94.0289C110.625 95.0517 109.34 96.1081 108.116 97.2318C107.503 97.7902 106.898 98.3622 106.312 98.9408C106.023 99.2369 105.727 99.5262 105.444 99.8223C105.162 100.112 104.872 100.428 104.637 100.704L104.603 100.744C104.395 100.986 104.099 101.121 103.803 101.141C102.746 101.235 101.703 101.39 100.68 101.612C99.6644 101.841 98.6753 102.164 97.7266 102.561C95.8358 103.355 94.1402 104.532 92.8079 106.046C91.4757 107.56 90.5 109.39 89.9012 111.355C89.5984 112.338 89.3898 113.354 89.2619 114.376C89.2283 114.632 89.2081 114.888 89.1812 115.143C89.1677 115.359 89.1677 115.534 89.1879 115.729C89.2216 116.106 89.336 116.476 89.5109 116.819C89.8608 117.498 90.4798 118.043 91.1998 118.306C91.3815 118.373 91.5631 118.42 91.7515 118.454C91.8457 118.467 91.9399 118.481 92.0341 118.488C92.0812 118.494 92.1283 118.494 92.1754 118.494H92.3437H94.0056L100.667 118.488L113.983 118.508L117.314 118.514C118.451 118.521 119.467 118.535 120.51 118.434C122.582 118.239 124.634 117.754 126.565 116.953C127.05 116.758 127.521 116.536 127.985 116.307C128.221 116.193 128.449 116.065 128.678 115.944L129.391 115.547C130.34 115.009 131.282 114.45 132.211 113.878C134.068 112.728 135.878 111.51 137.621 110.205C141.086 107.587 144.329 104.627 146.812 101.141C147.431 100.273 147.996 99.3647 148.494 98.4362C148.992 97.5009 149.436 96.5454 149.826 95.5698C150.223 94.5941 150.566 93.5916 150.842 92.5554C151.125 91.5191 151.34 90.4493 151.542 89.3323C151.549 89.2852 151.596 89.2516 151.643 89.2583C151.677 89.265 151.704 89.2919 151.71 89.3189C152.417 91.5124 152.316 93.9482 151.704 96.1955C151.091 98.4631 149.934 100.522 148.649 102.426C146.031 106.228 142.674 109.384 139.121 112.169C137.331 113.555 135.481 114.854 133.577 116.065C132.621 116.671 131.659 117.25 130.683 117.815L129.95 118.232C129.694 118.373 129.439 118.514 129.176 118.649C128.651 118.918 128.12 119.174 127.581 119.396C125.415 120.318 123.107 120.896 120.765 121.139C120.18 121.192 119.595 121.233 119.002 121.246C118.397 121.26 117.872 121.26 117.307 121.26L113.976 121.267L100.66 121.287L93.9989 121.28H92.3369L92.088 121.273C92.0005 121.273 91.9063 121.267 91.8188 121.26C91.6371 121.246 91.4555 121.226 91.2805 121.192C90.9239 121.132 90.5673 121.038 90.2309 120.91C88.8649 120.405 87.7076 119.382 87.0482 118.084C86.7185 117.438 86.5032 116.725 86.4426 115.998C86.409 115.641 86.4157 115.258 86.4426 114.921C86.4696 114.625 86.5032 114.329 86.5436 114.033C86.7051 112.856 86.9607 111.692 87.3308 110.554C88.0575 108.287 89.235 106.12 90.8634 104.317C92.4917 102.514 94.5506 101.128 96.7644 100.239C97.8746 99.7954 99.0117 99.4657 100.162 99.2302C101.313 99.0014 102.477 98.8668 103.634 98.7861L102.793 99.2302C103.089 98.8466 103.365 98.5237 103.654 98.1872C103.944 97.8575 104.233 97.5278 104.536 97.2116C105.135 96.5791 105.747 95.9533 106.38 95.3545C107.645 94.1568 108.963 93.0196 110.343 91.9565C113.088 89.8168 116.035 87.9529 119.13 86.3717C120.671 85.571 122.266 84.878 123.874 84.2253C125.489 83.5861 127.144 83.0478 128.806 82.5566C132.13 81.5876 135.595 80.9484 139.081 81.3589C139.141 81.3656 139.182 81.4194 139.175 81.4733C139.168 81.5204 139.141 81.554 139.101 81.5675Z" fill="#000072"/>
<path d="M103.661 98.7928C104.105 98.7659 104.475 98.7592 104.879 98.7659C105.269 98.7726 105.666 98.7928 106.057 98.8265C106.837 98.887 107.611 99.0082 108.378 99.1562C109.145 99.3177 109.905 99.5128 110.659 99.7618C111.406 100.017 112.139 100.314 112.852 100.663C114.259 101.383 115.625 102.278 116.688 103.483C117.764 104.66 118.545 106.1 118.875 107.607C118.895 107.695 118.834 107.789 118.747 107.809C118.679 107.823 118.619 107.796 118.578 107.749C117.643 106.564 116.674 105.535 115.557 104.701C114.447 103.866 113.249 103.173 111.951 102.675C111.305 102.42 110.645 102.204 109.973 102.023C109.3 101.834 108.613 101.686 107.92 101.572C107.227 101.444 106.528 101.356 105.828 101.282C105.478 101.249 105.128 101.222 104.778 101.202C104.435 101.182 104.065 101.161 103.769 101.161H103.722C103.069 101.155 102.551 100.623 102.558 99.9771C102.564 99.3379 103.049 98.8332 103.661 98.7928Z" fill="#000072"/>
<path d="M92.5321 120.291C92.4311 120.055 92.3706 119.894 92.3168 119.699C92.2562 119.51 92.2091 119.322 92.162 119.133C92.0678 118.757 92.0207 118.373 91.9736 117.989C91.8996 117.222 91.913 116.442 92.0274 115.682C92.0745 115.298 92.1687 114.921 92.2562 114.544C92.3773 114.174 92.485 113.804 92.6599 113.461C92.9762 112.761 93.4405 112.122 94.0124 111.611C94.1201 111.51 94.295 111.523 94.3892 111.631C94.4363 111.685 94.4632 111.752 94.4565 111.819V111.839C94.4161 112.586 94.3085 113.232 94.295 113.898C94.2614 114.221 94.2748 114.551 94.2479 114.861C94.2546 115.184 94.2345 115.493 94.2546 115.809C94.2816 116.442 94.3287 117.068 94.4229 117.687L94.4902 118.151C94.5238 118.306 94.544 118.46 94.5709 118.615L94.7391 119.483L94.766 119.604C94.8872 120.244 94.4767 120.863 93.8375 120.984C93.279 121.098 92.7407 120.795 92.5321 120.291Z" fill="#000072"/>
<path d="M104.267 120.291C104.166 120.055 104.105 119.894 104.051 119.699C103.991 119.51 103.944 119.322 103.897 119.133C103.802 118.757 103.755 118.373 103.708 117.989C103.634 117.222 103.648 116.442 103.762 115.682C103.809 115.298 103.903 114.921 103.991 114.544C104.112 114.174 104.22 113.804 104.395 113.461C104.711 112.761 105.175 112.122 105.747 111.611C105.855 111.51 106.03 111.523 106.124 111.631C106.171 111.685 106.198 111.752 106.191 111.819V111.839C106.151 112.586 106.043 113.232 106.03 113.898C105.996 114.221 106.009 114.551 105.983 114.861C105.989 115.184 105.969 115.493 105.989 115.809C106.016 116.442 106.063 117.068 106.157 117.687L106.225 118.151C106.258 118.306 106.279 118.46 106.306 118.615L106.474 119.483L106.501 119.604C106.622 120.244 106.211 120.863 105.572 120.984C105.014 121.098 104.475 120.795 104.267 120.291Z" fill="#000072"/>
</svg>
