<svg width="54" height="54" viewBox="0 0 54 54" fill="none" xmlns="http://www.w3.org/2000/svg">
<circle cx="27" cy="27" r="27" transform="rotate(90 27 27)" fill="#C0F7F8"/>
<path d="M35.0091 20.3062L31.581 15.3107C31.3269 14.9412 30.9892 14.6381 30.5959 14.4265C30.2025 14.215 29.7648 14.101 29.3191 14.0941L22.8134 14H22.8C19.4412 14 16.8641 14.5667 15.2044 17.3326C13.6591 19.9072 13 24.2929 13 31.997V32.9385H15.1325L13.7597 40H15.662L17.0347 32.9385H17.6666C19.191 32.9523 20.6595 32.3606 21.7551 31.2913C22.7455 30.3353 23.46 29.0274 23.8212 27.5091L23.8245 27.4954L25.4253 19.7571H23.5184L22.003 27.0827C21.5414 29.0058 20.1613 31.0555 17.6666 31.0555H14.8701C14.9208 24.3903 15.5224 20.4386 16.8013 18.3075C17.8746 16.5186 19.4435 15.8836 22.7935 15.8827L29.2923 15.9769C29.4409 15.9792 29.5868 16.0172 29.7179 16.0877C29.849 16.1582 29.9616 16.2592 30.0463 16.3824L33.9241 22.0327L39.1333 22.9085V23.9065L38.2646 28.5801C38.0082 29.9595 37.57 30.6543 35.7727 30.8721L28.4049 32.1437L28.3562 40H30.2228L30.2617 33.7334L36.0192 32.7389C37.3236 32.5771 38.2859 32.1531 38.9608 31.4429C39.5377 30.8357 39.8888 30.06 40.0994 28.9271L41 24.0815V21.3134L35.0091 20.3062Z" fill="#09D4D9"/>
</svg>
