<svg width="316" height="404" viewBox="0 0 316 404" fill="none" xmlns="http://www.w3.org/2000/svg">
<path d="M31.8438 363.887H287.344C298.544 339.487 301.944 312.087 305.044 285.387C307.144 267.487 305.644 245.987 290.444 236.287C277.144 227.787 259.444 232.287 244.344 227.787C226.444 222.487 214.444 204.687 210.744 186.387C207.044 168.087 210.144 149.187 213.644 130.787C217.144 112.487 221.044 93.7866 218.844 75.2866C215.544 47.4866 197.744 21.8866 172.844 9.18659C148.044 -3.51341 116.844 -3.01341 92.3438 10.4866C57.1438 29.9866 40.2438 71.2866 31.8438 110.587C23.3438 150.187 20.9438 191.187 24.7438 231.487C28.7438 274.587 41.8438 321.787 31.8438 363.887Z" fill="#04E4E9"/>
<path d="M230.744 146.687C233.544 126.587 236.244 106.487 239.044 86.3866C240.644 75.0866 242.244 63.4866 247.744 53.4866C253.244 43.4866 263.344 35.1866 274.744 35.3866C283.544 35.4866 291.744 40.6866 297.344 47.5866C302.844 54.4866 306.044 62.9866 308.544 71.4866C317.044 100.687 317.844 132.087 310.844 161.687C306.944 177.987 300.144 194.687 286.644 204.587C272.544 215.087 251.844 214.487 239.844 201.087C226.544 186.287 228.244 164.987 230.744 146.687Z" fill="#04E4E9"/>
<path d="M311.844 369.187C311.844 372.187 309.344 374.687 306.344 374.687H291.944C285.444 374.687 279.144 377.387 274.644 382.087L273.844 382.887C269.344 387.687 263.144 390.287 256.544 390.287H238.444C232.444 390.287 226.644 392.587 222.244 396.687C217.844 400.787 212.044 403.087 206.044 403.087H150.444C144.444 403.087 138.644 400.787 134.244 396.687C129.844 392.587 124.044 390.287 118.044 390.287H59.7438C53.2438 390.287 46.9438 387.587 42.4438 382.887L41.6438 382.087C37.1438 377.287 30.9438 374.687 24.3438 374.687H9.94382C6.94382 374.687 4.44382 372.187 4.44382 369.187C4.44382 366.187 6.94382 363.687 9.94382 363.687H306.244C309.344 363.687 311.844 366.187 311.844 369.187Z" fill="#422C4F"/>
<path d="M208.544 152.987C211.644 148.587 211.044 142.387 208.644 137.587C206.144 132.787 202.044 129.087 197.844 125.587C193.644 122.087 189.444 118.587 186.644 113.987C181.444 105.587 181.944 94.0866 187.944 86.2866C190.844 82.3866 194.944 79.3866 198.044 75.6866C204.444 67.8866 206.344 56.5866 202.844 47.1866C199.344 37.7866 190.444 30.4866 180.544 28.7866C170.644 27.0866 159.944 31.1866 153.544 38.9866C144.044 30.2866 127.944 26.6866 116.044 30.9866C104.044 35.1866 94.8438 46.3866 92.9438 58.9866C91.4438 69.1866 94.2438 80.0866 89.8438 89.3866C83.0438 103.587 62.7438 106.787 55.2438 120.587C50.5438 129.187 52.1438 139.887 55.1438 149.187C58.1438 158.587 62.3438 167.687 62.6438 177.487C62.9438 186.987 59.6438 197.387 64.2438 205.687C68.8438 214.087 79.4438 216.787 88.9438 218.487C108.544 221.987 129.244 224.387 147.944 217.387C161.444 212.287 172.744 202.587 181.744 191.387C190.844 180.387 200.444 164.887 208.544 152.987Z" fill="#DF8D6D"/>
<path d="M55.1438 149.287C52.1438 139.887 50.6438 129.287 55.2438 120.687C56.8438 117.787 59.0438 115.287 61.4438 113.087C56.9438 122.187 57.1438 133.787 62.8438 142.287C67.4438 149.087 74.9438 153.887 78.5438 161.287C82.5438 169.287 81.3438 178.987 84.7438 187.187C88.6438 196.587 98.4438 202.787 108.544 203.587C118.644 204.487 128.844 200.487 136.544 193.887C143.444 188.087 148.544 180.587 154.244 173.587C159.944 166.587 166.644 159.987 175.144 157.187C179.844 155.587 184.944 155.287 189.644 153.687C194.344 152.087 198.944 148.587 199.844 143.687C201.144 136.387 194.044 130.787 189.944 124.587C187.644 121.087 186.244 117.087 185.844 112.887C186.044 113.287 186.244 113.587 186.444 113.987C189.244 118.587 193.544 122.087 197.644 125.587C201.744 129.087 205.944 132.787 208.444 137.587C210.944 142.387 211.444 148.587 208.344 152.987C200.144 164.787 190.644 180.287 181.544 191.487C172.444 202.687 161.144 212.387 147.744 217.487C129.144 224.487 108.344 222.087 88.7438 218.587C79.2438 216.887 68.7438 214.187 64.0438 205.787C59.4438 197.387 62.7438 187.087 62.4438 177.587C62.3438 167.787 58.0438 158.587 55.1438 149.287Z" fill="#BD6C67"/>
<path d="M177.944 34.3866C169.044 33.9866 160.144 38.1866 154.744 45.1866C147.144 39.6866 137.544 36.0866 128.144 35.1866C118.744 34.2866 108.744 36.9866 102.144 43.6866C97.7438 48.0866 94.9438 53.8866 93.3438 59.8866C93.0438 60.9866 92.8438 62.0866 92.5438 63.1866C92.6438 61.7866 92.7438 60.3866 92.9438 58.9866C94.8438 46.3866 104.044 35.1866 116.044 30.9866C128.044 26.7866 144.144 30.2866 153.544 38.8866C159.944 31.0866 170.644 27.0866 180.544 28.6866C190.444 30.3866 199.344 37.5866 202.844 47.0866C204.344 51.0866 204.844 55.4866 204.444 59.7866C204.044 55.2866 202.644 50.9866 200.244 47.1866C195.344 39.6866 186.844 34.7866 177.944 34.3866Z" fill="#F9A991"/>
<path d="M191.744 69.6866C191.544 66.4866 190.644 62.9866 188.944 59.6866C187.244 56.3866 184.644 53.3866 181.544 51.1866C178.344 49.0866 174.544 47.8866 170.844 47.4866C167.144 47.1866 163.544 47.6866 160.544 48.6866C163.144 46.7866 166.844 45.3866 170.944 45.1866C175.044 44.9866 179.544 46.0866 183.244 48.5866C186.944 51.0866 189.644 54.7866 191.044 58.6866C192.344 62.5866 192.444 66.5866 191.744 69.6866Z" fill="#F9A991"/>
<path d="M180.444 61.2866C179.744 59.7866 178.844 58.2866 177.644 56.7866C176.444 55.2866 175.044 53.8866 173.344 52.7866C171.744 51.6866 169.844 50.7866 168.044 50.2866C166.244 49.6866 164.444 49.4866 162.844 49.2866C164.444 48.8866 166.344 48.7866 168.344 49.0866C170.344 49.3866 172.444 50.1866 174.244 51.4866C176.044 52.6866 177.544 54.3866 178.644 56.0866C179.644 57.8866 180.244 59.6866 180.444 61.2866Z" fill="#F9A991"/>
<path d="M105.644 69.8866C108.744 69.2866 112.144 68.3866 115.644 67.0866C119.144 65.7866 122.644 63.9866 125.844 61.7866C129.144 59.5866 132.044 56.9866 134.644 54.2866C137.244 51.5866 139.344 48.6866 141.044 46.0866C140.244 49.0866 138.744 52.4866 136.344 55.6866C134.044 58.8866 130.944 61.8866 127.444 64.1866C123.944 66.4866 120.044 68.1866 116.244 69.1866C112.544 70.1866 108.744 70.2866 105.644 69.8866Z" fill="#F9A991"/>
<path d="M106.944 53.9866C111.544 54.0866 117.444 53.6866 123.044 52.0866C128.644 50.5866 133.944 48.0866 137.944 45.7866C136.444 47.4866 134.344 49.2866 131.844 50.7866C129.344 52.2866 126.544 53.4866 123.544 54.2866C120.544 55.0866 117.544 55.3866 114.644 55.2866C111.844 55.1866 109.144 54.6866 106.944 53.9866Z" fill="#F9A991"/>
<path d="M77.8438 191.887L69.3438 220.087L32.0438 209.887L54.6438 158.987C60.0438 146.687 72.4438 138.887 85.8438 139.387L118.044 140.487C119.844 145.887 123.744 150.587 128.744 153.387C134.944 156.787 142.844 157.087 149.344 154.087C154.644 151.587 158.944 146.987 161.044 141.587L187.744 139.887C201.444 138.987 214.244 146.787 219.844 159.287L227.844 177.187L204.244 202.987V300.887L69.3438 307.387C69.3438 288.287 79.4438 268.387 86.2438 257.087C90.1438 250.687 91.2438 242.987 89.3438 235.787L77.8438 191.887Z" fill="#F0BF6C"/>
<path d="M77.8438 191.887L79.8438 193.087C85.0438 196.187 88.8438 200.987 90.7438 206.687L93.6438 215.487L86.0438 222.987L77.8438 191.887Z" fill="#EBA25D"/>
<path d="M117.144 153.887C120.244 156.087 123.944 158.087 128.144 159.487C132.344 160.887 136.944 161.587 141.544 161.287C146.144 160.987 150.644 159.687 154.644 157.887C158.644 155.987 162.044 153.487 164.844 150.987C163.044 154.287 159.944 157.687 155.944 160.287C151.944 162.887 146.944 164.687 141.744 164.987C136.544 165.287 131.444 164.187 127.044 162.087C122.844 159.887 119.444 156.887 117.144 153.887Z" fill="#EBA25D"/>
<path d="M123.444 165.587C127.244 166.987 132.244 168.187 137.344 168.287C142.444 168.487 147.444 167.487 151.344 166.287C149.644 167.487 147.544 168.487 145.144 169.187C142.744 169.887 140.044 170.287 137.344 170.187C134.644 170.087 131.944 169.587 129.544 168.787C127.144 167.987 125.044 166.787 123.444 165.587Z" fill="#EBA25D"/>
<path d="M70.0438 144.187C72.5438 146.487 75.0438 149.487 77.0438 153.187C79.0438 156.887 80.5438 161.187 81.3438 165.587C82.1438 169.987 82.1438 174.587 81.4438 178.687C80.8438 182.887 79.4438 186.587 77.9438 189.587C78.5438 186.287 79.0438 182.487 79.1438 178.487C79.2438 174.487 78.9438 170.287 78.2438 166.087C77.5438 161.887 76.3438 157.887 74.9438 154.187C73.4438 150.487 71.7438 147.087 70.0438 144.187Z" fill="#EBA25D"/>
<path d="M38.7438 203.987C47.1438 204.987 60.2438 208.687 67.9438 212.187C59.4438 211.287 46.4438 207.587 38.7438 203.987Z" fill="#EBA25D"/>
<path d="M174.344 140.787L181.544 184.487H175.144L169.744 141.087L174.344 140.787Z" fill="#A64F5A"/>
<path d="M111.644 140.287L115.044 185.287H108.144L106.644 140.087L111.644 140.287Z" fill="#A64F5A"/>
<path d="M181.544 184.487H175.144L174.544 180.087H180.744L181.544 184.487Z" fill="#70303D"/>
<path d="M114.644 180.587L115.044 185.287H108.144L107.944 180.687L114.644 180.587Z" fill="#70303D"/>
<path d="M204.244 202.287C195.244 199.087 189.544 190.487 187.844 185.587C187.444 184.487 186.444 183.787 185.344 183.787L106.144 184.687C104.944 184.687 103.944 185.487 103.644 186.587C99.0438 201.487 84.0438 219.387 84.0438 219.387L87.8438 233.187C90.0438 241.187 88.7438 249.887 84.2438 256.787C69.6438 278.987 67.1438 299.987 67.1438 306.687L69.3438 306.587L204.244 300.087V202.287Z" fill="#A64F5A"/>
<path d="M105.444 262.287C111.144 261.687 117.544 260.787 124.144 259.387C130.844 257.987 137.744 255.987 144.444 253.587C151.144 251.087 157.744 248.087 163.644 244.787C169.644 241.487 175.044 237.987 179.744 234.787C176.244 239.287 171.544 243.987 165.844 248.187C160.144 252.387 153.444 255.987 146.344 258.687C139.244 261.287 131.744 262.887 124.744 263.487C117.644 263.987 111.044 263.487 105.444 262.287Z" fill="#70303D"/>
<path d="M110.344 249.787C117.744 249.087 127.044 248.287 136.344 246.587C145.644 244.887 154.644 242.387 161.744 240.387C158.644 242.487 154.844 244.487 150.644 246.187C146.444 247.887 141.744 249.287 136.944 250.087C132.144 250.987 127.344 251.387 122.744 251.287C118.244 251.087 113.944 250.587 110.344 249.787Z" fill="#70303D"/>
<path d="M178.044 193.187H180.344C181.644 193.187 182.744 192.087 182.744 190.787C182.744 189.487 181.644 188.387 180.344 188.387H178.044C176.744 188.387 175.644 189.487 175.644 190.787C175.644 192.087 176.644 193.187 178.044 193.187Z" fill="#F0BF6C"/>
<path d="M110.344 193.187H112.644C113.944 193.187 115.044 192.087 115.044 190.787C115.044 189.487 113.944 188.387 112.644 188.387H110.344C109.044 188.387 107.944 189.487 107.944 190.787C107.944 192.087 109.044 193.187 110.344 193.187Z" fill="#F0BF6C"/>
<path d="M129.344 269.587C139.044 269.187 148.844 269.787 158.444 268.187C159.044 268.087 159.744 267.987 160.344 267.787C173.644 264.987 182.944 252.787 181.944 239.187C180.744 222.587 183.644 205.787 190.144 190.487C192.944 194.987 197.744 199.987 204.144 202.187V300.087L69.2438 306.587L67.0438 306.687C67.0438 303.287 67.7438 296.087 70.3438 286.887C88.3438 276.587 108.744 270.487 129.344 269.587Z" fill="#70303D"/>
<path d="M149.344 154.087C142.844 157.087 134.944 156.787 128.744 153.387C123.744 150.587 119.944 145.887 118.044 140.487L123.244 140.687L123.444 118.987H155.044L156.044 141.987L161.044 141.687C158.844 146.987 154.644 151.587 149.344 154.087Z" fill="#F2C9AD"/>
<path d="M124.244 124.387C123.944 123.787 123.644 123.287 123.444 122.787V118.887H155.044L155.544 129.587C141.944 146.787 129.044 133.387 124.244 124.387Z" fill="#422C4F"/>
<path d="M175.444 99.3866C176.544 97.5866 177.944 95.9866 179.744 94.9866C181.544 93.9866 183.844 93.6866 185.744 94.3866C188.644 95.4866 190.144 98.6866 190.344 101.687C190.644 106.387 188.044 111.187 183.944 113.487C179.844 115.787 174.444 115.487 170.544 112.787C172.144 108.487 173.044 103.387 175.444 99.3866Z" fill="#EBA58E"/>
<path d="M185.144 97.4866C181.444 100.287 178.844 104.587 177.844 109.187C177.644 110.287 177.644 111.587 178.544 112.087C179.344 112.487 180.344 112.087 181.044 111.587C183.544 109.587 184.444 105.887 183.044 103.087C183.644 101.087 184.044 99.0866 185.144 97.4866Z" fill="#E78882"/>
<path d="M178.144 79.1866C178.344 87.3866 178.044 95.6866 175.844 103.687C173.644 111.587 169.544 119.087 163.344 124.487C157.144 129.887 148.744 132.987 140.644 131.987C134.044 131.187 127.844 127.687 122.944 123.187C118.044 118.687 114.144 113.087 110.544 107.387C109.944 111.087 105.744 113.887 101.944 114.187C98.1438 114.487 94.4438 112.387 92.1438 109.387C89.8438 106.387 88.9438 102.487 89.1438 98.6866C89.2438 95.7866 90.0438 92.5866 92.4438 90.8866C95.2438 88.7866 99.4438 89.5866 102.144 91.6866C104.944 93.7866 106.544 97.0866 108.044 100.187C109.844 95.4866 110.644 90.0866 109.944 85.0866C127.344 80.9866 142.044 66.0866 145.244 48.5866C167.744 52.6866 178.044 74.0866 178.144 79.1866Z" fill="#F2C9AD"/>
<path d="M96.9438 94.7866C100.444 96.8866 103.044 100.587 103.744 104.587C103.944 105.687 103.944 106.887 103.144 107.687C102.444 108.387 101.244 108.387 100.344 108.087C98.4438 107.487 97.0438 105.687 96.9438 103.687C96.8438 101.687 97.9438 99.6866 99.7438 98.8866C98.7438 97.6866 97.8438 96.0866 96.9438 94.7866Z" fill="#EBA58E"/>
<path d="M149.744 55.3866C144.244 70.3866 129.944 85.1866 110.044 85.1866C127.444 81.0866 142.144 66.1866 145.344 48.6866C167.844 52.6866 178.144 74.0866 178.244 79.1866C172.544 67.7866 162.044 59.0866 149.744 55.3866Z" fill="#EBA58E"/>
<path d="M120.344 79.5866C126.144 78.6866 131.944 77.6866 137.644 76.7866C135.244 74.4866 131.744 73.2866 128.444 73.7866C125.144 74.1866 122.044 76.7866 120.344 79.5866Z" fill="#DF8D6D"/>
<path d="M174.744 82.4866C169.744 81.1866 164.744 79.9866 159.844 78.6866C161.544 75.8866 164.944 74.4866 168.144 75.1866C171.244 75.8866 174.344 79.2866 174.744 82.4866Z" fill="#DF8D6D"/>
<path d="M126.744 92.2866C126.744 94.0866 128.144 95.4866 129.944 95.4866C131.744 95.4866 133.144 94.0866 133.144 92.2866C133.144 90.4866 131.744 89.0866 129.944 89.0866C128.144 89.0866 126.744 90.4866 126.744 92.2866Z" fill="#422C4F"/>
<path d="M164.044 96.3866C165.811 96.3866 167.244 94.9539 167.244 93.1866C167.244 91.4193 165.811 89.9866 164.044 89.9866C162.276 89.9866 160.844 91.4193 160.844 93.1866C160.844 94.9539 162.276 96.3866 164.044 96.3866Z" fill="#422C4F"/>
<path d="M142.344 102.387C145.944 101.987 149.644 101.987 153.144 102.487C151.844 104.087 150.144 105.387 148.144 105.387C146.044 105.387 143.644 103.987 142.344 102.387Z" fill="#EBA58E"/>
<path d="M132.644 110.587C140.944 110.187 149.244 110.687 157.344 112.087C155.044 116.587 149.744 119.687 144.644 119.387C139.644 119.187 134.544 115.287 132.644 110.587Z" fill="white"/>
<path d="M138.144 122.887C141.844 123.487 145.644 123.587 149.344 123.087C147.844 124.587 146.044 125.687 144.044 125.687C141.944 125.587 139.544 124.387 138.144 122.887Z" fill="#EBA58E"/>
<path d="M130.944 103.787C130.244 106.387 125.944 107.587 121.244 106.387C116.544 105.187 113.244 102.087 113.944 99.4866C114.644 96.8866 118.944 95.6866 123.644 96.8866C128.344 97.9866 131.644 101.087 130.944 103.787Z" fill="#E68799"/>
<path d="M162.944 104.087C163.644 106.687 167.044 108.087 170.444 107.187C173.944 106.287 176.244 103.487 175.544 100.787C174.844 98.1866 171.444 96.7866 168.044 97.6866C164.644 98.6866 162.344 101.487 162.944 104.087Z" fill="#E68799"/>
<path d="M137.144 206.687C134.644 206.887 134.544 211.287 135.044 217.087C135.544 222.887 136.444 227.887 138.944 227.687C139.444 227.687 139.844 227.487 140.244 227.087C138.844 225.587 138.144 221.587 137.844 217.087C137.444 212.387 137.444 208.587 138.844 207.187C138.244 206.887 137.744 206.687 137.144 206.687Z" fill="#797C99"/>
<path d="M131.044 199.587L173.344 164.187C165.844 185.387 147.444 191.687 139.944 195.087L132.644 201.887L131.044 199.587Z" fill="#99A3B0"/>
<path d="M132.944 201.687C134.444 203.687 131.244 206.687 126.644 210.187C122.044 213.687 117.744 216.387 116.144 214.387C115.844 213.987 115.744 213.487 115.644 212.987C117.744 213.087 121.044 210.887 124.644 208.087C128.444 205.187 131.244 202.687 131.344 200.787C132.044 200.987 132.644 201.187 132.944 201.687Z" fill="#797C99"/>
<path d="M139.544 218.387C140.744 218.287 141.944 218.187 143.044 218.587C144.144 218.987 145.144 219.987 145.244 221.187C145.344 222.587 144.144 223.787 142.844 224.287C141.544 224.687 140.144 224.587 138.744 224.587C133.344 224.687 128.244 227.387 122.944 228.387C118.244 229.287 113.244 228.787 108.844 226.987C106.944 226.187 105.044 225.087 103.744 223.387C102.544 221.687 102.144 219.087 103.344 217.287C104.544 215.387 106.944 214.887 109.144 214.787C114.444 214.387 119.744 215.187 124.744 216.987C126.844 217.787 128.844 219.287 131.044 219.187C133.844 218.987 136.744 218.587 139.544 218.387Z" fill="#EBA58E"/>
<path d="M56.9438 225.487L96.3438 221.687L105.144 210.787C107.744 207.587 111.644 205.687 115.744 205.687C121.844 205.687 128.744 205.987 133.344 207.887C134.144 208.187 135.044 208.587 135.744 209.187C136.444 209.787 136.844 210.687 136.744 211.587C136.544 212.787 135.244 213.587 134.044 213.687C132.844 213.787 131.644 213.387 130.444 213.087C124.444 211.387 117.844 211.387 111.844 213.187C118.344 214.087 124.844 216.087 130.744 218.887C132.444 219.687 134.144 220.587 134.844 222.387C135.044 222.987 135.144 223.587 135.044 224.187C134.644 226.087 132.844 226.487 131.444 226.187C130.544 225.987 129.644 225.487 128.844 225.087C122.744 222.087 115.644 221.187 109.044 222.487C115.544 223.987 122.044 227.687 127.044 232.287C127.844 232.987 128.644 233.787 129.044 234.787C129.444 235.787 129.444 236.987 128.744 237.887C128.144 238.687 127.044 238.987 126.044 238.887C125.044 238.787 124.144 238.387 123.144 237.987C118.744 235.987 114.344 233.987 109.944 231.987C113.644 235.587 117.544 239.187 122.144 241.587C123.144 242.087 124.344 242.787 124.344 244.087C124.344 244.787 123.844 245.487 123.244 245.887C121.844 246.687 120.244 246.287 118.844 245.787C115.044 244.487 111.444 242.387 108.344 239.687C104.544 241.287 100.344 241.787 96.3438 240.487L44.5438 259.187C39.2438 261.087 33.2438 260.087 28.9438 256.387C23.8438 251.987 21.9438 244.887 24.4438 238.587L35.3438 210.487L60.4438 217.387L56.9438 225.487Z" fill="#F2C9AD"/>
<path d="M35.3438 210.787L60.5438 217.687L58.2438 222.487L34.8438 212.187L35.3438 210.787Z" fill="#422C4F"/>
<path d="M36.7438 227.387L56.9438 225.487L57.5438 224.187C44.0438 220.287 36.7438 227.387 36.7438 227.387Z" fill="#EBA58E"/>
<path d="M139.944 206.787L137.844 151.687C127.144 171.487 134.844 189.387 137.344 197.187L137.144 207.187L139.944 206.787Z" fill="#99A3B0"/>
<path d="M139.944 206.687H137.144C137.744 206.687 138.244 206.787 138.744 207.187C140.644 208.487 142.244 212.287 142.644 216.787C143.044 221.487 142.044 225.587 140.244 227.087C139.844 227.387 139.344 227.687 138.944 227.687H141.744C144.244 227.487 145.944 222.587 145.444 216.787C144.944 210.987 142.444 206.487 139.944 206.687Z" fill="#99A3B0"/>
<path d="M131.044 199.587L132.944 201.687C132.644 201.287 132.144 200.987 131.444 200.787C129.244 200.287 125.344 201.587 121.744 204.387C118.044 207.287 115.644 210.687 115.744 213.087C115.744 213.587 115.944 214.087 116.244 214.487L114.344 212.387C112.844 210.387 115.344 205.887 119.944 202.387C124.544 198.787 129.544 197.587 131.044 199.587Z" fill="#99A3B0"/>
<path d="M281.744 372.587L214.144 372.787L224.844 353.287L271.144 353.187C278.244 353.187 284.644 357.387 287.544 363.887C289.244 367.987 286.144 372.587 281.744 372.587Z" fill="#495375"/>
<path d="M8.44381 311.387C5.54381 313.787 3.14381 316.687 1.14381 319.887C1.04381 319.287 0.943808 318.587 0.743808 317.987C-0.656192 309.387 -0.0561917 300.587 2.34381 292.287C3.94381 291.287 5.64381 290.487 7.44381 289.987C6.04381 289.587 4.64381 289.387 3.14381 289.487C3.84381 287.287 4.74381 285.187 5.74381 283.087C8.04381 278.287 10.8438 273.987 14.2438 270.187C17.3438 266.687 23.0438 269.687 21.9438 274.287C20.8438 278.387 20.3438 282.587 20.6438 286.787C21.1438 297.087 26.2438 307.287 34.8438 312.787C43.4438 318.287 55.6438 318.387 63.6438 311.987C63.6438 321.187 60.5438 333.687 58.1438 342.587C52.3438 344.187 46.5438 345.787 40.6438 346.587C40.2438 342.587 40.2438 338.487 40.7438 334.487C38.4438 338.287 36.8438 342.587 35.8438 346.987C35.3438 346.987 34.9438 347.087 34.4438 347.087C31.2438 347.187 28.0438 346.887 24.9438 346.187C24.5438 339.387 25.4438 332.387 27.8438 325.987C23.6438 331.387 20.7438 337.787 19.4438 344.487C17.6438 343.787 15.8438 342.887 14.2438 341.787C14.2438 335.787 15.4438 329.687 17.7438 324.187C13.9438 327.987 11.2438 333.087 10.0438 338.387C7.14381 335.387 4.94381 331.787 3.34381 327.787C3.94381 322.087 5.64381 316.387 8.44381 311.387Z" fill="#797C99"/>
<path d="M51.8438 316.587C56.1438 316.087 60.2438 314.587 63.6438 311.787C63.6438 320.987 60.5438 333.487 58.1438 342.387C52.3438 343.987 46.5438 345.587 40.6438 346.387C40.2438 343.087 40.2438 339.687 40.5438 336.287C42.2438 336.287 43.9438 336.287 45.5438 336.087C46.5438 329.387 48.6438 322.687 51.8438 316.587Z" fill="#495375"/>
<path d="M19.5438 344.487C17.7438 343.787 15.9438 342.887 14.3438 341.787C14.3438 336.987 15.1438 332.087 16.6438 327.487C18.8438 329.287 21.3438 330.887 23.9438 332.187C21.8438 336.087 20.3438 340.187 19.5438 344.487Z" fill="#495375"/>
<path d="M35.9438 346.887C35.4438 346.887 35.0438 346.987 34.5438 346.987C31.3438 347.087 28.1438 346.787 25.0438 346.087C24.7438 341.787 25.0438 337.387 25.9438 333.087C30.3438 334.987 35.0438 336.087 39.8438 336.287C38.0438 339.687 36.7438 343.287 35.9438 346.887Z" fill="#495375"/>
<path d="M15.6438 326.687C13.0438 330.087 11.1438 334.087 10.1438 338.387C7.24382 335.387 5.04382 331.787 3.44382 327.787C3.84382 323.387 4.94382 318.987 6.64382 314.887C7.44382 316.387 8.24382 317.887 9.14382 319.287C11.0438 322.087 13.1438 324.487 15.6438 326.687Z" fill="#495375"/>
<path d="M1.44381 295.687C1.94381 301.887 3.44381 307.987 6.04381 313.587C4.14381 315.487 2.54381 317.587 1.14381 319.887C1.04381 319.287 0.943814 318.587 0.743814 317.987C-0.356186 310.587 -0.156186 302.987 1.44381 295.687Z" fill="#495375"/>
<path d="M290.644 182.787L264.344 171.887C261.944 170.887 260.044 168.987 258.944 166.587C254.344 156.687 243.944 149.087 233.144 147.587C221.144 145.887 208.344 151.687 201.644 161.887C192.544 175.987 197.544 196.787 197.444 213.587C197.344 230.387 194.644 248.387 183.244 260.687C171.644 273.187 153.644 277.187 136.644 278.687C119.644 280.187 102.044 280.087 86.4438 286.987C71.1438 293.687 58.9438 307.087 53.6438 322.987C48.3438 338.887 50.0438 356.887 58.3438 371.487C60.9438 376.187 72.9438 374.887 72.9438 374.887L195.044 374.587C221.944 374.487 273.044 326.887 259.844 283.887C249.244 249.487 247.944 224.087 249.444 209.487C249.944 204.387 254.344 200.487 259.444 200.487H269.044C273.944 200.487 278.544 198.287 281.544 194.487L290.644 182.787Z" fill="#797C99"/>
<path d="M292.844 179.887C293.444 180.187 293.944 180.587 294.344 181.087C294.744 181.587 294.944 182.287 294.644 182.887C294.344 183.587 293.644 183.987 293.044 184.287C290.744 185.187 288.044 185.287 285.744 184.387C284.044 183.687 280.544 181.887 281.444 179.487C282.344 177.087 286.344 177.787 288.244 178.187C289.844 178.487 291.444 179.087 292.844 179.887Z" fill="#422C4F"/>
<path d="M233.944 167.287C234.644 166.287 235.844 165.287 237.444 164.887C238.944 164.387 240.844 164.487 242.544 165.187C244.244 165.887 245.544 167.187 246.344 168.587C247.144 169.987 247.344 171.587 247.044 172.787C245.844 170.587 243.944 168.587 241.544 167.587C239.044 166.587 236.244 166.587 233.944 167.287Z" fill="#422C4F"/>
<path d="M196.244 284.787C192.144 296.687 189.244 308.887 187.444 321.387C187.344 322.387 185.844 322.387 185.644 321.387C183.944 310.687 185.744 299.487 190.844 289.987C185.644 295.587 181.044 301.687 177.144 308.187C176.644 309.087 175.344 308.487 175.544 307.587C176.844 301.287 180.144 295.387 184.844 290.987C187.644 288.287 191.544 285.887 195.044 283.687C195.744 283.287 196.544 283.987 196.244 284.787Z" fill="#495375"/>
<path d="M229.544 203.787C229.444 202.687 230.944 202.387 231.244 203.387L233.444 210.787C234.444 213.987 235.444 217.287 235.744 220.687C235.944 223.087 235.844 225.687 235.044 227.987C234.744 228.887 233.544 228.787 233.344 227.887C231.644 220.087 230.444 211.887 229.544 203.787Z" fill="#495375"/>
<path d="M225.044 207.787C228.144 217.387 231.144 227.087 231.944 237.187C232.644 247.287 230.544 260.387 224.644 268.587C221.844 272.387 217.844 275.687 213.144 275.687C208.244 275.687 204.144 271.987 200.844 268.287C196.544 263.487 192.544 258.387 189.044 252.987C195.744 241.487 197.544 227.087 197.644 213.487C197.744 200.487 194.744 184.987 197.644 172.087L215.144 171.087C218.744 183.087 221.244 195.787 225.044 207.787Z" fill="#5C5F77"/>
<path d="M151.244 352.987C150.944 343.487 152.244 333.887 154.744 324.687C155.044 323.687 156.544 323.887 156.544 324.887C156.444 332.687 157.444 340.487 159.244 348.187C159.944 351.087 164.244 350.787 164.544 347.787C165.444 338.087 167.244 328.487 169.544 319.087C169.844 318.087 171.344 318.287 171.344 319.287C171.344 329.887 172.644 340.587 174.744 351.087C175.244 353.787 178.944 354.087 179.844 351.487C183.044 342.787 187.944 330.087 191.444 324.487C197.044 315.687 222.844 303.787 230.044 306.787C237.144 309.687 239.844 321.887 236.544 339.987C240.844 334.287 244.444 328.087 246.444 321.287C249.944 309.587 249.244 295.887 243.344 285.087C242.944 284.287 243.744 283.487 244.544 283.887C246.644 284.987 248.744 286.287 250.444 287.787C251.744 288.887 253.644 287.887 253.444 286.187C251.444 270.887 246.644 255.687 239.044 242.287C238.544 241.387 239.644 240.587 240.344 241.187C241.244 241.887 242.144 242.587 242.944 243.287C244.244 244.287 246.044 243.287 245.844 241.587C244.044 229.887 243.844 217.987 244.344 205.987C244.544 200.787 248.844 196.587 254.144 196.587H265.544C271.944 196.587 278.244 194.687 283.644 191.287L281.544 193.887C278.544 197.687 273.844 199.887 269.044 199.887H259.444C254.344 199.887 249.944 203.787 249.444 208.887C247.944 223.587 249.344 248.887 259.844 283.287C273.044 326.287 221.944 373.987 195.044 373.987L72.9438 374.287C72.9438 374.287 67.0438 374.887 62.6438 373.687C89.6438 359.287 120.844 350.987 151.244 352.987Z" fill="#495375"/>
<path d="M203.744 161.787C209.744 159.687 215.644 164.787 214.944 171.087C213.744 181.287 216.444 191.987 219.644 201.887C223.544 213.987 228.244 226.287 227.744 238.987C227.344 248.987 223.444 258.687 217.044 266.387C213.744 270.287 207.844 270.587 204.144 267.087C197.844 261.187 191.844 254.787 188.744 247.087C185.044 237.887 185.044 227.587 185.744 217.687C186.744 203.987 189.144 190.387 193.044 177.187C194.544 172.087 196.544 166.987 200.544 163.587C201.544 162.787 202.544 162.287 203.744 161.787Z" fill="#797C99"/>
<path d="M191.444 244.587C192.544 246.487 195.444 245.987 195.944 243.787C196.544 240.887 197.344 237.987 198.244 235.187C198.144 240.287 198.144 245.387 199.444 250.287C200.244 253.187 201.444 255.787 203.244 257.887C204.744 259.687 207.744 258.487 207.644 256.187C207.244 249.887 206.844 243.387 206.544 237.187C208.244 243.087 210.244 248.987 212.144 254.887C213.044 257.687 216.944 257.687 217.744 254.887C218.644 252.087 218.944 249.087 218.744 246.187C218.444 240.787 217.244 235.187 215.644 229.987C217.944 233.087 219.844 236.687 221.144 240.487C221.444 241.487 222.944 241.287 222.944 240.187C223.244 229.687 219.944 219.087 217.244 208.787C214.544 198.387 212.344 187.287 214.644 176.987C214.844 185.387 217.044 193.787 219.644 201.887C223.544 213.987 228.244 226.287 227.744 238.987C227.344 248.987 223.444 258.687 217.044 266.387C213.744 270.287 207.844 270.587 204.144 267.087C197.844 261.187 191.844 254.787 188.744 247.087C186.744 242.187 185.844 236.887 185.544 231.587C187.044 236.087 188.944 240.487 191.444 244.587Z" fill="#495375"/>
<path d="M76.0438 340.987L72.2438 374.787C69.6438 374.987 60.5438 375.287 58.3438 371.287C57.0438 368.887 55.8438 366.387 54.8438 363.887C58.4438 356.887 67.4438 344.487 76.0438 340.987Z" fill="#495375"/>
<path d="M187.544 339.187L182.644 361.487C180.844 369.787 187.144 377.587 195.644 377.587L262.144 377.387C266.044 377.387 268.544 373.187 266.744 369.787L264.844 366.187C262.844 362.487 258.944 360.087 254.644 360.087L216.644 360.187C235.044 337.987 242.044 301.487 221.244 296.787C200.444 292.087 192.444 317.287 187.544 339.187Z" fill="#797C99"/>
<path d="M261.444 368.587C260.644 367.087 259.544 365.787 258.444 364.887C259.844 365.387 261.244 366.487 262.344 368.087C263.444 369.587 264.144 371.687 264.044 373.687C264.044 374.987 263.644 376.287 263.144 377.387H261.744C262.244 376.187 262.544 374.887 262.544 373.687C262.644 371.887 262.244 370.087 261.444 368.587Z" fill="#495375"/>
<path d="M255.844 374.587C256.144 373.087 256.044 371.387 255.544 369.987C255.044 368.487 254.344 367.287 253.444 366.287C254.544 366.987 255.744 368.087 256.444 369.687C257.144 371.187 257.444 373.087 257.144 374.887C256.944 375.787 256.644 376.687 256.244 377.487H254.944C255.344 376.587 255.744 375.587 255.844 374.587Z" fill="#495375"/>
<path d="M91.1438 303.587C106.444 297.587 125.244 302.087 136.244 314.387C147.144 326.687 149.344 345.987 141.444 360.387H157.444C161.244 360.387 164.644 362.887 165.744 366.587L167.544 372.587C168.344 375.087 166.444 377.687 163.744 377.687L72.8438 377.887C64.7438 377.887 59.0438 369.887 61.9438 362.287C66.6438 349.787 76.0438 340.987 76.0438 340.987C71.5438 324.087 76.4438 309.987 91.1438 303.587Z" fill="#797C99"/>
<path d="M103.544 300.987C115.644 300.387 128.044 305.287 136.144 314.387C147.044 326.687 149.244 345.987 141.344 360.387H130.544C141.744 340.787 140.244 309.387 103.544 300.987Z" fill="#495375"/>
<path d="M161.444 374.387C161.044 372.287 160.344 370.287 159.444 368.487C158.544 366.687 157.444 365.087 156.344 363.787C157.744 364.687 159.244 366.087 160.444 367.887C161.644 369.687 162.544 371.887 162.944 374.087C163.144 375.287 163.244 376.487 163.144 377.587H161.644C161.744 376.587 161.644 375.487 161.444 374.387Z" fill="#495375"/>
<path d="M153.544 375.687C153.244 372.087 152.144 368.687 150.944 366.087C151.944 367.087 152.844 368.487 153.544 370.187C154.244 371.787 154.744 373.687 154.844 375.587C154.944 376.287 154.944 376.987 154.844 377.687H153.544C153.644 377.087 153.644 376.387 153.544 375.687Z" fill="#495375"/>
</svg>
