<svg width="199" height="262" viewBox="0 0 199 262" fill="none" xmlns="http://www.w3.org/2000/svg">
<path d="M110.875 11.8971C101.817 17.9153 95.4946 27.0947 89.7803 36.3348C84.0659 45.575 78.7164 55.1799 70.8744 62.7179C60.4185 72.7483 46.5583 78.2195 33.9746 85.3927C21.391 92.566 9.05056 102.779 5.95025 116.882C2.91073 130.682 9.35452 144.724 16.9533 156.7C24.5521 168.615 33.6099 180.165 36.771 193.904C38.23 200.287 38.3516 206.913 40.1145 213.174C43.9443 226.73 55.0689 237.126 67.4094 243.813C91.1176 256.7 120.783 257.916 145.464 247.095C170.145 236.275 189.294 213.6 195.86 187.399C202.425 161.259 196.224 132.201 179.568 110.985C172.942 102.536 164.552 94.9976 161.148 84.8456C158.23 76.3349 159.142 67.0948 160.419 58.2194C161.695 49.344 163.154 40.2254 161.331 31.4716C156.285 8.0065 130.327 -0.99048 110.875 11.8971Z" fill="#04E4E9"/>
<path d="M167.957 79.6177C169.173 83.6906 171.787 87.9459 175.981 88.4931C179.081 88.9186 182.182 86.9125 183.884 84.2985C185.586 81.6845 186.194 78.4626 186.498 75.3015C186.984 69.952 186.68 64.2377 183.701 59.7392C180.905 55.4839 172.638 50.9246 169.173 56.6389C165.464 62.8395 166.011 72.9915 167.957 79.6177Z" fill="#04E4E9"/>
<path d="M42.6739 54.7445C37.993 57.7232 32.8259 60.2156 27.2331 60.9451C21.7012 61.6138 15.7437 60.3372 11.61 56.5074C8.02336 53.2247 6.19965 48.3007 6.01728 43.4374C5.83491 38.5742 7.11151 33.7718 9.11759 29.3341C16.4732 12.7991 33.5553 1.00573 51.6101 0.0330846C60.3639 -0.453239 73.8594 4.40999 72.5828 15.4131C71.4278 25.2611 63.2819 35.8994 56.7165 42.9511C52.5827 47.4496 47.8411 51.401 42.6739 54.7445Z" fill="#04E4E9"/>
<path d="M0.843916 82.8395C1.69498 84.9672 3.09316 86.9125 5.03846 88.1283C8.92904 90.5599 14.5218 89.4657 17.5005 86.0006C23.0932 79.4353 18.7163 69.1617 10.9351 66.8516C1.93814 64.1161 -1.83086 76.1526 0.843916 82.8395Z" fill="#04E4E9"/>
<path d="M6.25425 103.995C7.47006 103.387 8.07796 102.049 8.26033 100.712C8.80745 96.8213 3.76184 92.1404 0.843902 96.2742C-1.28376 99.3745 2.30287 106.001 6.25425 103.995Z" fill="#04E4E9"/>
<path d="M74.765 21.625C75.1297 17.1265 78.23 13.1751 82.1814 11.0475C87.1662 8.37269 93.8532 8.73743 98.1085 12.3849C101.452 15.242 103.093 19.8621 102.303 24.1782C101.513 28.4943 98.4125 32.2633 94.3395 33.8439C89.6586 35.6068 85.5249 33.7831 81.148 32.2025C76.9534 30.7436 74.4002 26.0019 74.765 21.625Z" fill="#472948"/>
<path d="M98.1693 12.3835C93.8532 8.67527 87.227 8.37132 82.2422 11.0461C79.385 12.5659 76.9534 15.1191 75.7376 18.0978C77.5005 15.9701 79.7498 14.2072 82.3638 13.1738C87.227 11.2893 93.0629 12.0187 97.0751 15.3622C100.358 18.0978 102.121 22.4747 101.756 26.6692C102.06 25.879 102.303 25.0887 102.485 24.2376C103.154 19.9215 101.452 15.2406 98.1693 12.3835Z" fill="#654059"/>
<path d="M127.896 85.6967C124.978 83.4475 122.546 80.3471 120.723 76.8821C119.567 74.7544 118.656 72.5052 117.926 70.1951C117.865 69.8912 117.805 69.5872 117.805 69.2833C116.224 58.645 114.826 47.4595 108.321 38.8881C101.999 30.5598 90.996 26.0613 80.6008 27.5811C70.2665 29.1008 60.9655 36.5173 57.2573 46.3045C53.5491 56.0918 55.4944 67.8243 62.2421 75.7879C63.3971 77.1253 64.2482 78.645 64.8561 80.2864C64.8561 80.8335 64.9169 81.4414 64.8561 82.0493C64.7953 84.6025 64.3698 87.2773 63.5187 89.8305C62.6069 92.3837 61.3303 94.7545 59.7497 96.7606C58.2299 98.7667 56.467 100.408 54.7649 101.685C56.5886 100.712 58.5947 99.1922 60.2968 97.1861C61.999 95.2408 63.5187 92.7484 64.4306 90.1344C65.2208 87.8244 65.6464 85.3928 65.6464 83.0827C67.1053 90.5599 64.309 99.4961 60.236 106.062C83.154 103.751 106.741 100.834 129.598 98.5235C124.856 94.0858 122.06 88.1283 120.297 81.8061C120.783 82.414 121.209 83.0219 121.756 83.569C123.215 85.1496 124.856 86.487 126.619 87.5204C128.382 88.5539 130.267 89.2833 132.09 89.6481C133.914 90.0128 135.677 90.0128 137.258 89.7697C134.157 89.3441 130.814 88.0067 127.896 85.6967Z" fill="#472948"/>
<path d="M61.2086 43.1434C66.5582 35.5446 75.7375 30.803 85.0384 30.803C94.3394 30.803 103.519 35.5446 108.929 43.1434C113.671 49.8304 115.312 57.9763 117.318 66.0614C115.859 56.4565 114.157 46.6085 108.321 38.9489C101.999 30.6206 90.9959 26.1221 80.6008 27.6419C70.2664 29.1616 60.9654 36.5781 57.2572 46.3653C55.3119 51.4109 54.9472 57.0037 55.9198 62.3532C55.4335 55.6055 57.2572 48.6754 61.2086 43.1434Z" fill="#654059"/>
<path d="M66.1789 262L63.3652 239.817C62.2641 231.322 63.671 222.644 67.3411 214.883L69.7266 209.872L152.732 207L155.851 212.072C161.907 221.911 163.558 233.889 160.5 245.011L155.79 261.939H66.1789V262Z" fill="#454F6B"/>
<path d="M134.34 226.123C142.364 222.962 149.902 218.767 157.44 214.512C156.954 213.6 156.528 212.749 155.981 211.898L152.881 206.852L70.3883 209.648L68.0174 214.633C67.4703 215.788 66.984 216.943 66.5585 218.159C78.4734 225.028 92.0297 230.986 105.708 231.594C115.434 232.08 125.221 229.77 134.34 226.123Z" fill="#422C4F"/>
<path d="M87.7133 237.065L103.397 242.111C107.045 243.266 110.996 243.205 114.583 241.807L134.826 234.147L115.555 245.089C113.853 246.062 112.698 247.764 112.516 249.709L111.239 261.503H107.896L107.409 250.378C107.288 248.19 106.011 246.183 104.066 245.211L87.7133 237.065Z" fill="#422C4F"/>
<path d="M157.258 209.952L148.747 194.512C144.917 187.581 142.546 179.861 141.878 171.958L135.13 94.3289L123.397 94.1466C120.723 103.265 112.455 110.682 102.972 111.897C93.1238 113.174 82.8502 107.703 78.1693 99.0098L70.3881 100.043C72.6982 108.432 72.3942 118.037 70.0842 126.426C68.8076 130.925 66.9231 135.302 65.5857 139.739C64.2483 144.177 63.3972 149.04 64.3699 153.6C64.917 156.153 66.072 158.584 67.7742 160.53C71.1784 164.42 73.4277 169.162 73.9748 174.329L74.7651 181.685C75.6161 189.77 74.2787 197.916 70.8745 205.332L66.6191 214.512C78.2301 221.32 91.604 227.338 104.978 227.946C114.34 228.372 123.641 226.183 132.334 222.718C140.966 219.253 149.173 214.572 157.258 209.952Z" fill="#EBA7AC"/>
<path d="M128.747 130.621C129.233 133.296 134.218 137.672 139.203 141.502L135.981 104.663C127.531 111.35 127.714 125.15 128.747 130.621Z" fill="#E68799"/>
<path d="M141.209 211.107C137.258 212.749 132.698 214.451 127.774 215.788C122.85 217.126 117.562 218.098 112.212 218.524C106.862 218.949 101.452 218.889 96.4065 218.402C91.3609 217.916 86.5584 217.004 82.4247 216.031C86.0721 218.281 90.6922 220.226 95.9202 221.442C101.148 222.658 106.862 223.083 112.577 222.597C118.291 222.11 123.884 220.712 128.808 218.645C133.732 216.639 137.987 213.904 141.209 211.107Z" fill="#E68799"/>
<path d="M137.379 205.028C135.13 205.819 132.577 206.73 129.78 207.581C127.045 208.433 124.066 209.223 121.087 209.831C118.109 210.439 115.069 210.925 112.212 211.229C109.355 211.533 106.619 211.715 104.248 211.837C106.558 212.445 109.355 212.87 112.334 212.931C115.312 212.992 118.473 212.688 121.574 212.08C124.674 211.411 127.714 210.439 130.388 209.223C133.124 207.946 135.495 206.487 137.379 205.028Z" fill="#E68799"/>
<path d="M123.033 106.669C120.601 108.675 117.683 110.682 114.34 112.262C110.996 113.782 107.227 114.876 103.336 115.18C99.5067 115.484 95.6161 115.058 92.0294 114.086C88.4428 113.113 85.2209 111.593 82.5461 110.013C84.613 112.384 87.5917 114.694 91.3 116.213C94.9474 117.733 99.3243 118.524 103.58 118.159C107.896 117.794 112.029 116.335 115.373 114.207C118.777 112.08 121.391 109.344 123.033 106.669Z" fill="#E68799"/>
<path d="M141.878 171.898L141.756 170.195C119.081 170.074 96.4065 171.35 73.914 174.147C73.914 174.208 73.914 174.268 73.914 174.329L74.7043 181.685C75.1906 186.366 74.9474 191.047 74.0356 195.606L93.8533 181.624C93.4277 183.995 93.6709 186.548 94.3396 188.858C95.0083 191.168 96.4673 193.296 98.5949 194.39C100.723 195.545 103.458 195.545 105.403 194.147C106.802 193.113 107.713 191.472 108.078 189.77C108.321 188.676 108.443 187.581 108.443 186.487C108.382 185.819 108.382 185.211 108.443 184.542C108.443 185.211 108.443 185.819 108.443 186.487C108.565 187.885 108.869 189.223 109.172 190.56C109.598 192.566 110.875 194.512 112.82 195.241C115.373 196.153 118.291 194.633 119.811 192.323C121.331 190.074 121.756 187.278 122.121 184.542L144.127 183.63C142.972 179.74 142.242 175.849 141.878 171.898Z" fill="#E68799"/>
<path d="M71.908 136.274H51.8471L46.5583 172.505C46.4976 173.053 46.4368 173.6 46.376 174.147L67.2879 168.189L71.908 136.274Z" fill="#BD6C67"/>
<path d="M103.033 111.897C112.516 110.682 120.783 103.265 123.458 94.1466L108.747 93.9642L102.425 72.6267L84.9778 87.2772L88.2605 97.6116L78.2301 99.0098C82.8502 107.642 93.1846 113.174 103.033 111.897Z" fill="#BD6C67"/>
<path d="M84.917 87.2772L86.6191 92.6876C96.9535 97.5508 104.492 87.0949 102.364 72.6268L84.917 87.2772Z" fill="#472948"/>
<path d="M71.9687 81.3806C70.145 81.6845 68.3213 82.0493 66.4976 81.9277C64.6739 81.8061 62.7894 81.1374 61.5736 79.8C60.3577 78.4626 59.9322 76.2742 60.8441 74.7544C61.7559 73.1739 64.0052 72.566 65.6465 73.417C67.1055 76.1526 69.5371 79.4353 71.9687 81.3806Z" fill="#A64F5A"/>
<path d="M104.188 69.2832C103.519 74.876 102.729 80.8334 98.8988 85.028C95.1906 89.0401 89.1723 90.4383 83.8228 89.4049C78.4732 88.3106 73.7315 85.0888 70.0233 81.0158C63.2148 73.5994 59.5674 63.3866 60.1753 53.3562C68.2604 47.2771 78.8379 44.2376 88.9292 45.0279C88.686 48.3713 90.145 52.0188 91.9687 54.8759C93.7924 57.6723 96.4672 59.9215 99.6283 61.0765C99.3243 62.3531 99.7499 63.6297 100.358 64.7848C100.966 65.9398 102.06 66.9124 103.336 67.338C103.276 65.4535 103.64 63.7513 104.613 62.11C105.586 60.4686 107.227 59.192 109.112 58.9489C110.996 58.7057 113.063 59.6176 113.853 61.3197C114.826 63.265 114.096 65.575 112.941 67.4595C112.03 68.9793 110.753 70.3775 109.112 70.9854C107.409 71.6541 105.282 70.6814 104.188 69.2832Z" fill="#BD6C67"/>
<path d="M111.422 61.0766C110.145 60.7118 108.625 61.1982 107.713 62.1708C106.741 63.1435 106.254 64.4809 106.133 65.879C106.072 66.4261 106.072 66.9733 106.315 67.4596C106.498 67.9459 106.984 68.3714 107.531 68.3714C108.261 68.3714 108.808 67.7635 109.112 67.0948C109.416 66.4869 109.598 65.8182 109.476 65.1496C109.355 64.4809 108.808 63.873 108.078 63.8122C108.443 62.5964 110.084 61.3198 111.422 61.0766Z" fill="#A64F5A"/>
<path d="M89.1115 55.3015C88.0173 53.2954 85.5857 52.0796 83.3364 52.3835C81.0872 52.6875 79.0811 54.4504 78.4732 56.6997C81.6343 56.3349 85.8896 55.6662 89.1115 55.3015Z" fill="#472948"/>
<path d="M67.7134 59.6784C67.2879 59.1313 66.8623 58.5842 66.3152 58.1586C65.7681 57.7331 65.0994 57.4291 64.3699 57.5507C63.3365 57.6723 62.5462 58.645 62.3031 59.6784C62.0599 60.7118 62.2423 61.8061 62.4246 62.8395C63.9444 61.9276 66.1936 60.5902 67.7134 59.6784Z" fill="#472948"/>
<path d="M84.9171 65.7574C86.0586 65.7574 86.984 64.8321 86.984 63.6906C86.984 62.5491 86.0586 61.6237 84.9171 61.6237C83.7756 61.6237 82.8502 62.5491 82.8502 63.6906C82.8502 64.8321 83.7756 65.7574 84.9171 65.7574Z" fill="#472948"/>
<path d="M69.2939 68.0066C69.537 69.1008 69.1115 70.1951 68.3212 70.3774C67.531 70.5598 66.6191 69.8303 66.3759 68.6753C66.1328 67.5811 66.5583 66.4869 67.3486 66.3045C68.1389 66.1829 68.9899 66.9124 69.2939 68.0066Z" fill="#472948"/>
<path d="M83.3972 73.7209C80.3577 75.1191 77.1966 76.2133 73.9747 77.0036C75.6161 77.7939 77.5614 78.0978 79.2635 77.5507C81.0264 76.9428 82.5462 75.3015 83.3972 73.7209Z" fill="#A64F5A"/>
<path d="M95.2513 73.3562C90.3273 76.6997 84.9777 79.3137 79.385 81.1982C81.999 83.0827 86.072 82.8395 88.8075 81.1982C91.6039 79.6176 93.7923 76.2742 95.2513 73.3562Z" fill="white"/>
<path d="M93.7316 80.7119C91.7255 83.0827 88.8684 84.6025 85.7681 85.028C87.2878 85.6967 89.2331 85.8183 90.7529 85.028C92.2726 84.2377 93.3669 82.3532 93.7316 80.7119Z" fill="#A64F5A"/>
<path d="M110.206 72.0188C110.206 73.0523 109.355 73.9641 108.261 73.9641C107.227 73.9641 106.315 73.1131 106.315 72.0188C106.315 70.9854 107.166 70.0735 108.261 70.0735C109.355 70.0735 110.206 70.9246 110.206 72.0188Z" fill="#E4E4E0"/>
<path d="M108.625 71.7757C108.625 72.2013 108.261 72.566 107.835 72.566C107.409 72.566 107.045 72.2013 107.045 71.7757C107.045 71.3502 107.409 70.9855 107.835 70.9855C108.261 70.9855 108.625 71.3502 108.625 71.7757Z" fill="white"/>
<path d="M95.4945 66.2437C95.9808 67.4595 94.4611 69.2833 92.0294 70.3167C89.5978 71.2893 87.227 71.107 86.7407 69.8912C86.2544 68.6753 87.7741 66.8516 90.2057 65.8182C92.5766 64.8456 94.9474 65.0279 95.4945 66.2437Z" fill="#A64F5A"/>
<path d="M71.1177 74.1465C71.3609 75.4839 70.6314 76.6997 69.3548 77.0037C68.139 77.2469 66.9232 76.3958 66.68 75.0584C66.4368 73.721 67.1663 72.5052 68.4429 72.2013C69.5979 71.9581 70.8138 72.8092 71.1177 74.1465Z" fill="#A64F5A"/>
<path d="M70.3881 100.043C62.6069 101.077 56.3455 106.973 54.7649 114.633L50.3272 136.274H73.9747C73.9747 103.873 70.3881 100.043 70.3881 100.043Z" fill="#EBA7AC"/>
<path d="M159.568 128.372L165.161 158.584C166.924 168.068 159.811 176.822 150.206 177.065L89.9022 178.645L121.696 159.618L140.601 156.578L138.413 131.654L159.568 128.372Z" fill="#BD6C67"/>
<path d="M129.355 169.284C128.321 169.891 127.166 171.472 127.106 172.688C127.045 173.843 127.653 175.059 128.625 175.727C129.841 176.578 131.482 176.578 133.002 176.518C138.291 176.274 144.005 175.606 148.017 172.141C151.361 169.284 153.124 164.663 152.516 160.347C151.908 155.97 148.99 152.019 144.978 150.195L144.309 143.995C150.571 143.387 157.318 140.651 161.452 138.706L159.568 128.372L138.413 131.594L140.601 156.518L121.695 159.557L89.841 178.645L97.7438 178.463L120.662 168.372C124.005 169.405 129.355 169.284 129.355 169.284Z" fill="#A64F5A"/>
<path d="M98.1086 185.271C97.987 185.758 97.9262 186.244 97.8654 186.73C97.6222 188.068 97.6222 189.527 98.1086 190.803C98.8381 192.506 100.601 193.661 102.425 193.782C104.248 193.904 106.072 192.992 107.227 191.533C108.443 189.952 108.808 188.129 108.99 186.183C105.586 184.785 101.756 184.481 98.1086 185.271Z" fill="#CEB49D"/>
<path d="M101.209 178.341C99.5674 180.469 98.6556 182.718 98.1693 185.271C101.817 184.481 105.646 184.724 109.112 186.123C109.355 183.448 109.172 180.53 110.449 178.098L101.209 178.341Z" fill="#967F92"/>
<path d="M111.969 185.575C111.908 185.94 111.786 186.366 111.726 186.73C111.482 188.068 111.482 189.527 111.969 190.803C112.698 192.505 114.461 193.66 116.285 193.782C118.109 193.904 119.932 192.992 121.087 191.533C122.486 189.77 122.789 187.581 122.972 185.332C119.446 184.238 115.555 184.36 111.969 185.575Z" fill="#CEB49D"/>
<path d="M115.373 177.977C113.671 180.165 112.577 182.84 111.969 185.515C115.555 184.36 119.446 184.238 123.093 185.271C123.276 182.657 123.337 179.983 124.492 177.733L115.373 177.977Z" fill="#967F92"/>
<path d="M135.13 94.2682L139.385 94.329C146.68 94.4505 153.063 99.1314 155.373 106.001L164.309 132.749C154.765 138.524 136.406 138.767 136.406 138.767L132.212 123.995C130.145 116.821 130.267 109.223 132.577 102.11L135.13 94.2682Z" fill="#EBA7AC"/>
<path d="M150.996 159.132C150.814 154.937 148.808 149.831 145.1 147.946L143.093 149.283C145.343 151.776 146.376 155.606 145.464 158.828C144.552 162.049 141.878 164.663 138.717 165.575C137.865 165.818 137.014 165.94 136.103 166.001C138.23 167.946 139.568 170.803 139.628 173.721C142.06 172.992 144.309 171.958 146.255 170.256C149.416 167.521 151.179 163.265 150.996 159.132Z" fill="#967F92"/>
<path d="M136.103 166.001C135.008 166.122 133.853 166.122 132.759 166.244C130.753 166.426 128.686 166.913 127.288 168.25C125.829 169.587 125.282 172.08 126.558 173.6C127.774 175.119 130.024 175.119 131.969 174.998C134.583 174.815 137.197 174.451 139.689 173.721C139.568 170.803 138.23 167.946 136.103 166.001Z" fill="#645B79"/>
<path d="M147.349 155.302C147.045 154.39 146.255 153.66 145.343 153.356C145.89 155.119 145.951 157.065 145.464 158.828C145.403 159.071 145.343 159.314 145.221 159.496C145.586 159.436 145.89 159.253 146.194 159.071C147.288 158.22 147.774 156.639 147.349 155.302Z" fill="#645B79"/>
<path d="M147.227 164.42C146.984 165.028 146.923 165.697 146.619 166.305C146.011 167.399 144.674 167.946 143.884 168.98C143.215 169.891 143.154 171.107 143.58 172.141C144.491 171.654 145.403 171.046 146.194 170.317C148.564 168.25 150.206 165.332 150.753 162.232C149.294 162.171 147.774 163.022 147.227 164.42Z" fill="#645B79"/>
<path d="M144.005 165.94C144.248 165.879 144.431 165.758 144.613 165.636C145.16 165.211 147.409 162.779 145.951 162.293C144.795 161.928 143.397 163.691 143.093 164.542C142.972 164.967 142.972 165.514 143.337 165.758C143.519 166.001 143.762 166.001 144.005 165.94Z" fill="#645B79"/>
<path d="M47.6525 160.712C46.923 161.259 46.2543 161.867 45.6464 162.536C44.3698 164.056 43.5187 166.001 43.7011 167.946C43.8835 169.891 45.2816 171.776 47.2269 172.201C48.5643 172.505 49.9017 172.08 51.0567 171.411C52.2117 170.743 53.1844 169.77 54.2178 168.919C54.7649 168.432 55.3121 167.946 55.92 167.521C54.3394 164.177 51.2391 161.685 47.6525 160.712Z" fill="#CEB49D"/>
<path d="M70.6314 137.49C66.9232 141.928 64.6131 147.521 64.1876 153.235C59.3851 154.39 54.6435 156.518 50.3882 158.949C49.4763 159.496 48.5644 160.043 47.7134 160.712C51.2392 161.624 54.4003 164.177 55.9809 167.521C60.8441 163.569 66.4976 160.53 72.5159 158.706C73.8533 151.776 72.8198 144.177 70.6314 137.49Z" fill="#967F92"/>
<path d="M70.6312 137.49C66.923 141.928 64.613 147.521 64.1875 153.235C62.6069 153.6 61.0871 154.086 59.5674 154.633C59.5674 155.666 59.9929 156.7 60.7224 157.49C61.3911 158.159 62.303 158.584 63.2756 158.645C64.4914 158.767 65.4641 159.557 65.9504 160.651C66.0112 160.834 66.072 160.955 66.1328 161.138C68.1996 160.165 70.3273 159.375 72.5157 158.706C73.8531 151.776 72.8197 144.177 70.6312 137.49Z" fill="#645B79"/>
<path d="M43.5188 138.402C42.9109 139.496 42.1814 140.53 41.6951 141.745C41.2087 142.9 41.0264 144.238 41.4519 145.454C41.999 146.913 43.3364 147.946 44.8562 148.372C47.4702 149.223 50.4489 148.615 52.7589 147.095C55.069 145.575 56.7103 143.204 57.7437 140.651C58.7772 138.098 59.1419 135.362 59.3243 132.566C59.3851 131.654 59.3851 130.742 58.9596 129.952C58.2301 128.736 56.5887 128.493 55.1905 128.432C53.4884 128.372 51.7863 128.372 50.0841 128.554C48.8683 128.675 47.0446 128.493 46.6799 129.77C45.768 132.809 45.0993 135.666 43.5188 138.402Z" fill="#472948"/>
<path d="M82.1207 163.995C78.8988 160.773 75.0082 157.004 72.5158 153.174C70.0234 149.344 68.3213 144.42 68.5036 139.861C65.7681 137.125 62.9109 134.147 59.9322 131.715C59.2027 131.168 58.23 131.046 57.3182 131.289C56.4063 131.472 55.6161 131.897 54.765 132.262C50.8744 133.843 45.9504 133.478 42.1814 131.654C38.8987 133.356 35.4944 132.87 32.7589 130.864C30.0233 128.858 28.5643 125.636 26.9838 122.718C31.1783 120.165 35.5552 117.125 39.7498 114.511C39.8713 108.493 44.4306 102.84 50.3273 101.441C56.1632 100.043 62.7893 102.961 65.6465 108.25C68.686 113.903 73.2453 119.253 79.142 121.745C85.5249 124.481 92.759 124.603 99.6891 123.934C106.619 123.326 113.489 121.989 120.479 121.989C127.47 121.989 134.704 123.508 140.115 127.885C145.525 132.262 147.835 141.381 145.221 147.824L134.583 155.119L110.753 155.788L82.1207 163.995Z" fill="#967F92"/>
<path d="M84.1875 129.77C85.3425 131.715 87.9565 132.08 89.9018 133.174C92.455 134.572 94.0963 137.247 95.6769 139.739C97.2574 142.171 99.2635 144.724 102.06 145.514C105.221 146.426 108.625 144.907 111.057 142.657C113.488 140.408 115.191 137.551 117.318 134.998C119.385 132.445 122.121 130.134 125.343 129.648C126.923 129.405 128.565 129.648 130.145 129.223C132.09 128.615 133.61 126.852 133.914 124.846C133.914 124.724 133.914 124.542 133.975 124.42C129.72 122.718 125.039 122.049 120.419 122.049C113.428 122.049 106.558 123.387 99.6283 123.995C94.765 124.42 89.841 124.542 85.0994 123.63C84.7346 124.177 84.3699 124.785 84.1267 125.454C83.458 126.852 83.3972 128.493 84.1875 129.77Z" fill="#645B79"/>
<path d="M85.0386 138.402C84.8562 139.314 85.1601 140.226 85.7073 141.016C86.1936 141.806 86.9231 142.414 87.6525 142.961C88.5036 143.691 89.537 144.359 90.5705 144.238C91.6039 144.116 92.3942 143.144 92.6374 142.11C92.8197 141.077 92.5158 139.983 91.9687 139.132C90.6313 137.125 85.768 134.39 85.0386 138.402Z" fill="#645B79"/>
<path d="M143.762 132.688C144.37 134.998 144.127 137.551 142.972 139.679C141.27 142.779 137.379 145.15 133.793 144.967C135.008 143.144 136.407 141.077 137.622 139.314C132.212 140.59 127.106 142.961 122.425 146.001C122.85 144.056 123.093 141.685 123.519 139.739C117.562 143.022 112.151 148.372 108.99 154.39L90.2058 159.253C87.7742 159.922 85.0994 158.949 83.7012 156.882C82.5462 155.18 81.8775 153.174 82.1207 151.168L72.6374 153.417C75.1298 157.186 78.8988 160.834 82.0599 163.995L110.571 155.91L134.4 155.241L145.039 147.946C146.984 143.265 146.315 137.308 143.762 132.688Z" fill="#645B79"/>
<path d="M28.1996 125.15C29.9118 125.15 31.2999 124.224 31.2999 123.083C31.2999 121.941 29.9118 121.016 28.1996 121.016C26.4873 121.016 25.0992 121.941 25.0992 123.083C25.0992 124.224 26.4873 125.15 28.1996 125.15Z" fill="#472948"/>
<path d="M49.537 114.937C50.7456 114.937 51.7254 113.957 51.7254 112.748C51.7254 111.54 50.7456 110.56 49.537 110.56C48.3283 110.56 47.3485 111.54 47.3485 112.748C47.3485 113.957 48.3283 114.937 49.537 114.937Z" fill="#472948"/>
<path d="M42.1206 131.654C45.0385 130.013 49.537 126.122 49.537 126.122C48.4428 129.344 45.4033 131.837 42.1206 131.654Z" fill="#472948"/>
<path d="M58.23 112.444C58.534 115.302 59.3851 118.159 59.1419 121.077C58.8379 125.028 56.6495 128.554 54.8866 132.141C53.1236 135.727 51.7863 139.922 53.306 143.63C54.765 147.156 58.7164 149.283 62.4854 149.101C66.2544 148.919 69.7802 146.609 71.9687 143.508C74.1571 140.408 75.069 136.518 75.1298 132.748C75.1906 128.979 74.4611 125.21 73.4884 121.502C72.5158 117.916 71.3608 114.268 69.3547 111.168C67.7133 108.615 64.7954 105.393 61.6343 104.724C57.8653 103.873 57.9261 110.013 58.23 112.444Z" fill="#59395B"/>
<path d="M144.552 150.195C145.099 149.527 145.647 148.615 145.099 147.946C144.795 147.581 144.309 147.521 143.884 147.581C143.458 147.642 143.033 147.885 142.668 148.068C140.297 149.405 137.987 150.742 135.738 152.323C135.312 152.627 134.826 152.992 134.4 153.296C134.826 152.931 135.312 152.627 135.738 152.323C138.534 150.256 141.087 147.946 143.397 145.332C143.762 144.967 144.066 144.542 144.248 144.056C144.431 143.569 144.431 142.961 144.066 142.597C143.701 142.171 143.154 142.11 142.607 142.171C142.121 142.293 141.634 142.536 141.209 142.84C138.109 144.724 134.826 146.487 131.726 148.372C134.157 146.062 136.528 143.812 138.96 141.502C139.689 140.773 140.479 139.8 139.993 138.888C139.75 138.463 139.264 138.159 138.777 138.159C137.865 138.037 137.075 138.524 136.346 138.949C131.482 141.928 126.68 145.028 122.364 148.736L124.552 142.597C124.917 141.563 125.099 140.53 125.16 139.435C125.221 138.463 124.005 137.916 123.336 138.645C118.352 143.752 113.792 149.709 110.449 156.031L67.2269 168.311L46.315 174.268C46.0718 179.132 47.8956 183.873 51.3606 187.399C56.771 192.809 64.9777 194.025 71.7254 190.439L118.777 165.454C127.166 165.454 135.92 162.718 142.181 157.125C142.546 156.822 142.911 156.457 143.033 156.031C143.215 155.606 143.093 154.998 142.729 154.755C142.303 154.451 141.695 154.694 141.209 154.937C139.507 155.727 137.379 156.457 135.677 157.308C139.081 155.423 142.121 153.053 144.552 150.195Z" fill="#BD6C67"/>
<path d="M63.9442 170.56C61.8166 169.709 59.5065 169.405 57.1965 169.648C57.0749 169.952 56.8925 170.256 56.771 170.56C55.7375 172.809 55.1296 175.423 55.9807 177.733C56.6494 179.557 58.2907 180.955 60.1144 181.442C61.9989 181.928 64.0658 181.442 65.5248 180.165C67.2877 178.645 68.0172 176.335 68.9898 174.208C67.7132 172.627 65.9503 171.35 63.9442 170.56Z" fill="#CEB49D"/>
<path d="M82.1206 151.168C79.385 148.372 75.3121 147.277 71.4823 146.548C70.5704 150.378 70.4488 154.39 71.1783 158.28C65.2817 159.8 59.9929 164.238 57.1965 169.648C59.4458 169.405 61.8166 169.709 63.9443 170.56C65.8896 171.35 67.6525 172.627 69.0507 174.208C69.1722 173.904 69.2938 173.6 69.4762 173.356C71.1175 170.074 74.2179 167.46 77.8045 165.697C80.1145 164.542 81.6343 162.171 81.5127 159.557C81.4519 156.761 81.6951 153.964 82.1206 151.168Z" fill="#967F92"/>
</svg>
