<svg width="54" height="54" viewBox="0 0 54 54" fill="none" xmlns="http://www.w3.org/2000/svg">
<circle cx="27" cy="27" r="27" transform="rotate(90 27 27)" fill="#E6FEFF"/>
<circle cx="27" cy="27" r="26" transform="rotate(90 27 27)" stroke="#00B6BA" stroke-opacity="0.3" stroke-width="2"/>
<path d="M34.2217 23.0593C34.0223 22.4721 33.6438 21.9622 33.1394 21.6013C32.6351 21.2405 32.0303 21.0469 31.4101 21.0478H29.0287V14L28.0278 14.143C25.7575 14.4673 23.989 15.6178 22.7721 17.5625C21.8947 18.9644 21.4868 20.5108 21.2975 21.6674C19.9907 22.6729 18.8538 24.0573 17.9142 25.7884C17.1224 27.2471 16.467 28.9568 15.966 30.87C15.1195 34.1027 15.0049 36.7841 15.0004 36.8967L15 40H16.7533V36.9511C16.7753 36.5001 17.3274 26.6294 22.6188 22.8709L22.9289 22.6505L22.9799 22.2735C23.2438 20.3211 24.1556 17.0966 27.275 16.1054V22.8014H31.4101C31.6637 22.8006 31.9111 22.8794 32.1175 23.0266C32.3239 23.1738 32.479 23.382 32.5609 23.622C33.26 25.6856 34.4613 28.2678 36.3334 29.4813L35.7703 31.5927C35.5744 32.3456 35.1286 33.0098 34.506 33.4764C33.8834 33.943 33.1208 34.1844 32.3431 34.1612C30.7721 34.114 29.1369 34.319 27.4829 34.7701L26.8366 34.9462V40H28.5903V36.2992C29.8021 36.0129 31.0456 35.8834 32.2904 35.914C33.4627 35.9463 34.6115 35.5817 35.5506 34.8794C36.4898 34.177 37.1642 33.1781 37.4645 32.0445L38.401 28.5328L37.7036 28.2339C36.3993 27.675 35.1628 25.8372 34.2217 23.0593Z" fill="#00B6BA"/>
</svg>
