<svg width="54" height="54" viewBox="0 0 54 54" fill="none" xmlns="http://www.w3.org/2000/svg">
<circle cx="27" cy="27" r="27" transform="rotate(90 27 27)" fill="#E6FEFF"/>
<circle cx="27" cy="27" r="26" transform="rotate(90 27 27)" stroke="#00B6BA" stroke-opacity="0.3" stroke-width="2"/>
<path d="M35.0092 20.3062L31.581 15.3107C31.3269 14.9412 30.9892 14.6381 30.5959 14.4266C30.2025 14.215 29.7649 14.1011 29.3192 14.0942L22.8134 14H22.8C19.4412 14 16.8642 14.5667 15.2044 17.3327C13.6592 19.9073 13 24.293 13 31.997V32.9385H15.1325L13.7597 40H15.662L17.0347 32.9385H17.6667C19.191 32.9523 20.6596 32.3606 21.7551 31.2913C22.7456 30.3353 23.46 29.0274 23.8212 27.5091L23.8245 27.4955L25.4253 19.7571H23.5184L22.003 27.0827C21.5415 29.0058 20.1613 31.0555 17.6667 31.0555H14.8702C14.9209 24.3903 15.5224 20.4386 16.8013 18.3075C17.8746 16.5186 19.4435 15.8836 22.7935 15.8828L29.2923 15.9769C29.4409 15.9792 29.5868 16.0172 29.7179 16.0877C29.849 16.1582 29.9616 16.2592 30.0463 16.3824L33.9242 22.0327L39.1333 22.9086V23.9065L38.2646 28.5801C38.0083 29.9595 37.57 30.6543 35.7727 30.8721L28.4049 32.1437L28.3562 40H30.2229L30.2618 33.7334L36.0193 32.7389C37.3236 32.5771 38.2859 32.1531 38.9608 31.4429C39.5377 30.8358 39.8888 30.0601 40.0994 28.9272L41 24.0815V21.3134L35.0092 20.3062Z" fill="#00B6BA"/>
</svg>
