<svg width="37" height="37" viewBox="0 0 37 37" fill="none" xmlns="http://www.w3.org/2000/svg">
<path fill-rule="evenodd" clip-rule="evenodd" d="M26 0C25.4477 0 25 0.447715 25 1C25 1.55228 25.4477 2 26 2H31C32.0609 2 33.0783 2.42143 33.8284 3.17157C34.5786 3.92172 35 4.93913 35 6V11C35 11.5523 35.4477 12 36 12C36.5523 12 37 11.5523 37 11V6C37 4.4087 36.3679 2.88258 35.2426 1.75736C34.1174 0.632141 32.5913 0 31 0H26ZM37 26C37 25.4477 36.5523 25 36 25C35.4477 25 35 25.4477 35 26V31C35 32.0609 34.5786 33.0783 33.8284 33.8284C33.0783 34.5786 32.0609 35 31 35H26C25.4477 35 25 35.4477 25 36C25 36.5523 25.4477 37 26 37H31C32.5913 37 34.1174 36.3679 35.2426 35.2426C36.3679 34.1174 37 32.5913 37 31V26ZM1 25C1.55228 25 2 25.4477 2 26V31C2 32.0609 2.42143 33.0783 3.17157 33.8284C3.92172 34.5786 4.93913 35 6 35H11C11.5523 35 12 35.4477 12 36C12 36.5523 11.5523 37 11 37H6C4.4087 37 2.88258 36.3679 1.75736 35.2426C0.632141 34.1174 0 32.5913 0 31V26C0 25.4477 0.447715 25 1 25ZM3.17157 3.17157C3.92172 2.42143 4.93913 2 6 2H11C11.5523 2 12 1.55228 12 1C12 0.447715 11.5523 0 11 0H6C4.4087 0 2.88258 0.632141 1.75736 1.75736C0.632141 2.88258 0 4.4087 0 6V11C0 11.5523 0.447715 12 1 12C1.55228 12 2 11.5523 2 11V6C2 4.93913 2.42143 3.92172 3.17157 3.17157Z" fill="#09D4D9"/>
<path d="M15.9143 15.5708C15.9143 15.5708 15.1785 16.077 14.7942 15.843C14.7027 15.7874 14.6231 15.7142 14.5599 15.6278C14.4967 15.5414 14.4512 15.4434 14.4259 15.3393C14.4006 15.2353 14.396 15.1273 14.4124 15.0215C14.4289 14.9157 14.466 14.8142 14.5217 14.7227C14.6341 14.538 14.8153 14.4056 15.0254 14.3545C15.1294 14.3292 15.2374 14.3246 15.3432 14.341C15.449 14.3575 15.5505 14.3946 15.642 14.4502C16.0264 14.6846 15.9143 15.5708 15.9143 15.5708Z" fill="#09D4D9"/>
<path d="M17.3829 18.382H19.8881C19.9681 18.3821 20.0462 18.4056 20.1129 18.4497C20.1796 18.4939 20.2318 18.5567 20.2631 18.6303L20.7351 19.7406L19.8465 20.2077C19.7884 20.2382 19.7238 20.2542 19.6582 20.2544C19.5926 20.2546 19.5279 20.2389 19.4697 20.2087C19.4114 20.1786 19.3613 20.1348 19.3236 20.0811C19.2859 20.0274 19.2617 19.9654 19.253 19.9004" stroke="#09D4D9" stroke-width="2" stroke-miterlimit="10" stroke-linecap="round" stroke-linejoin="round"/>
<path d="M18.0559 19.9134C18.045 19.9732 18.021 20.0298 17.9855 20.0791C17.95 20.1284 17.9039 20.1692 17.8506 20.1984C17.7973 20.2276 17.7381 20.2445 17.6774 20.2478C17.6168 20.2512 17.5561 20.241 17.4999 20.2179L16.5571 19.8299L17.0014 18.6466C17.0305 18.5689 17.0826 18.5019 17.1508 18.4547C17.219 18.4074 17.2999 18.3821 17.3829 18.382" stroke="#09D4D9" stroke-width="2" stroke-miterlimit="10" stroke-linecap="round" stroke-linejoin="round"/>
<path d="M16.2933 23.6896C16.2933 23.6896 16.0007 27.2737 17.5194 27.74C18.5976 28.0714 19.6186 27.9573 19.9904 27.6381C20.3471 27.3324 21.0632 25.8145 20.7351 23.6896" stroke="#09D4D9" stroke-miterlimit="10" stroke-linecap="round" stroke-linejoin="round"/>
<path d="M21.9298 15.5708C21.9298 15.5708 22.6656 16.077 23.0499 15.8431C23.2346 15.7306 23.3671 15.5494 23.4182 15.3393C23.4693 15.1292 23.4349 14.9074 23.3224 14.7227C23.21 14.538 23.0288 14.4056 22.8187 14.3545C22.6086 14.3034 22.3868 14.3378 22.2021 14.4502C21.8173 14.6846 21.9298 15.5708 21.9298 15.5708Z" fill="#09D4D9"/>
<path d="M14.3323 20.7601C14.1387 22.2283 15.2429 23.1039 16.0785 23.5482C16.3165 23.676 16.5864 23.7318 16.8555 23.7089C17.1246 23.6859 17.3812 23.5852 17.594 23.419L18.6457 22.594L19.6981 23.419C19.9109 23.5851 20.1674 23.6859 20.4364 23.7089C20.7054 23.7319 20.9753 23.6762 21.2132 23.5486C22.0488 23.1039 23.1535 22.2279 22.9599 20.7597" stroke="#09D4D9" stroke-miterlimit="10" stroke-linecap="round" stroke-linejoin="round"/>
<path d="M12.0191 14.8566C11.0751 16.9599 11.8125 20.1658 12.068 21.1241C12.1178 21.3103 12.0986 21.5056 12.0163 21.6796L11.2059 23.3892C10.952 23.9252 10.2305 24.0222 9.84859 23.5685C8.54708 22.0253 6.35984 18.9258 7.17873 16.7675C10.0577 9.18183 13.6471 9.37219 13.6471 9.37219C14.8068 8.58387 18.9885 6.54417 23.7608 9.72885C23.7608 9.72885 27.2793 9.02857 29.8497 16.6326C30.5847 18.808 28.4516 21.8773 27.1795 23.4173C26.8 23.8767 26.0724 23.7813 25.8172 23.2428L25.0122 21.5451C24.9294 21.372 24.911 21.175 24.9604 20.9896C25.2164 20.0313 25.9534 16.8254 25.0093 14.7221" stroke="#09D4D9" stroke-width="1.5" stroke-miterlimit="10" stroke-linecap="round" stroke-linejoin="round"/>
<path d="M25.3399 22.2369C25.3399 22.2369 24.0857 24.9764 22.1589 25.6082" stroke="#09D4D9" stroke-width="1.5" stroke-miterlimit="10" stroke-linecap="round" stroke-linejoin="round"/>
<path d="M11.81 22.4431C11.81 22.4431 13.0647 24.9222 14.9914 25.554" stroke="#09D4D9" stroke-width="1.5" stroke-miterlimit="10" stroke-linecap="round" stroke-linejoin="round"/>
<path d="M18.6461 22.594V21.3589" stroke="#09D4D9" stroke-miterlimit="10" stroke-linecap="round" stroke-linejoin="round"/>
</svg>
