<svg width="35" height="36" viewBox="0 0 35 36" fill="none" xmlns="http://www.w3.org/2000/svg">
<path fill-rule="evenodd" clip-rule="evenodd" d="M16.8207 0C26.0954 0 33.6396 7.54417 33.6396 16.8189C33.6396 21.1947 31.9603 25.1857 29.2123 28.181L34.6196 33.5769C35.1257 34.083 35.1274 34.9016 34.6213 35.4077C34.3692 35.6633 34.0358 35.7894 33.7042 35.7894C33.3743 35.7894 33.0427 35.6633 32.7888 35.4111L27.3163 29.9539C24.4375 32.2593 20.7874 33.6396 16.8207 33.6396C7.5459 33.6396 0 26.0937 0 16.8189C0 7.54417 7.5459 0 16.8207 0ZM16.8207 2.59072C8.97425 2.59072 2.59072 8.97252 2.59072 16.8189C2.59072 24.6654 8.97425 31.0489 16.8207 31.0489C24.6654 31.0489 31.0489 24.6654 31.0489 16.8189C31.0489 8.97252 24.6654 2.59072 16.8207 2.59072Z" fill="#09D4D9"/>
</svg>
