<svg width="728" height="966" viewBox="0 0 728 966" fill="none" xmlns="http://www.w3.org/2000/svg">
<g filter="url(#filter0_d_206_3)">
<path d="M4 0H724V598C724 796.822 562.823 958 364 958V958C165.177 958 4 796.823 4 598V0Z" fill="#CCF8F9"/>
<path d="M377.617 640.923C361.476 652.011 344.946 663.099 326.082 668.156C316.358 670.685 305.468 671.463 297.105 666.017C287.187 659.597 284.075 645.786 286.604 634.309C289.132 622.832 296.133 612.716 302.939 602.99L368.283 572.45L377.617 640.923Z" fill="#EBA58E"/>
<path d="M357.587 583.732C320.053 692.667 295.938 867.351 295.938 867.351L360.309 870.658L406.594 577.118L357.587 583.732Z" fill="#468097"/>
<path d="M380.146 561.751C351.752 662.321 321.803 812.106 321.803 812.106L324.721 827.084L321.803 844.008H384.619L406.4 577.507L380.146 561.751Z" fill="white"/>
<path d="M380.146 561.751C369.061 600.85 357.781 647.537 348.057 689.749C358.948 685.664 369.45 680.606 379.368 674.576L364.977 798.1C364.393 802.185 360.893 805.492 356.809 805.492C354.086 805.492 351.363 806.853 349.808 809.188L346.502 814.44C345.529 815.802 344.168 816.969 342.612 817.552L329.971 822.415H350.78C356.225 822.415 361.087 826.306 362.06 831.753L364.199 843.619H384.813L406.594 577.118L380.146 561.751Z" fill="#E4E4E0"/>
<path fill-rule="evenodd" clip-rule="evenodd" d="M541.032 911.537C488.757 941.116 428.35 958 364 958C346.983 958 330.242 956.819 313.854 954.535L327.054 843.813V844.008H533.002L538.253 884.858C539.454 893.801 540.38 902.652 541.032 911.537Z" fill="#454F6B"/>
<path d="M538.058 880.773L533.197 843.813H364.199L349.419 891.083L538.058 880.773Z" fill="#422C4F"/>
<path d="M406.789 398.738L415.54 423.054L474.66 405.352L451.907 339.408L406.789 398.738Z" fill="#F2C9AD"/>
<path d="M451.907 339.408L406.789 398.738L412.817 415.662C445.294 406.519 452.49 350.301 451.907 339.408Z" fill="#472948"/>
<path d="M304.106 258.29C303.134 268.795 303.134 279.688 306.051 289.804C308.968 300.113 314.803 309.645 323.359 315.675C322.193 296.806 323.165 277.159 326.082 258.485C319.664 260.625 310.524 259.847 304.106 258.29Z" fill="#6A3649"/>
<path d="M456.379 276.576C451.129 256.345 438.877 237.671 421.18 226.388C403.483 215.3 380.34 212.188 361.087 220.358C340.667 229.111 326.276 249.148 321.22 270.934C315.969 292.527 319.081 315.481 325.499 336.879C331.722 357.304 342.029 377.34 358.754 390.568C375.478 403.796 399.982 408.853 418.846 398.543C429.153 392.902 436.932 383.37 442.183 372.866C456.574 344.854 464.353 307.311 456.379 276.576Z" fill="#F2C9AD"/>
<path d="M428.375 206.352C427.986 206.936 427.792 207.519 427.403 208.103C427.986 207.714 428.181 207.13 428.375 206.352Z" fill="white"/>
<path d="M416.512 299.919C412.817 293.5 405.816 289.22 398.621 288.636C391.231 288.247 383.841 291.749 379.368 297.585C390.842 296.223 405.038 297.779 416.512 299.919Z" fill="#6A3649"/>
<path d="M344.362 301.086C343.196 299.53 341.834 297.779 340.278 296.417C338.723 295.056 336.778 294.083 334.639 294.083C331.138 294.083 328.027 296.806 326.665 300.113C325.304 303.42 325.109 306.922 325.109 310.423C330.555 306.338 337.945 302.448 344.362 301.086Z" fill="#6A3649"/>
<path d="M408.344 319.76C408.733 317.815 407.956 315.092 406.205 312.952C404.455 310.812 401.732 309.256 398.621 309.062C395.509 308.867 392.592 310.229 390.647 312.174C388.703 314.119 387.73 316.648 387.925 318.788C390.453 315.481 394.537 313.341 398.426 313.536C402.316 313.73 406.205 316.259 408.344 319.76Z" fill="#472948"/>
<path d="M346.696 325.207C346.113 323.262 344.557 321.122 342.807 319.566C341.056 318.01 338.723 317.232 336.972 318.01C335.222 318.593 334.055 320.539 333.666 322.873C333.277 325.207 333.861 327.736 334.833 329.487C334.833 325.985 336.389 322.873 338.528 322.095C340.862 321.122 344.168 322.484 346.696 325.207Z" fill="#472948"/>
<path d="M380.924 343.882C374.7 344.465 368.477 345.049 362.254 345.632C364.199 349.134 367.505 351.857 371.394 351.468C375.478 351.274 379.368 347.772 380.924 343.882Z" fill="#EBA58E"/>
<path d="M417.874 351.274C401.732 359.833 384.23 366.058 366.338 369.559C373.534 375.589 382.09 381.231 391.425 381.62C399.01 382.009 406.594 378.702 411.65 373.255C416.707 367.614 419.04 358.666 417.874 351.274Z" fill="white"/>
<path d="M416.901 381.231C411.456 384.927 405.622 387.845 399.204 389.79C401.538 390.568 404.26 391.93 406.789 391.93C409.317 391.93 411.845 390.957 413.79 389.401C415.929 387.456 417.29 383.76 416.901 381.231Z" fill="#EBA58E"/>
<path d="M420.207 344.076C430.196 344.076 438.293 340.418 438.293 335.906C438.293 331.394 430.196 327.736 420.207 327.736C410.219 327.736 402.121 331.394 402.121 335.906C402.121 340.418 410.219 344.076 420.207 344.076Z" fill="#EBA58E"/>
<path d="M350.586 338.824C351.753 341.742 349.224 345.632 344.946 347.578C340.473 349.523 336 348.745 334.639 346.022C333.278 342.909 335.806 339.019 340.279 337.073C344.557 335.128 349.224 335.906 350.586 338.824Z" fill="#EBA58E"/>
<path d="M403.677 269.573C410.095 290.776 429.737 298.946 441.405 298.752L458.713 288.636C458.13 284.551 457.352 280.466 456.379 276.576C454.046 267.433 450.156 258.485 445.1 250.509C403.871 254.4 362.837 260.236 321.998 268.017C321.803 268.989 321.415 269.962 321.22 270.934C320.053 275.992 319.275 281.244 318.886 286.497C348.057 287.275 377.229 281.439 403.677 269.573Z" fill="#EBA58E"/>
<path d="M456.769 328.903C447.045 322.289 441.016 310.618 441.405 298.752C425.653 294.278 411.456 281.244 407.956 265.293C381.118 274.825 352.531 278.326 323.943 278.716C314.803 278.91 305.468 278.521 297.105 275.02C288.549 271.713 281.159 264.71 279.214 255.956C276.102 242.339 286.604 229.306 297.689 220.941C333.083 194.097 383.646 188.845 423.708 207.908C421.958 200.905 421.763 194.875 420.013 188.066C423.902 189.428 427.403 192.346 428.764 196.431C430.126 200.322 429.737 204.99 427.597 208.492C429.153 204.601 432.459 201.489 436.349 200.127C440.238 198.571 444.711 198.96 448.406 200.905C444.128 204.407 439.655 207.908 435.376 211.41C443.544 208.492 453.657 211.799 460.464 217.245C467.27 222.498 471.743 230.473 474.271 238.838C476.799 247.202 477.188 255.956 477.188 264.71C477.188 274.63 476.605 284.551 475.438 294.472C474.66 300.891 473.688 307.311 471.354 313.341C469.02 319.371 464.936 324.818 459.297 328.125L456.769 328.903Z" fill="#6A3649"/>
<path d="M286.02 254.789C287.965 244.674 294.383 235.725 302.356 229.111C310.33 222.498 319.859 218.218 329.582 214.522C345.14 208.686 361.476 204.601 378.006 204.796C394.537 204.99 411.456 209.659 424.486 219.969C437.904 214.717 454.24 219.969 464.547 230.084C469.409 234.947 473.104 240.588 476.021 246.813C475.632 244.09 475.049 241.172 474.271 238.449C471.937 230.084 467.465 222.109 460.463 216.856C453.657 211.604 443.544 208.103 435.376 211.021C439.655 207.519 444.128 204.018 448.406 200.516C444.711 198.571 440.238 198.182 436.349 199.738C433.043 200.905 430.126 203.24 428.375 206.352C428.181 206.935 427.792 207.519 427.403 208.103C427.597 207.519 427.986 206.935 428.375 206.352C429.737 203.045 429.737 199.349 428.57 196.042C427.208 192.152 423.708 189.039 419.818 187.677C421.569 194.68 421.763 200.711 423.513 207.519C383.452 188.261 332.889 193.513 297.494 220.552C286.409 229.111 275.908 241.95 279.019 255.567C279.992 260.236 282.714 264.515 286.215 267.822C285.242 263.737 285.242 259.068 286.02 254.789Z" fill="#8E5A61"/>
<path d="M467.076 294.472C472.132 291.943 478.744 292.332 482.633 296.223C487.495 300.892 487.301 308.673 486.134 315.481C485.356 320.344 484.189 325.207 481.856 329.487C479.522 333.766 476.021 337.657 471.354 339.408C445.683 349.718 450.351 302.448 467.076 294.472Z" fill="#F2C9AD"/>
<path d="M476.216 301.475C470.77 301.475 465.909 305.56 463.769 310.618C461.436 315.675 461.436 321.317 461.825 326.763C461.825 327.931 462.019 329.098 462.408 330.265C462.992 331.238 463.769 332.21 464.936 332.405C467.075 332.599 468.631 330.265 469.409 328.32C470.382 325.985 471.159 323.262 470.576 320.733C469.993 318.204 467.659 315.87 465.131 316.065C465.131 313.147 466.687 309.84 468.437 307.505C470.187 305.171 473.299 302.448 476.216 301.475Z" fill="#EBA58E"/>
<path d="M404.649 451.455L405.427 425.972L479.327 404.185L487.69 420.33L404.649 451.455Z" fill="#94C7D3"/>
<path d="M427.597 435.892L444.322 427.333C466.298 415.856 492.357 415.273 514.916 425.194C539.031 435.892 556.533 457.679 561.784 483.746L565.674 503.198C575.592 552.219 577.342 602.601 570.925 652.4L542.726 870.852H360.115L401.927 606.297L427.597 435.892Z" fill="#6CA8BF"/>
<path d="M487.69 519.733L414.762 644.424H404.844L389.091 688.582L415.151 519.733H487.69Z" fill="#41738C"/>
<path d="M529.307 583.732C501.108 640.145 414.762 739.936 414.762 739.936L421.763 736.629C450.934 722.429 474.854 699.475 490.412 671.074C512.582 630.029 527.751 604.935 529.307 583.732Z" fill="#468097"/>
<path d="M516.083 711.147C488.468 730.405 458.713 746.745 427.597 759.973C462.408 759.584 496.441 739.936 516.083 711.147Z" fill="#468097"/>
<path d="M279.408 440.95C264.434 485.108 267.351 535.101 287.382 577.118C293.799 590.735 302.94 604.352 317.136 609.41C320.053 620.692 322.387 632.364 323.554 644.035C324.332 651.622 332.305 656.29 339.306 653.178C340.862 652.4 342.418 651.622 343.974 650.649C347.28 648.704 349.419 645.008 349.419 641.117C349.224 627.89 347.28 613.3 345.529 600.461L364.004 592.097C366.727 601.24 368.283 610.188 369.061 617.191C370.033 624.777 378.59 629.057 385.202 624.972C385.202 624.972 385.397 624.972 385.397 624.777C388.703 622.832 390.647 619.33 390.647 615.44C390.453 597.349 385.008 582.371 385.008 582.371C416.901 511.369 349.613 429.084 349.613 429.084L279.408 440.95Z" fill="#797C99"/>
<path d="M318.886 467.406C334.444 464.488 349.808 451.455 354.67 436.087C351.558 431.807 349.613 429.473 349.613 429.473L279.408 440.95C278.047 445.23 276.686 449.509 275.713 453.789C287.187 464.682 303.329 470.324 318.886 467.406Z" fill="#495375"/>
<path d="M350.002 429.862C350.197 430.057 350.586 430.64 350.975 431.029C350.586 430.64 350.197 430.251 350.002 429.862Z" fill="#797C99"/>
<path d="M353.697 434.725C354.086 435.114 354.281 435.698 354.67 436.087C354.281 435.503 353.892 435.114 353.697 434.725Z" fill="#797C99"/>
<path d="M349.613 429.473C349.613 429.473 349.808 429.668 350.002 429.862C349.808 429.668 349.613 429.473 349.613 429.473Z" fill="#797C99"/>
<path d="M275.713 453.594C276.297 451.649 276.686 449.509 277.269 447.564C276.88 449.509 276.297 451.649 275.713 453.594Z" fill="#797C99"/>
<path d="M350.975 431.224C351.558 432.002 352.53 433.169 353.503 434.531C352.53 433.169 351.753 432.002 350.975 431.224Z" fill="#797C99"/>
<path d="M385.202 582.76C389.869 572.45 392.397 562.14 393.37 551.635C361.865 567.003 329.193 580.425 295.938 591.513C301.384 599.489 308.385 606.103 317.33 609.41C318.692 614.662 319.859 620.108 321.025 625.361C329.777 621.081 338.723 616.996 347.474 612.717C346.891 608.437 346.307 604.352 345.724 600.267L364.199 591.902C365.366 595.793 366.338 599.683 366.921 603.379C373.922 600.072 380.923 596.765 388.119 593.264C386.563 587.039 385.202 582.76 385.202 582.76Z" fill="#495375"/>
<path d="M277.463 447.564C278.047 445.23 278.825 443.09 279.603 440.95C278.825 443.09 278.047 445.23 277.463 447.564Z" fill="#495375"/>
<path d="M318.886 467.406C334.444 464.488 349.808 451.455 354.67 436.087C354.281 435.503 353.892 435.114 353.697 434.725C353.697 434.725 353.697 434.531 353.503 434.531C352.53 433.169 351.752 432.002 350.975 431.224C350.586 430.64 350.197 430.251 350.002 430.057C349.808 429.862 349.613 429.668 349.613 429.668L279.408 440.95C278.63 443.09 278.047 445.424 277.269 447.564C276.686 449.509 276.102 451.649 275.713 453.594C287.187 464.682 303.328 470.324 318.886 467.406Z" fill="#495375"/>
<path d="M300.022 608.631C303.523 614.662 304.106 622.443 301.189 628.862C298.272 635.282 292.243 640.145 285.437 641.701C278.241 643.257 270.657 641.117 263.267 640.923C244.014 640.534 225.539 655.707 222.038 674.576C218.538 693.639 230.595 714.259 248.876 720.678C256.071 723.207 264.628 723.596 270.851 719.122C277.074 714.648 279.797 704.922 274.741 699.281C269.879 693.834 261.322 694.417 254.71 691.5C247.32 688.387 242.263 680.606 242.458 672.631C242.652 664.655 248.098 657.068 255.488 654.151C263.072 651.233 271.629 653.372 279.797 652.983C291.465 652.4 302.939 646.37 309.746 636.838C316.747 627.306 319.275 614.856 316.358 603.379C311.691 604.546 304.495 607.659 300.022 608.631Z" fill="#797C99"/>
<path d="M316.358 603.574C311.885 604.546 304.495 607.659 300.022 608.826C303.523 614.856 304.106 622.443 301.384 628.862C306.051 629.251 310.913 628.473 315.191 626.917C317.719 619.33 318.303 611.16 316.358 603.574Z" fill="#495375"/>
<path d="M338.334 499.697L402.316 606.297L487.69 519.928C503.248 504.171 507.332 480.05 497.413 460.208C483.217 431.029 446.072 421.692 419.818 440.756L338.334 499.697Z" fill="#6CA8BF"/>
<path d="M414.762 577.313C403.483 551.635 379.173 513.897 360.309 493.083C371.589 518.76 395.898 556.304 414.762 577.313Z" fill="#468097"/>
<path d="M369.255 551.441L391.62 572.839C399.399 580.231 411.262 580.814 419.624 574.2L484.967 522.651L402.316 606.297L369.255 551.441Z" fill="#468097"/>
<path d="M340.862 503.977L274.352 559.222C261.711 569.726 258.405 587.623 266.184 601.823C274.741 617.385 293.799 623.804 310.135 616.607L387.536 581.787L340.862 503.977Z" fill="#F2C9AD"/>
<path d="M340.862 503.977L387.536 581.787L357.392 595.404L364.977 586.845C370.033 581.203 371.005 573.033 367.699 566.03L338.334 506.116L340.862 503.977Z" fill="#EBA58E"/>
<path d="M337.556 493.278C334.833 489.193 331.527 484.913 326.665 484.135C323.165 483.551 319.859 485.108 316.552 486.664C314.219 487.831 311.691 489.387 310.329 491.527C307.996 495.417 310.718 498.141 312.469 501.253C314.802 505.338 315.969 509.812 317.33 514.092C318.497 517.593 319.664 521.095 321.609 524.402C328.999 517.788 337.556 512.73 346.89 509.423C344.751 503.587 341.056 498.335 337.556 493.278Z" fill="#797C99"/>
<path d="M346.89 509.423C337.556 512.73 328.999 517.788 321.609 524.402C322.387 525.763 323.359 527.125 324.526 528.292C328.027 532.183 333.666 534.906 338.723 533.544C343.196 532.377 346.696 528.292 348.057 523.818C349.419 519.344 348.641 514.286 347.085 510.007C346.891 509.812 346.89 509.618 346.89 509.423Z" fill="#99A3B0"/>
<path d="M318.497 522.456C313.052 527.125 303.523 526.931 298.078 522.262C294.383 519.15 292.243 514.481 291.465 509.812C290.688 505.144 290.882 500.281 291.271 495.417C284.27 524.402 295.938 541.326 295.938 541.326L318.497 522.456Z" fill="#495375"/>
<path d="M321.025 511.369C319.664 507.089 318.497 502.42 316.164 498.53C314.413 495.417 311.691 492.694 314.024 488.804C314.219 488.415 314.608 488.22 314.802 487.831C313.052 488.804 311.496 489.971 310.524 491.721C308.19 495.612 310.913 498.335 312.663 501.448C314.997 505.533 316.164 510.007 317.525 514.286C318.692 517.788 319.859 521.289 321.803 524.596C322.97 523.624 324.137 522.651 325.304 521.678C323.359 518.371 321.998 514.87 321.025 511.369Z" fill="#495375"/>
<path d="M328.027 525.569C326.86 524.402 326.082 523.04 325.109 521.678C323.943 522.651 322.776 523.624 321.609 524.596C322.387 525.958 323.359 527.32 324.526 528.487C328.027 532.377 333.666 535.101 338.723 533.739C341.056 533.155 343.196 531.599 344.946 529.849C344.168 530.238 343.196 530.627 342.418 530.821C337.167 531.988 331.527 529.459 328.027 525.569Z" fill="#797C99"/>
<path d="M389.869 460.792C387.147 456.707 383.841 452.427 378.979 451.649C375.478 451.065 372.172 452.622 368.866 454.178C366.533 455.345 364.004 456.901 362.643 459.041C360.309 462.932 363.032 465.655 364.782 468.767C367.116 472.852 368.283 477.326 369.644 481.606C370.811 485.108 371.978 488.609 373.923 491.916C381.313 485.302 389.869 480.244 399.204 476.937C397.065 471.102 393.37 465.849 389.869 460.792Z" fill="#797C99"/>
<path d="M399.204 476.937C389.869 480.244 381.313 485.302 373.923 491.916C374.701 493.278 375.673 494.639 376.84 495.806C380.34 499.697 385.98 502.42 391.036 501.059C395.509 499.891 399.01 495.806 400.371 491.332C401.732 486.858 400.954 481.801 399.399 477.521C399.399 477.326 399.204 477.132 399.204 476.937Z" fill="#99A3B0"/>
<path d="M373.339 478.883C371.978 474.603 370.811 469.935 368.477 466.044C366.727 462.932 364.004 460.208 366.338 456.318C366.532 455.929 366.921 455.734 367.116 455.345C365.365 456.318 363.81 457.485 362.837 459.236C360.504 463.126 363.226 465.849 364.976 468.962C367.31 473.047 368.477 477.521 369.838 481.801C371.005 485.302 372.172 488.804 374.117 492.11C375.284 491.138 376.45 490.165 377.617 489.193C375.673 485.886 374.506 482.384 373.339 478.883Z" fill="#495375"/>
<path d="M380.34 492.889C379.173 491.721 378.395 490.36 377.423 488.998C376.256 489.971 375.089 490.943 373.922 491.916C374.7 493.278 375.673 494.639 376.839 495.806C380.34 499.697 385.98 502.42 391.036 501.059C393.37 500.475 395.509 498.919 397.259 497.168C396.481 497.557 395.509 497.946 394.731 498.141C389.48 499.502 384.035 496.974 380.34 492.889Z" fill="#797C99"/>
<path d="M316.923 361.548C299.001 361.742 275.616 366.602 260.754 375.543L245.018 343.665C233.435 428.414 247.641 453.489 278.02 456.599C308.399 459.904 349.269 442.021 359.541 430.164C369.813 418.307 357.792 387.595 315.611 339L316.923 361.548Z" fill="#797C99"/>
<path d="M308.385 401.072C304.495 396.209 299.05 392.513 292.827 391.735C286.604 390.957 279.991 393.291 276.296 398.154C272.796 402.629 272.018 408.464 271.435 414.106C278.241 414.884 285.437 415.467 292.049 413.716C298.466 411.966 305.079 407.103 308.385 401.072Z" fill="white"/>
<path d="M288.548 412.549C294.771 412.549 299.633 407.492 299.633 401.461C299.633 397.765 297.689 394.264 294.771 392.319C293.994 392.124 293.41 391.93 292.632 391.93C287.965 391.346 283.103 392.513 279.214 395.237C278.047 396.987 277.269 399.127 277.269 401.461C277.463 407.492 282.52 412.549 288.548 412.549Z" fill="#21255C"/>
<path d="M321.22 397.182C321.22 391.152 322.97 385.51 326.471 382.203C329.777 379.091 334.833 378.118 339.306 379.869C343.196 381.62 346.502 385.316 349.613 388.817C346.891 392.319 343.39 396.209 338.723 398.154C334.055 400.489 326.86 400.294 321.22 397.182Z" fill="white"/>
<path d="M340.084 395.626C336.583 398.738 330.749 397.571 327.249 392.708C325.109 389.79 324.526 386.288 325.304 383.37C325.693 382.981 326.082 382.592 326.471 382.203C328.999 379.674 332.499 378.702 336 379.091C337.556 379.869 338.917 381.036 340.084 382.592C343.39 386.872 343.39 392.708 340.084 395.626Z" fill="#21255C"/>
<path d="M261 376.152C256.264 378.864 251.958 382.351 249.159 387C247.222 371.115 248.298 350 248.298 350L261 376.152Z" fill="#E47790"/>
<path d="M316.889 361.48C323.555 361.67 330 363 330 363C324.222 353.12 316 344 316 344L316.889 361.48Z" fill="#E47790"/>
<path d="M251.015 439.588C256.46 436.671 263.656 432.78 271.046 429.084C278.436 425.388 285.826 422.081 291.465 419.358C285.437 421.109 277.658 424.026 270.268 427.722C263.072 431.418 256.071 435.698 251.015 439.588Z" fill="#21255C"/>
<path d="M253.154 449.898C258.405 445.813 265.211 440.367 272.407 435.309C279.408 430.251 286.798 425.583 292.438 421.887C286.409 424.61 278.63 428.89 271.435 433.947C264.434 439.199 257.821 445.035 253.154 449.898Z" fill="#21255C"/>
<path d="M266.573 450.871C270.073 447.37 274.741 442.701 279.602 438.227C284.464 433.753 289.521 429.473 293.216 426.166C288.937 428.89 283.686 432.78 278.824 437.449C273.963 441.728 269.49 446.786 266.573 450.871Z" fill="#21255C"/>
<path d="M376.062 397.182C371.005 396.987 364.199 397.571 357.587 399.322C350.974 400.878 344.751 403.407 340.084 405.935C344.946 404.185 351.363 402.045 357.781 400.489C364.393 398.738 371.005 397.765 376.062 397.182Z" fill="#21255C"/>
<path d="M384.229 404.379C378.201 403.601 370.422 403.407 362.643 404.185C354.864 404.963 347.085 406.714 341.445 408.853C347.279 407.686 355.058 406.325 362.837 405.546C370.422 404.574 378.201 404.379 384.229 404.379Z" fill="#21255C"/>
<path d="M383.257 410.993C377.812 409.826 370.811 409.242 363.615 409.242C356.42 409.242 349.224 410.021 343.973 410.993C349.419 410.799 356.614 410.41 363.615 410.41C370.616 410.604 377.812 410.799 383.257 410.993Z" fill="#21255C"/>
<path d="M325.693 403.99C319.47 403.601 313.052 405.741 308.19 409.826C307.023 410.799 307.412 412.549 308.579 413.133C311.496 414.495 314.802 415.273 317.914 415.467C319.858 415.662 321.803 414.689 322.97 413.133C324.526 411.188 326.082 408.853 327.248 406.714C328.026 405.741 327.054 404.185 325.693 403.99Z" fill="#495375"/>
<path d="M344.557 413.911C344.362 416.634 343.001 419.358 340.862 421.303C338.723 423.248 335.611 424.221 332.499 423.832C329.388 423.443 326.471 422.081 324.526 419.747C322.387 417.607 321.22 414.884 320.442 412.355C320.442 412.938 319.664 412.938 319.275 412.549C320.442 415.078 321.22 418.191 320.637 421.303C320.248 424.415 318.497 427.333 315.969 429.279C313.441 431.224 310.135 432.197 307.023 432.002C303.912 431.807 300.995 430.446 298.855 428.695C300.217 431.029 303.134 433.169 306.634 433.947C310.135 434.725 314.413 433.753 317.525 431.418C320.637 429.084 322.581 425.194 322.581 421.498C322.581 421.303 322.581 420.914 322.581 420.719C322.581 420.914 322.776 421.109 322.776 421.109C324.721 424.026 328.221 426.166 331.916 426.361C335.611 426.75 339.695 425.388 341.834 422.665C344.557 419.941 345.14 416.44 344.557 413.911Z" fill="#21255C"/>
<rect x="49" y="162" width="321" height="31" rx="15.5" fill="#09D4D9" fill-opacity="0.33"/>
<rect x="34" y="349" width="121" height="11" rx="5.5" fill="#09D4D9" fill-opacity="0.33"/>
<rect x="572" y="171" width="128" height="33" rx="16.5" fill="#09D4D9" fill-opacity="0.33"/>
<rect x="534" y="386" width="155" height="28" rx="14" fill="#09D4D9" fill-opacity="0.33"/>
<rect x="25" y="485" width="128" height="28" rx="14" fill="#09D4D9" fill-opacity="0.33"/>
<rect x="111" y="107" width="130" height="40" rx="20" fill="#09D4D9" fill-opacity="0.33"/>
<rect x="140" y="294" width="148" height="40" rx="20" fill="#09D4D9" fill-opacity="0.33"/>
<rect x="452" y="138" width="225" height="33" rx="16.5" fill="#09D4D9" fill-opacity="0.33"/>
<rect x="482" y="258" width="105" height="28" rx="14" fill="#09D4D9" fill-opacity="0.33"/>
<rect x="48" y="421" width="147" height="31" rx="15.5" fill="#09D4D9" fill-opacity="0.33"/>
<rect x="85" y="264" width="70" height="23" rx="11.5" fill="#09D4D9" fill-opacity="0.33"/>
</g>
<defs>
<filter id="filter0_d_206_3" x="0" y="0" width="728" height="966" filterUnits="userSpaceOnUse" color-interpolation-filters="sRGB">
<feFlood flood-opacity="0" result="BackgroundImageFix"/>
<feColorMatrix in="SourceAlpha" type="matrix" values="0 0 0 0 0 0 0 0 0 0 0 0 0 0 0 0 0 0 127 0" result="hardAlpha"/>
<feOffset dy="4"/>
<feGaussianBlur stdDeviation="2"/>
<feComposite in2="hardAlpha" operator="out"/>
<feColorMatrix type="matrix" values="0 0 0 0 0 0 0 0 0 0 0 0 0 0 0 0 0 0 0.25 0"/>
<feBlend mode="normal" in2="BackgroundImageFix" result="effect1_dropShadow_206_3"/>
<feBlend mode="normal" in="SourceGraphic" in2="effect1_dropShadow_206_3" result="shape"/>
</filter>
</defs>
</svg>
