<svg width="28" height="35" viewBox="0 0 28 35" fill="none" xmlns="http://www.w3.org/2000/svg">
<path d="M11.237 29.3817C11.238 28.1124 10.807 26.8806 10.015 25.8888L11.333 22.6504L10.3474 22.1182C10.1711 22.0224 10.0046 21.9095 9.85033 21.7811L8.72507 20.6714L6.77888 23.8841C5.64287 23.6443 4.46046 23.7624 3.39427 24.222C2.32808 24.6816 1.43046 25.4603 0.824856 26.4509C0.219253 27.4415 -0.0645914 28.5954 0.0123555 29.7539C0.0893023 30.9123 0.523261 32.0186 1.25456 32.9204C1.98585 33.8222 2.97856 34.4752 4.09618 34.7898C5.2138 35.1044 6.40143 35.065 7.49575 34.6771C8.59008 34.2892 9.53735 33.5718 10.2073 32.6235C10.8772 31.6752 11.237 30.5427 11.237 29.3817ZM2.49712 29.3817C2.49712 28.7643 2.68018 28.1608 3.02317 27.6475C3.36615 27.1342 3.85364 26.7341 4.424 26.4979C4.99436 26.2616 5.62197 26.1998 6.22746 26.3203C6.83295 26.4407 7.38913 26.738 7.82567 27.1745C8.2622 27.611 8.55948 28.1672 8.67992 28.7727C8.80036 29.3782 8.73855 30.0058 8.5023 30.5762C8.26605 31.1465 7.86597 31.634 7.35266 31.977C6.83935 32.32 6.23586 32.5031 5.61851 32.5031C4.79066 32.5031 3.99673 32.1742 3.41135 31.5888C2.82598 31.0035 2.49712 30.2095 2.49712 29.3817Z" fill="#2C3131"/>
<path d="M6.9451 -1.53646e-05L5.96342 0.430736C5.1503 0.780331 4.71487 1.58097 4.5705 2.98872C4.49247 3.77843 4.47374 5.09175 4.86782 6.86627C5.21507 8.42696 7.0684 16.3974 9.44222 19.7381C10.5651 21.3183 12.0696 21.6156 13.2784 21.8497C14.3818 22.0667 15.2535 22.2399 16.0096 23.2544C16.8789 24.4249 17.2878 25.3824 17.4611 25.8748C16.6345 26.9159 16.2054 28.2171 16.2506 29.5456C16.2957 30.8742 16.8121 32.1433 17.7073 33.1259C18.6026 34.1086 19.8183 34.7405 21.1369 34.9088C22.4555 35.0771 23.791 34.7706 24.9043 34.0443C26.0176 33.318 26.8362 32.2193 27.2135 30.9446C27.5908 29.67 27.5023 28.3027 26.9637 27.0874C26.4251 25.8721 25.4716 24.8881 24.2738 24.3115C23.0761 23.7349 21.7123 23.6033 20.4264 23.9403L6.9451 -1.53646e-05ZM13.7341 17.5204C13.7341 17.7673 13.6609 18.0087 13.5237 18.214C13.3865 18.4193 13.1915 18.5794 12.9634 18.6739C12.7352 18.7684 12.4842 18.7931 12.242 18.7449C11.9998 18.6967 11.7773 18.5778 11.6027 18.4032C11.4281 18.2286 11.3092 18.0061 11.261 17.7639C11.2128 17.5217 11.2376 17.2707 11.3321 17.0426C11.4266 16.8144 11.5866 16.6194 11.7919 16.4822C11.9972 16.345 12.2386 16.2718 12.4856 16.2718C12.8167 16.2718 13.1343 16.4033 13.3684 16.6375C13.6026 16.8716 13.7341 17.1892 13.7341 17.5204ZM24.9711 29.3816C24.9711 29.999 24.7881 30.6025 24.4451 31.1158C24.1021 31.6291 23.6146 32.0292 23.0443 32.2654C22.4739 32.5017 21.8463 32.5635 21.2408 32.4431C20.6353 32.3226 20.0791 32.0253 19.6426 31.5888C19.2061 31.1523 18.9088 30.5961 18.7883 29.9906C18.6679 29.3851 18.7297 28.7575 18.966 28.1871C19.2022 27.6168 19.6023 27.1293 20.1156 26.7863C20.6289 26.4433 21.2324 26.2603 21.8498 26.2603C22.6776 26.2603 23.4715 26.5891 24.0569 27.1745C24.6423 27.7599 24.9711 28.5538 24.9711 29.3816Z" fill="#2C3131"/>
<path d="M14.0361 10.6291L17.7958 17.1638L18.8165 15.0077L18.9523 14.7252C19.6585 13.2659 21.5376 9.38447 21.7717 5.42108C21.7896 5.11752 21.7982 4.83816 21.7982 4.57987C21.7959 2.96533 21.3815 2.10694 21.0694 1.58021L19.9769 3.55502e-06L14.0361 10.6291Z" fill="#2C3131"/>
</svg>
