<svg width="37" height="36" viewBox="0 0 37 36" fill="none" xmlns="http://www.w3.org/2000/svg">
<path fill-rule="evenodd" clip-rule="evenodd" d="M12.5395 0C14.7608 0 16.5653 3.38136 16.5653 6.24714C16.5653 9.11292 14.7651 11.433 12.5395 11.433C10.3182 11.433 8.51367 9.10862 8.51367 6.24714C8.51367 3.38136 10.3182 0 12.5395 0ZM23.9768 0C26.1981 0 28.0026 3.38136 28.0026 6.24714C28.0026 9.11292 26.2024 11.433 23.9768 11.433C21.7555 11.433 19.9509 9.10862 19.9509 6.24714C19.9509 3.38136 21.7555 0 23.9768 0ZM1.84118 8.59299C-0.0406986 9.34918 -0.457461 12.7477 0.487773 15.1108C1.42871 17.4739 3.72305 18.78 5.60922 18.0238C7.4911 17.272 8.25588 14.7456 7.31064 12.3825C6.36971 10.0194 3.72735 7.8411 1.84118 8.59299ZM36.0286 15.1108C35.0834 17.4739 32.7933 18.7801 30.9071 18.0282C29.021 17.2763 28.2605 14.7499 29.2057 12.3869C30.151 10.0238 32.7933 7.84543 34.6752 8.59732C36.5614 9.34921 36.9738 12.7478 36.0286 15.1108ZM30.0607 22.8704C31.1992 24.4859 32.2304 26.2303 32.6601 28.168C33.0897 30.1014 32.8534 32.2669 31.6547 33.8351C30.4559 35.4076 28.1831 36.1939 26.4086 35.3432C26.0229 35.1582 25.6641 34.9051 25.3073 34.6534C24.6865 34.2154 24.0718 33.7818 23.3323 33.7191C22.3553 33.6367 21.4821 34.2316 20.6573 34.7936C20.579 34.847 20.5011 34.9 20.4236 34.9522C19.7791 35.3904 19.0014 35.7857 18.2581 35.79C17.5148 35.7814 16.7372 35.3861 16.0927 34.9522C16.0152 34.9 15.9373 34.847 15.859 34.7936C15.0341 34.2316 14.161 33.6367 13.1839 33.7191C12.4445 33.7818 11.8298 34.2154 11.2089 34.6534C10.8522 34.9051 10.4933 35.1582 10.1076 35.3432C8.33317 36.1939 6.06032 35.4076 4.86159 33.8351C3.65856 32.2626 3.42655 30.1014 3.8562 28.1637C4.29015 26.2303 5.31702 24.4859 6.4556 22.8661C9.12373 19.0766 13.416 15.2484 18.2581 15.2484C23.1218 15.2484 27.3925 19.0765 30.0607 22.8704ZM20.3505 28.4086C21.0809 27.7211 21.9445 26.8361 22.4945 25.835C22.9456 25.0057 23.1819 24.0949 22.9499 23.1497C22.7222 22.2431 22.009 21.4439 21.1282 21.3322C20.1099 21.2033 18.9284 21.9208 18.2581 22.7415C17.5879 21.9165 16.4063 21.2033 15.3881 21.3322C14.5073 21.4439 13.7898 22.2431 13.5663 23.1497C13.33 24.0992 13.5706 25.0057 14.0218 25.835C14.5674 26.8404 15.4353 27.7211 16.1657 28.4086C16.561 28.7781 16.9735 29.1261 17.4031 29.444H17.4074C17.9101 29.8178 18.6019 29.8178 19.1088 29.444H19.1131C19.5428 29.1218 19.9596 28.7781 20.3505 28.4086Z" fill="#2C3131"/>
</svg>
