<svg width="37" height="37" viewBox="0 0 37 37" fill="none" xmlns="http://www.w3.org/2000/svg">
<path fill-rule="evenodd" clip-rule="evenodd" d="M18.26 0C13.4171 0 8.77264 1.92382 5.34823 5.34823C1.92382 8.77264 0 13.4171 0 18.26C0 23.1029 1.92382 27.7474 5.34823 31.1718C8.77264 34.5962 13.4171 36.52 18.26 36.52C23.1029 36.52 27.7474 34.5962 31.1718 31.1718C34.5962 27.7474 36.52 23.1029 36.52 18.26C36.52 13.4171 34.5962 8.77264 31.1718 5.34823C27.7474 1.92382 23.1029 0 18.26 0V0ZM18.26 31.955C17.6546 31.955 17.0741 31.7145 16.646 31.2865C16.218 30.8584 15.9775 30.2779 15.9775 29.6725C15.9775 29.0671 16.218 28.4866 16.646 28.0585C17.0741 27.6305 17.6546 27.39 18.26 27.39C18.8654 27.39 19.4459 27.6305 19.874 28.0585C20.302 28.4866 20.5425 29.0671 20.5425 29.6725C20.5425 30.2779 20.302 30.8584 19.874 31.2865C19.4459 31.7145 18.8654 31.955 18.26 31.955ZM22.0193 18.8146C20.9397 19.6478 20.3439 20.1065 20.3439 21.4327V23.2906C20.3439 24.3383 19.4172 25.1942 18.2737 25.1942C17.1279 25.1942 16.1989 24.3383 16.1989 23.2906V21.4327C16.1989 18.3353 18.0957 16.8722 19.3488 15.9045C20.4307 15.0691 21.0241 14.6126 21.0241 13.2887C21.0241 11.796 19.7893 10.5771 18.2737 10.5771C16.7558 10.5771 15.5233 11.7937 15.5233 13.2887C15.5233 14.3409 14.592 15.19 13.4485 15.19C12.3072 15.19 11.3737 14.3409 11.3737 13.2887C11.3737 9.69606 14.471 6.77446 18.2737 6.77446C22.0741 6.77446 25.1691 9.69378 25.1691 13.2887C25.1691 16.3838 23.2747 17.8446 22.0193 18.8146Z" fill="#2C3131"/>
</svg>
