<svg width="37" height="36" viewBox="0 0 37 36" fill="none" xmlns="http://www.w3.org/2000/svg">
<path fill-rule="evenodd" clip-rule="evenodd" d="M12.5395 0C14.7608 0 16.5654 3.38136 16.5654 6.24714C16.5654 9.11292 14.7651 11.433 12.5395 11.433C10.3182 11.433 8.51369 9.10862 8.51369 6.24714C8.51369 3.38136 10.3182 0 12.5395 0ZM23.9768 0C26.1981 0 28.0026 3.38136 28.0026 6.24714C28.0026 9.11292 26.2024 11.433 23.9768 11.433C21.7555 11.433 19.951 9.10862 19.951 6.24714C19.951 3.38136 21.7555 0 23.9768 0ZM1.84118 8.59302C-0.0406986 9.3492 -0.457461 12.7478 0.487773 15.1108C1.42871 17.4739 3.72305 18.7801 5.60922 18.0239C7.4911 17.272 8.25588 14.7456 7.31064 12.3825C6.36971 10.0195 3.72735 7.84113 1.84118 8.59302ZM36.0286 15.1109C35.0834 17.474 32.7934 18.7801 30.9072 18.0282C29.021 17.2763 28.2605 14.75 29.2058 12.3869C30.151 10.0238 32.7934 7.84545 34.6752 8.59734C36.5614 9.34924 36.9739 12.7478 36.0286 15.1109ZM30.0608 22.8704C31.1994 24.4859 32.2305 26.2302 32.6602 28.168C33.0898 30.1014 32.8535 32.2668 31.6548 33.8351C30.4561 35.4076 28.1832 36.1939 26.4087 35.3432C26.023 35.1581 25.6642 34.905 25.3074 34.6534C24.6866 34.2154 24.0719 33.7818 23.3324 33.7191C22.3554 33.6367 21.4823 34.2316 20.6574 34.7936L20.6565 34.7942L20.6537 34.7961C20.5766 34.8486 20.5 34.9008 20.4237 34.9522C19.7792 35.3904 19.0015 35.7857 18.2582 35.79C17.5149 35.7814 16.7373 35.3861 16.0928 34.9522C16.0153 34.9 15.9374 34.8469 15.8591 34.7936C15.0342 34.2316 14.1611 33.6367 13.1841 33.7191C12.4446 33.7818 11.8299 34.2154 11.209 34.6534C10.8523 34.905 10.4935 35.1581 10.1077 35.3432C8.33328 36.1939 6.06043 35.4076 4.8617 33.8351C3.65867 32.2626 3.42666 30.1014 3.85631 28.1637C4.29026 26.2302 5.31713 24.4859 6.45571 22.8661C9.12384 19.0765 13.4161 15.2483 18.2582 15.2483C23.1219 15.2483 27.3926 19.0765 30.0608 22.8704ZM16.6667 21H19.3333V23.6667H22V26.3333H19.3333V29H16.6667V26.3333H14V23.6667H16.6667V21Z" fill="#2C3131"/>
</svg>
